<svg width="48" height="48" viewBox="0 0 48 48" fill="none" xmlns="http://www.w3.org/2000/svg">
<path d="M24 36C26.4853 36 28.5 33.9853 28.5 31.5C28.5 29.0147 26.4853 27 24 27C21.5147 27 19.5 29.0147 19.5 31.5C19.5 33.9853 21.5147 36 24 36Z" fill="url(#paint0_linear_13_96)"/>
<path d="M24 18C21.33 18 18.7199 18.7918 16.4998 20.2752C14.2797 21.7586 12.5494 23.867 11.5276 26.3338C10.5058 28.8006 10.2385 31.515 10.7594 34.1337C11.2803 36.7525 12.5661 39.1579 14.4541 41.0459C16.3421 42.9339 18.7475 44.2197 21.3663 44.7406C23.985 45.2615 26.6994 44.9942 29.1662 43.9724C31.633 42.9506 33.7414 41.2203 35.2248 39.0002C36.7082 36.7801 37.5 34.17 37.5 31.5C37.496 27.9208 36.0724 24.4893 33.5416 21.9584C31.0107 19.4276 27.5792 18.004 24 18ZM24 39C22.5166 39 21.0666 38.5601 19.8332 37.736C18.5999 36.9119 17.6386 35.7406 17.0709 34.3701C16.5033 32.9997 16.3547 31.4917 16.6441 30.0368C16.9335 28.582 17.6478 27.2456 18.6967 26.1967C19.7456 25.1478 21.082 24.4335 22.5368 24.1441C23.9917 23.8547 25.4997 24.0032 26.8701 24.5709C28.2406 25.1386 29.4119 26.0999 30.236 27.3332C31.0601 28.5666 31.5 30.0166 31.5 31.5C31.4976 33.4884 30.7067 35.3947 29.3007 36.8007C27.8947 38.2067 25.9884 38.9976 24 39Z" fill="url(#paint1_linear_13_96)"/>
<path d="M17.4 16.38L21.45 9.82504L22.245 8.53504L19.725 4.42504C19.4501 3.9926 19.0714 3.63573 18.6235 3.38686C18.1755 3.138 17.6725 3.00503 17.16 3.00004H8.68503C8.14997 2.99725 7.62396 3.13811 7.1619 3.40794C6.69984 3.67777 6.31867 4.06666 6.05816 4.53404C5.79765 5.00141 5.66736 5.53014 5.68089 6.06505C5.69441 6.59995 5.85125 7.12142 6.13503 7.57504L13.185 19.035C14.4504 17.9457 15.871 17.0509 17.4 16.38ZM41.94 4.53004C41.6758 4.06659 41.294 3.68108 40.833 3.41244C40.3721 3.1438 39.8485 3.00154 39.315 3.00004H30.84C30.3293 3.00342 29.8278 3.13582 29.382 3.38496C28.9362 3.63409 28.5605 3.99186 28.29 4.42504L24 11.4L21.675 15.165C22.4453 15.0568 23.2222 15.0017 24 15C24.4258 14.9976 24.8514 15.0176 25.275 15.06C28.7995 15.3259 32.1446 16.7197 34.815 19.035L41.865 7.57504C42.1454 7.11935 42.3 6.59752 42.3132 6.06266C42.3264 5.52779 42.1976 4.99898 41.94 4.53004Z" fill="url(#paint2_linear_13_96)"/>
<defs>
<linearGradient id="paint0_linear_13_96" x1="20.4619" y1="28.2258" x2="28.5457" y2="29.6339" gradientUnits="userSpaceOnUse">
<stop stop-color="#12A09E"/>
<stop offset="1" stop-color="#A81FE9"/>
</linearGradient>
<linearGradient id="paint1_linear_13_96" x1="13.3858" y1="21.6774" x2="37.6372" y2="25.9017" gradientUnits="userSpaceOnUse">
<stop stop-color="#12A09E"/>
<stop offset="1" stop-color="#A81FE9"/>
</linearGradient>
<linearGradient id="paint2_linear_13_96" x1="9.59547" y1="5.18396" x2="38.8634" y2="16.8314" gradientUnits="userSpaceOnUse">
<stop stop-color="#12A09E"/>
<stop offset="1" stop-color="#A81FE9"/>
</linearGradient>
</defs>
</svg>
