<svg width="48" height="48" viewBox="0 0 48 48" fill="none" xmlns="http://www.w3.org/2000/svg">
<path d="M24 6C13.2 6 4.5 14.7 4.5 25.5C4.5 36.3 13.2 45 24 45C34.8 45 43.5 36.3 43.5 25.5C43.5 14.7 34.8 6 24 6ZM24 42.15C14.85 42.15 7.35 34.65 7.35 25.5C7.35 16.35 14.85 8.85 24 8.85C33.15 8.85 40.65 16.35 40.65 25.5C40.65 34.65 33.15 42.15 24 42.15ZM5.55 11.55L11.55 5.55C12.15 4.95 12.15 4.05 11.55 3.45C10.95 2.85 10.05 2.85 9.45 3.45L3.45 9.45C2.85 10.05 2.85 10.95 3.45 11.55C3.75 11.85 4.05 12 4.5 12C4.95 12 5.25 11.85 5.55 11.55ZM44.55 9.45L38.55 3.45C37.95 2.85 37.05 2.85 36.45 3.45C35.85 4.05 35.85 4.95 36.45 5.55L42.45 11.55C42.75 11.85 43.05 12 43.5 12C43.95 12 44.25 11.85 44.55 11.55C45.15 10.95 45.15 10.05 44.55 9.45Z" fill="url(#paint0_linear_13_101)"/>
<path d="M35.85 27H35.7C34.95 26.85 34.35 26.25 34.35 25.5C34.35 24.75 34.95 24.15 35.7 24H37.5C36.75 17.7 31.8 12.75 25.5 12V13.8C25.35 14.55 24.75 15.15 24 15.15C23.25 15.15 22.65 14.55 22.5 13.8V12C16.2 12.75 11.25 17.7 10.5 24H12.3C13.05 24.15 13.65 24.75 13.65 25.5C13.65 26.25 13.05 26.85 12.3 27H10.5C11.25 33.3 16.2 38.25 22.5 39V37.2C22.65 36.45 23.25 35.85 24 35.85C24.75 35.85 25.35 36.45 25.5 37.2V39C31.8 38.25 36.75 33.3 37.5 27H35.85C36 27 36 27 35.85 27ZM30 27H24C23.25 27 22.5 26.25 22.5 25.5V18C22.5 17.25 23.25 16.5 24 16.5C24.75 16.5 25.5 17.25 25.5 18V24H30C30.75 24 31.5 24.75 31.5 25.5C31.5 26.25 30.75 27 30 27Z" fill="url(#paint1_linear_13_101)"/>
<defs>
<linearGradient id="paint0_linear_13_101" x1="7.48905" y1="8.72035" x2="45.2133" y2="15.2916" gradientUnits="userSpaceOnUse">
<stop stop-color="#12A09E"/>
<stop offset="1" stop-color="#A81FE9"/>
</linearGradient>
<linearGradient id="paint1_linear_13_101" x1="13.3858" y1="15.6774" x2="37.6371" y2="19.9017" gradientUnits="userSpaceOnUse">
<stop stop-color="#12A09E"/>
<stop offset="1" stop-color="#A81FE9"/>
</linearGradient>
</defs>
</svg>
