<?xml version="1.0" encoding="UTF-8" standalone="no"?>
<svg
   xmlns:dc="http://purl.org/dc/elements/1.1/"
   xmlns:cc="http://creativecommons.org/ns#"
   xmlns:rdf="http://www.w3.org/1999/02/22-rdf-syntax-ns#"
   xmlns:svg="http://www.w3.org/2000/svg"
   xmlns="http://www.w3.org/2000/svg"
   xmlns:xlink="http://www.w3.org/1999/xlink"
   xmlns:sodipodi="http://sodipodi.sourceforge.net/DTD/sodipodi-0.dtd"
   xmlns:inkscape="http://www.inkscape.org/namespaces/inkscape"
   width="1200pt"
   height="1200pt"
   version="1.1"
   viewBox="0 0 1200 1200"
   id="svg8"
   sodipodi:docname="globe.svg"
   inkscape:version="0.92.4 (5da689c313, 2019-01-14)">
  <metadata
     id="metadata14">
    <rdf:RDF>
      <cc:Work
         rdf:about="">
        <dc:format>image/svg+xml</dc:format>
        <dc:type
           rdf:resource="http://purl.org/dc/dcmitype/StillImage" />
      </cc:Work>
    </rdf:RDF>
  </metadata>
  <defs
     id="defs12">
    <linearGradient
       inkscape:collect="always"
       id="linearGradient825">
      <stop
         style="stop-color:#12a09e;stop-opacity:1"
         offset="0"
         id="stop821" />
      <stop
         style="stop-color:#a81fe9;stop-opacity:1"
         offset="1"
         id="stop823" />
    </linearGradient>
    <linearGradient
       inkscape:collect="always"
       xlink:href="#linearGradient825"
       id="linearGradient827"
       x1="-0.00060000003"
       y1="547.92279"
       x2="1200"
       y2="549.15253"
       gradientUnits="userSpaceOnUse" />
  </defs>
  <sodipodi:namedview
     pagecolor="#ffffff"
     bordercolor="#666666"
     borderopacity="1"
     objecttolerance="10"
     gridtolerance="10"
     guidetolerance="10"
     inkscape:pageopacity="0"
     inkscape:pageshadow="2"
     inkscape:window-width="1920"
     inkscape:window-height="974"
     id="namedview10"
     showgrid="false"
     inkscape:zoom="0.1475"
     inkscape:cx="-128.81356"
     inkscape:cy="800"
     inkscape:window-x="-11"
     inkscape:window-y="-11"
     inkscape:window-maximized="1"
     inkscape:current-layer="svg8" />
  <g
     fill="#00cdcd"
     id="g6"
     style="fill-opacity:1;fill:url(#linearGradient827)">
    <path
       d="m1052.4 206.52c-96.633-113.14-232.57-185.44-380.4-202.32-7.1992-0.83984-13.559-2.7578-19.922-4.1992h-103.92c-26.762 4.9219-53.641 9.1211-80.16 15-120.54 27.188-229.73 90.93-312.68 182.51-82.945 91.582-135.6 206.54-150.76 329.17-1.125 7.1602-2.6484 14.25-4.5586 21.242v103.92c5.1602 27.48 9.3594 55.078 15.48 82.199v-0.003907c31.512 137.98 110.84 260.37 223.93 345.47 113.09 85.109 252.65 127.45 393.96 119.54 141.31-7.9219 275.27-65.59 378.14-162.8 102.87-97.207 168.03-227.68 183.93-368.32 10.52-82.664 3.1953-166.62-21.48-246.21-24.676-79.594-66.125-152.97-121.56-215.19zm-661.32 625.68c8.8789 15.602 37.199 27.602 53.52 20.879h0.003906c4.5898-3.3594 8.6367-7.4062 12-12 4.3164-4.4258 10.254-6.8945 16.438-6.8398-6.1211 13.922-12 27.719-19.801 44.52v0.003907c8.8945 4.0312 18.242 6.9727 27.84 8.7578l-22.559 2.0391c-12-1.8008-21.238-14.398-31.922-22.078h0.003906c-4.9258-5.3633-11.055-9.4766-17.883-12-33.719-1.5586-51-28.078-73.559-46.559-3.7812-2.7188-6.4297-6.7344-7.4414-11.281 2.1602-39.121-22.801-69.602-32.039-104.88-1.4766-7.1289-2.4805-14.344-3-21.602 0.34766-4.4805-0.4375-8.9805-2.2812-13.082-20.039-12-15.121-36-27.48-51.961l0.003906 0.003906c-1.3672-1.4805-2.1758-3.3906-2.2812-5.4023 1.6797-36-3.1211-74.398 32.52-100.92l22.441 14.16-10.441-20.281c4.3203-7.9219 9-15.719 12.961-24v0.003907c2.0117-3.7266 2.9648-7.9375 2.7539-12.168s-1.5781-8.3242-3.9531-11.832c-5.6562-11.332-5.6562-24.664 0-36 17.762-22.199 10.32-53.281 36-77.281l-19.801 4.0781 8.2812-15h-5.8789l-0.003907 0.003907c-0.17969-12.488-1.4648-24.938-3.8398-37.199-3.8047-5.9727-9.3281-10.66-15.84-13.441-4.5039-1.3203-8.8203-3.2148-12.84-5.6406 0.375-5.5156 2.1523-10.84 5.1602-15.48 3.1641-5.4531 6.6094-10.742 10.32-15.84 21.719 16.078 37.078-1.3203 54.602-12h-0.003906c6.3984-3.7734 13.879-5.293 21.242-4.3203 3.9688 4.4688 6.1875 10.223 6.2383 16.203 2.5195 16.922 3.9609 34.199 5.0391 44.16 17.52 16.078 42.359 28.922 42.121 41.039-0.52734 7.3008 1.9609 14.496 6.8789 19.914 4.9219 5.4219 11.844 8.5859 19.164 8.7656 20.52-2.5195 27 19.559 44.52 20.762 5.5195-4.1992 11.16-8.2812 17.879-13.078 6.4805 17.754 15.84 31.555-8.1602 40.676-8.7578 4.5742-16.418 11.004-22.441 18.84-11.16 12-20.641 24.84-9.1211 42.359h0.003906c1.0039 3.2461 1.0039 6.7188 0 9.9609 17.34 9.4258 33.875 20.262 49.438 32.398 7.0781 6.3594 6.1211 20.762 10.801 30.602 5.6094 8.1953 12.086 15.758 19.32 22.559 3-18.719 4.9219-32.039 7.4414-45.359 0.71875-3.6016 4.0781-6.6016 5.1602-10.199 2.9453-8.8906 5.1914-18 6.7188-27.238 0.83984-5.6406-2.5195-12-1.8008-17.398v-0.003907c1.543-7.7344 3.6289-15.355 6.2422-22.801 8.4492 5.2227 15.953 11.836 22.199 19.562 12 21.359 15.719 23.16 32.641 10.078 17.879 17.641 36 35.281 53.641 53.398l-0.003907 0.003907c-8.6914 12.918-23.188 20.727-38.758 20.879-12.168 2.4375-23.16 8.9062-31.199 18.359-9.7539 11.27-18.582 23.309-26.402 36l3.7188 4.3203 48-17.281c-15.598 19.562-27.598 35.762-41.879 50.762-6.5312 6.1211-13.832 11.363-21.719 15.598-11.16 7.0781-22.68 13.68-33.602 20.281 21.602 20.879 21.602 20.879 3.4805 36l-39.48 49.441c-21-6.7188-43.801-25.68-73.68-15-3.2344 0.76953-6.6055 0.76953-9.8398 0-36-6.2383-42.84 0-57.84 34.078-10.484 20.938-9.7188 45.75 2.0391 66zm362.88-525.72c-15 18.602 3 46.559-21.961 52.922l-7.5586 41.281v-0.003906c-11.082-10.438-21.391-21.668-30.84-33.602-1.5039-3.8125-2.1992-7.8984-2.043-12-1.8008-8.7617-0.83984-20.281-6.1211-25.922-19.078-20.039-40.32-38.281-64.441-60l23.164-41.156 36 6.1211v-4.3203c12 9.1211 25.078 18 37.078 27.48s2.8789 15.84-2.5195 19.32zm216 669.6v-0.003906c-16.645 28.43-34.918 55.875-54.723 82.203-12 15.121-32.641 24-49.199 36-19.074 15.277-39.117 29.305-60 42l-154.2 9.9609c3-11.281 3.8398-21.48-11.16-27.238-54.602-20.52-54.48-20.879-93.48-66.719l14.402-20.285-12-8.6406c6.9609-5.5 14.211-10.629 21.719-15.359 18.961-10.559 7.5586-31.801 16.68-46.199 9.1211-14.398 15.121-27 33.719-27l7.6797 18.961c4.1172-0.023438 8.1914-0.83984 12-2.4023 14.309-9.957 31.566-14.781 48.961-13.68 9.1406-0.84766 18.34-0.84766 27.48 0 14.52 3.7188 27.961 11.039 42.359 15 10.895 2.5859 22.047 3.9141 33.242 3.9609 8.5195 0 17.16-3.2383 25.559-2.6406 18.602 1.1992 22.801 9.8398 15.359 27.238-3.0039 8.7656-5.4883 17.703-7.4375 26.762 18.121-8.1602 31.32-15.121 45.238-20.16 8.6016-1.1367 17.316-1.1367 25.918 0l70.559-20.039h0.003906c0.92188 2.6797 1.5273 5.457 1.8008 8.2773zm62.762-744-4.3203 2.2812-24 144c-28.801-10.68-28.559-37.441-36-58.801-8.2812-24-11.039-49.32-17.039-73.922h-0.003906c-1.6445-6.9492-4.9805-13.379-9.7188-18.719-15.359-16.801-31.32-33.359-48-48.84v-0.003906c-6.6953-3.7773-14.008-6.3359-21.602-7.5586 3 12 4.9219 20.039 8.0391 33.121-8.0547-6.9297-16.777-13.039-26.039-18.242-6.8711-1.3906-13.926-1.6328-20.879-0.71875 1.6953 7 5.0273 13.496 9.7188 18.961 16.922 10.68 36 18.84 52.922 28.559 5.6758 3.7695 11.016 8.0273 15.961 12.723l-29.16 14.52c-3.3633-7.2812-7.7695-14.031-13.082-20.043-12-12-27.359-21.238-39.602-33.238h0.003906c-7.8594-9.3438-14.848-19.387-20.883-30 10.922-4.9219 16.441-6.9609 21.602-9.8398 5.1602-2.8789 12-7.6797 17.039-12-4.5117-6.8867-10.008-13.074-16.32-18.359-21.602-12.719-44.52-23.16-65.879-36-9.4805-7.082-26.879-8.8828-27.359-27.961-2.5547-3.7109-6.6641-6.0547-11.16-6.3594-19.59 0.97656-39.102 3.1016-58.441 6.3594-21.602 4.0781-42.961 10.68-68.879 17.398 3.2383-10.32 4.5586-14.762 6.4805-20.879-19.559 1.4414-38.398 2.8789-57.238 3.9609h-0.003906c-8.2539-0.90234-16.582-0.90234-24.84 0-16.164 4.543-31.906 10.484-47.039 17.758-13.199 6.3594-24 17.641-38.039 23.039-19.801 7.8008-36.719 15.48-40.559 40.199-1.1992 6.8398-13.078 12-16.199 14.762l-38.52-13.559c-1.5586-8.6406-4.5586-18.359 16.68-20.641 8.7617-0.96094 15.84-18.238 23.281-28.441l-0.003906 0.003906c1.5312-4.5469 3.6719-8.8672 6.3594-12.84 21.238-15.121 41.879-30.359 51.359-56.398v-0.003906c3.6328-2.875 8.0898-4.5156 12.719-4.6797 159.12-38.879 309.12-15.121 450.24 66.84 11.551 8.5859 22.168 18.359 31.68 29.16 5.1445 6.9492 11.898 12.551 19.68 16.32 38.641 8.5195 54.359 43.559 85.441 67.801h-16.441zm139.44 397.56c-7.5586 27.961-18 55.32-27 83.039-4.9219 15.121-12 17.762-26.879 9.7188-14.883-8.0391-26.281-18.598-26.281-38.398-0.019531-6.6641-1.7969-13.207-5.1602-18.961-18.84-31.438-15.961-65.039-12.84-99.84 0.25391-11.699-1.5312-23.352-5.2812-34.438-6-21.719-12-42.961-1.1992-64.922 2.0039-4.8516 3.1797-10 3.4805-15.238l19.922-48c1.5156-0.046874 2.9961-0.45703 4.3164-1.2031 12.961-18.719 33.961-35.16 12-62.16-5.5195-7.0781-2.1602-21.121 1.6797-33.84 14.039 31.801 29.641 63 42 96h0.003906c20.188 51.539 31.273 106.19 32.758 161.52-0.63672 22.672-4.5156 45.141-11.52 66.719z"
       id="path2"
       style="fill-opacity:1;fill:url(#linearGradient827)" />
    <path
       d="m511.68 569.76-7.6797 53.52 6.1211 0.71875c0.86328-6.9609 2.6406-13.781 5.2773-20.281 4.0664-5.4766 8.8711-10.363 14.281-14.52l8.8789 12.719 7.8008 12c3.8398-12 24-17.52 9.8398-34.199h-18.48c-9.1211-10.801-14.641-23.281-22.922-25.559-8.2812-2.2812-18.48 6.6016-27.961 10.441l1.6797 4.9219h23.16z"
       id="path4"
       style="fill-opacity:1;fill:url(#linearGradient827)" />
  </g>
</svg>
