<?xml version="1.0" encoding="UTF-8" standalone="no"?>
<svg
   xmlns:dc="http://purl.org/dc/elements/1.1/"
   xmlns:cc="http://creativecommons.org/ns#"
   xmlns:rdf="http://www.w3.org/1999/02/22-rdf-syntax-ns#"
   xmlns:svg="http://www.w3.org/2000/svg"
   xmlns="http://www.w3.org/2000/svg"
   xmlns:xlink="http://www.w3.org/1999/xlink"
   xmlns:sodipodi="http://sodipodi.sourceforge.net/DTD/sodipodi-0.dtd"
   xmlns:inkscape="http://www.inkscape.org/namespaces/inkscape"
   width="1200pt"
   height="1200pt"
   version="1.1"
   viewBox="0 0 1200 1200"
   id="svg4"
   sodipodi:docname="lock.svg"
   inkscape:version="0.92.4 (5da689c313, 2019-01-14)">
  <metadata
     id="metadata10">
    <rdf:RDF>
      <cc:Work
         rdf:about="">
        <dc:format>image/svg+xml</dc:format>
        <dc:type
           rdf:resource="http://purl.org/dc/dcmitype/StillImage" />
      </cc:Work>
    </rdf:RDF>
  </metadata>
  <defs
     id="defs8">
    <linearGradient
       inkscape:collect="always"
       id="linearGradient821">
      <stop
         style="stop-color:#12a09f;stop-opacity:0.94117647"
         offset="0"
         id="stop817" />
      <stop
         style="stop-color:#a81fe9;stop-opacity:1"
         offset="1"
         id="stop819" />
    </linearGradient>
    <linearGradient
       inkscape:collect="always"
       xlink:href="#linearGradient821"
       id="linearGradient823"
       x1="167.79662"
       y1="762.71185"
       x2="1022.0339"
       y2="757.62714"
       gradientUnits="userSpaceOnUse" />
  </defs>
  <sodipodi:namedview
     pagecolor="#ffffff"
     bordercolor="#666666"
     borderopacity="1"
     objecttolerance="10"
     gridtolerance="10"
     guidetolerance="10"
     inkscape:pageopacity="0"
     inkscape:pageshadow="2"
     inkscape:window-width="1920"
     inkscape:window-height="974"
     id="namedview6"
     showgrid="false"
     inkscape:zoom="0.1475"
     inkscape:cx="-128.81356"
     inkscape:cy="800"
     inkscape:window-x="-11"
     inkscape:window-y="-11"
     inkscape:window-maximized="1"
     inkscape:current-layer="svg4" />
  <path
     d="m265.2 1149.6h669.6c48 0 87.602-38.398 87.602-87.602v-480c0-48-38.398-87.602-87.602-87.602h-2.3984v-115.2c0-182.4-147.6-330-330-330-182.4 0-330 147.6-330 330v115.2h-7.1992c-48 0-87.602 38.398-87.602 87.602v480c0 48 39.598 87.602 87.598 87.602zm386.4-306c-7.1992 4.8008-8.3984 9.6016-8.3984 18v105.6c1.1992 14.398-7.1992 28.801-19.199 36-31.199 15.602-61.199-6-61.199-36v-105.6c0-7.1992-1.1992-12-8.3984-16.801-32.398-24-42-63.602-26.398-98.398 15.602-34.801 52.801-54 88.801-46.801 39.602 8.3984 67.199 39.602 67.199 79.199 1.1914 26.398-10.809 49.199-32.406 64.801zm-234-463.2c0-102 82.801-186 186-186 103.2 0 186 82.801 186 186v115.2l-372 0.003906z"
     fill="#00cdcd"
     id="path2"
     style="fill-opacity:1;fill:url(#linearGradient823)" />
</svg>
