<svg width="436" height="487" viewBox="0 0 436 487" fill="none" xmlns="http://www.w3.org/2000/svg">
<path d="M62.03 88.53C95.38 55.17 191.95 97.66 277.72 183.43C363.49 269.2 405.99 365.77 372.63 399.13" stroke="url(#paint0_linear_13_208)" stroke-width="0.99" stroke-miterlimit="10"/>
<path d="M372.63 88.53C405.99 121.88 363.49 218.45 277.72 304.22C191.95 389.99 95.38 432.48 62.03 399.13" stroke="#000940" stroke-width="0.99" stroke-miterlimit="10"/>
<path d="M400.396 131.898C410.886 121.408 410.886 104.401 400.396 93.9119C389.907 83.4224 372.9 83.4224 362.411 93.9119C351.921 104.401 351.921 121.408 362.411 131.898C372.9 142.387 389.907 142.387 400.396 131.898Z" fill="#12A09E"/>
<g filter="url(#filter0_d_13_208)">
<path d="M380.827 161.592C380.35 159.158 378.966 156.963 376.867 155.579L321.608 118.072C320.702 117.452 319.652 116.975 318.554 116.736L66.6951 55.3222C63.3548 54.511 59.8236 55.6085 57.5331 58.1376C55.2426 60.7144 54.5269 64.341 55.6721 67.5859L184.179 425.238C185.372 428.53 188.282 430.916 191.766 431.346C192.148 431.393 192.577 431.441 192.959 431.441C196.013 431.441 198.924 429.962 200.689 427.385L379.3 168.606C380.732 166.554 381.305 164.025 380.827 161.592ZM90.4113 108.863L201.5 241.473C201.453 241.711 201.405 241.95 201.405 242.189L186.994 377.614L90.4113 108.863ZM351.958 161.258L246.976 214.321L318.841 138.83L351.958 161.258ZM211.617 224.342L91.1271 80.5654L299.992 131.481L211.617 224.342ZM219.49 249.251L344.561 186.024L204.602 388.733L219.49 249.251Z" fill="#000940"/>
<path d="M376.316 156.414L376.305 156.407L321.047 118.9L321.044 118.898C320.233 118.343 319.302 117.922 318.342 117.713L318.33 117.711L318.318 117.708L66.4591 56.2939C66.459 56.2939 66.4588 56.2939 66.4586 56.2938C63.4773 55.57 60.3226 56.5498 58.2775 58.8054C56.2309 61.1104 55.5924 64.3523 56.6142 67.2505C56.6145 67.2513 56.6148 67.2522 56.6151 67.2531L185.119 424.897L376.316 156.414ZM376.316 156.414C378.176 157.64 379.417 159.594 379.846 161.784C380.269 163.939 379.764 166.194 378.48 168.034L378.477 168.038L199.866 426.817L199.864 426.82C198.29 429.118 195.691 430.441 192.959 430.441C192.646 430.441 192.272 430.401 191.89 430.353L191.888 430.353M376.316 156.414L191.888 430.353M191.888 430.353C188.791 429.971 186.189 427.848 185.12 424.899L191.888 430.353ZM91.1779 108.22L89.4703 109.201L186.053 377.953L187.988 377.72L202.399 242.294L202.405 242.242V242.189C202.405 242.066 202.43 241.926 202.481 241.669L202.575 241.199L202.267 240.831L91.1779 108.22ZM352.409 162.15L353.926 161.383L352.518 160.43L319.402 138.002L318.7 137.527L318.116 138.14L246.252 213.631L247.428 215.213L352.409 162.15ZM210.85 224.984L211.569 225.842L212.341 225.031L300.716 132.171L301.908 130.919L300.229 130.51L91.364 79.5938L88.4034 78.8721L90.3607 81.2077L210.85 224.984ZM219.039 248.359L218.554 248.604L218.496 249.145L203.608 388.627L205.425 389.301L345.384 186.592L344.11 185.131L219.039 248.359Z" stroke="#34DCF9" stroke-width="2"/>
</g>
<path d="M62.0301 399.13C28.6801 365.77 71.1701 269.2 156.94 183.43C242.71 97.66 339.28 55.17 372.63 88.53" stroke="#000940" stroke-width="0.99" stroke-miterlimit="10"/>
<path d="M372.63 399.13C339.28 432.48 242.71 389.99 156.94 304.22C71.1701 218.45 28.6801 121.88 62.0301 88.53" stroke="url(#paint1_linear_13_208)" stroke-width="0.99" stroke-miterlimit="10"/>
<path d="M110.5 243.61C110.5 244.725 110.169 245.816 109.549 246.743C108.93 247.671 108.049 248.394 107.018 248.821C105.988 249.248 104.854 249.359 103.76 249.142C102.666 248.924 101.661 248.387 100.872 247.598C100.083 246.809 99.546 245.804 99.3283 244.71C99.1107 243.616 99.2224 242.482 99.6493 241.452C100.076 240.421 100.799 239.54 101.727 238.92C102.654 238.301 103.744 237.97 104.86 237.97C106.356 237.97 107.79 238.564 108.848 239.622C109.906 240.68 110.5 242.114 110.5 243.61Z" fill="url(#paint2_linear_13_208)"/>
<path d="M348.59 77.3099C348.59 78.1011 348.355 78.8744 347.916 79.5322C347.476 80.19 346.852 80.7027 346.121 81.0055C345.39 81.3082 344.586 81.3874 343.81 81.2331C343.034 81.0787 342.321 80.6978 341.762 80.1384C341.202 79.579 340.821 78.8662 340.667 78.0903C340.512 77.3144 340.592 76.5101 340.894 75.7792C341.197 75.0483 341.71 74.4236 342.368 73.9841C343.025 73.5445 343.799 73.3099 344.59 73.3099C345.651 73.3099 346.668 73.7314 347.418 74.4815C348.169 75.2317 348.59 76.2491 348.59 77.3099Z" fill="#000940"/>
<path d="M58.32 141.44C58.322 142.548 57.9952 143.632 57.3811 144.554C56.767 145.476 55.893 146.195 54.87 146.621C53.8469 147.046 52.7206 147.159 51.6336 146.944C50.5467 146.729 49.5479 146.196 48.7637 145.413C47.9796 144.631 47.4452 143.633 47.2283 142.546C47.0114 141.46 47.1218 140.333 47.5453 139.309C47.9689 138.285 48.6866 137.41 49.6078 136.794C50.5289 136.179 51.612 135.85 52.72 135.85C54.2035 135.85 55.6263 136.439 56.6763 137.487C57.7262 138.535 58.3173 139.956 58.32 141.44Z" fill="url(#paint3_linear_13_208)"/>
<path d="M382.8 338.13C382.8 338.69 382.634 339.237 382.323 339.702C382.012 340.168 381.57 340.53 381.053 340.745C380.536 340.959 379.967 341.015 379.418 340.906C378.869 340.796 378.365 340.527 377.969 340.131C377.573 339.735 377.304 339.231 377.194 338.682C377.085 338.133 377.141 337.564 377.355 337.047C377.57 336.53 377.932 336.088 378.398 335.777C378.863 335.466 379.41 335.3 379.97 335.3C380.342 335.299 380.711 335.371 381.055 335.513C381.399 335.654 381.711 335.863 381.974 336.126C382.237 336.389 382.446 336.701 382.587 337.045C382.729 337.389 382.801 337.758 382.8 338.13Z" fill="url(#paint4_linear_13_208)"/>
<path d="M385.63 386.19C385.632 387.124 385.357 388.038 384.839 388.816C384.321 389.594 383.584 390.2 382.721 390.559C381.858 390.917 380.908 391.012 379.992 390.83C379.075 390.648 378.233 390.198 377.572 389.538C376.912 388.877 376.462 388.035 376.28 387.118C376.098 386.202 376.193 385.252 376.551 384.389C376.91 383.526 377.516 382.789 378.294 382.271C379.072 381.753 379.986 381.478 380.92 381.48C382.169 381.48 383.367 381.976 384.25 382.86C385.134 383.743 385.63 384.941 385.63 386.19Z" fill="url(#paint5_linear_13_208)"/>
<path d="M332.775 410.556C333.462 406.315 330.581 402.319 326.339 401.632C322.098 400.945 318.103 403.827 317.416 408.068C316.729 412.31 319.61 416.305 323.852 416.992C328.093 417.679 332.088 414.798 332.775 410.556Z" fill="url(#paint6_linear_13_208)"/>
<path d="M52.17 353.14C54.2521 353.14 55.94 351.452 55.94 349.37C55.94 347.288 54.2521 345.6 52.17 345.6C50.0879 345.6 48.4 347.288 48.4 349.37C48.4 351.452 50.0879 353.14 52.17 353.14Z" fill="#000940"/>
<path d="M132.23 404.2C132.23 404.689 132.085 405.166 131.814 405.572C131.542 405.978 131.157 406.295 130.705 406.482C130.254 406.669 129.757 406.718 129.278 406.623C128.799 406.527 128.359 406.292 128.013 405.947C127.668 405.601 127.433 405.161 127.338 404.682C127.242 404.203 127.291 403.706 127.478 403.255C127.665 402.803 127.982 402.418 128.388 402.146C128.794 401.875 129.272 401.73 129.76 401.73C130.085 401.729 130.407 401.792 130.707 401.915C131.007 402.039 131.28 402.221 131.51 402.45C131.739 402.68 131.921 402.953 132.045 403.253C132.168 403.553 132.231 403.875 132.23 404.2Z" fill="#000940"/>
<path d="M424.66 311.45H332.07C328.077 311.45 324.84 314.687 324.84 318.68V358.16C324.84 362.153 328.077 365.39 332.07 365.39H424.66C428.653 365.39 431.89 362.153 431.89 358.16V318.68C431.89 314.687 428.653 311.45 424.66 311.45Z" fill="#12A09E"/>
<path d="M342.98 318.79H338.22V329.7H342.98V318.79Z" fill="#34DCF9"/>
<path d="M349.82 318.79H345.06V329.7H349.82V318.79Z" fill="#34DCF9"/>
<path d="M356.67 318.79H351.91V329.7H356.67V318.79Z" fill="#FFFBFF"/>
<path d="M363.51 318.79H358.75V329.7H363.51V318.79Z" fill="#34DCF9"/>
<path d="M370.35 318.79H365.59V329.7H370.35V318.79Z" fill="#FFFBFF"/>
<path d="M389.31 318.79H384.55V329.7H389.31V318.79Z" fill="#FFFBFF"/>
<path d="M396.15 318.79H391.39V329.7H396.15V318.79Z" fill="#34DCF9"/>
<path d="M402.99 318.79H398.23V329.7H402.99V318.79Z" fill="#FFFBFF"/>
<path d="M409.83 318.79H405.07V329.7H409.83V318.79Z" fill="#FFFBFF"/>
<path d="M416.67 318.79H411.91V329.7H416.67V318.79Z" fill="#FFFBFF"/>
<path d="M379.25 324.41H375.2V325.35H379.25V324.41Z" fill="#FFFBFF"/>
<path d="M372.29 337.93H338.44V341.36H372.29V337.93Z" fill="#FFFBFF"/>
<path d="M387.29 345.52H338.44V348.95H387.29V345.52Z" fill="#FFFBFF"/>
<path d="M376.42 353.1H338.44V356.53H376.42V353.1Z" fill="#FFFBFF"/>
<path d="M417.51 353.1H385.04V356.53H417.51V353.1Z" fill="#FFFBFF"/>
<path d="M98.01 64.71H37.5C35.8542 64.71 34.52 66.0442 34.52 67.69V96.76C34.52 98.4058 35.8542 99.74 37.5 99.74H98.01C99.6558 99.74 100.99 98.4058 100.99 96.76V67.69C100.99 66.0442 99.6558 64.71 98.01 64.71Z" fill="#12A09E"/>
<path d="M43.44 90.83H40.87V96.35H43.44V90.83Z" fill="#FFFBFF"/>
<path d="M50.72 85.33H48.15V96.35H50.72V85.33Z" fill="#FFFBFF"/>
<path d="M57.99 75.8H55.42V96.35H57.99V75.8Z" fill="#FFFBFF"/>
<path d="M65.2601 83.48H62.6901V96.35H65.2601V83.48Z" fill="#FFFBFF"/>
<path d="M72.54 81.46H69.97V96.35H72.54V81.46Z" fill="#FFFBFF"/>
<path d="M79.81 89.09H77.24V96.35H79.81V89.09Z" fill="#FFFBFF"/>
<path d="M87.09 82.1899H84.52V96.3499H87.09V82.1899Z" fill="#FFFBFF"/>
<path d="M94.36 75.46H91.79V96.35H94.36V75.46Z" fill="white"/>
<path d="M343.61 188.85C344.19 188.85 344.66 188.38 344.66 187.8C344.66 187.22 344.19 186.75 343.61 186.75C343.03 186.75 342.56 187.22 342.56 187.8C342.56 188.38 343.03 188.85 343.61 188.85Z" fill="#34DCF9"/>
<path d="M376.724 123.105C375.42 122.716 374.216 122.051 373.194 121.155L374.324 118.765C375.244 119.562 376.31 120.173 377.464 120.565C378.727 121.022 380.06 121.256 381.404 121.255C382.797 121.35 384.188 121.034 385.404 120.345C385.809 120.091 386.143 119.737 386.373 119.316C386.602 118.896 386.719 118.424 386.714 117.945C386.726 117.613 386.669 117.281 386.545 116.973C386.421 116.664 386.233 116.386 385.994 116.155C385.488 115.676 384.884 115.314 384.224 115.095C383.514 114.845 382.524 114.575 381.224 114.265C379.898 113.969 378.595 113.581 377.324 113.105C376.345 112.722 375.473 112.108 374.784 111.315C374.038 110.397 373.66 109.235 373.724 108.055C373.709 106.955 374.022 105.876 374.624 104.955C375.305 103.972 376.257 103.208 377.364 102.755C378.809 102.162 380.362 101.879 381.924 101.925C383.186 101.927 384.443 102.092 385.664 102.415C386.79 102.699 387.859 103.176 388.824 103.825L387.824 106.275C386.929 105.709 385.96 105.271 384.944 104.975C383.97 104.685 382.959 104.537 381.944 104.535C380.578 104.439 379.216 104.767 378.044 105.475C377.64 105.745 377.31 106.111 377.083 106.541C376.856 106.97 376.739 107.449 376.744 107.935C376.731 108.268 376.789 108.6 376.915 108.909C377.041 109.217 377.231 109.496 377.474 109.725C378.007 110.199 378.629 110.563 379.304 110.795C380.024 111.045 381.014 111.315 382.254 111.605C383.574 111.908 384.873 112.296 386.144 112.765C387.091 113.159 387.933 113.768 388.604 114.545C389.323 115.454 389.679 116.598 389.604 117.755C389.615 118.849 389.298 119.922 388.694 120.835C388.001 121.83 387.03 122.598 385.904 123.045C384.444 123.623 382.883 123.899 381.314 123.855C379.754 123.849 378.204 123.596 376.724 123.105Z" fill="#FFFBFF"/>
<path d="M382.754 100.255H380.254V125.555H382.754V100.255Z" fill="#FFFBFF"/>
<defs>
<filter id="filter0_d_13_208" x="0.134888" y="0.0588379" width="435.857" height="486.382" filterUnits="userSpaceOnUse" color-interpolation-filters="sRGB">
<feFlood flood-opacity="0" result="BackgroundImageFix"/>
<feColorMatrix in="SourceAlpha" type="matrix" values="0 0 0 0 0 0 0 0 0 0 0 0 0 0 0 0 0 0 127 0" result="hardAlpha"/>
<feOffset/>
<feGaussianBlur stdDeviation="27.5"/>
<feComposite in2="hardAlpha" operator="out"/>
<feColorMatrix type="matrix" values="0 0 0 0 0.203922 0 0 0 0 0.862745 0 0 0 0 0.976471 0 0 0 0.15 0"/>
<feBlend mode="normal" in2="BackgroundImageFix" result="effect1_dropShadow_13_208"/>
<feBlend mode="normal" in="SourceGraphic" in2="effect1_dropShadow_13_208" result="shape"/>
</filter>
<linearGradient id="paint0_linear_13_208" x1="54.5809" y1="77.1523" x2="439.974" y2="158.397" gradientUnits="userSpaceOnUse">
<stop stop-color="#9747FF"/>
<stop offset="1" stop-color="#0865FB"/>
</linearGradient>
<linearGradient id="paint1_linear_13_208" x1="43.2088" y1="88.53" x2="428.597" y2="169.773" gradientUnits="userSpaceOnUse">
<stop stop-color="#9747FF"/>
<stop offset="1" stop-color="#0865FB"/>
</linearGradient>
<linearGradient id="paint2_linear_13_208" x1="100.426" y1="239.506" x2="110.557" y2="241.271" gradientUnits="userSpaceOnUse">
<stop stop-color="#12A09E"/>
<stop offset="1" stop-color="#A81FE9"/>
</linearGradient>
<linearGradient id="paint3_linear_13_208" x1="48.3171" y1="137.375" x2="58.3769" y2="139.128" gradientUnits="userSpaceOnUse">
<stop stop-color="#12A09E"/>
<stop offset="1" stop-color="#A81FE9"/>
</linearGradient>
<linearGradient id="paint4_linear_13_208" x1="377.745" y1="336.071" x2="382.829" y2="336.956" gradientUnits="userSpaceOnUse">
<stop stop-color="#12A09E"/>
<stop offset="1" stop-color="#A81FE9"/>
</linearGradient>
<linearGradient id="paint5_linear_13_208" x1="377.199" y1="382.766" x2="385.678" y2="384.243" gradientUnits="userSpaceOnUse">
<stop stop-color="#12A09E"/>
<stop offset="1" stop-color="#A81FE9"/>
</linearGradient>
<linearGradient id="paint6_linear_13_208" x1="318.53" y1="414.445" x2="323.167" y2="401.038" gradientUnits="userSpaceOnUse">
<stop stop-color="#12A09E"/>
<stop offset="1" stop-color="#A81FE9"/>
</linearGradient>
</defs>
</svg>
