<?xml version="1.0" encoding="UTF-8" standalone="no"?>
<svg
   xmlns:dc="http://purl.org/dc/elements/1.1/"
   xmlns:cc="http://creativecommons.org/ns#"
   xmlns:rdf="http://www.w3.org/1999/02/22-rdf-syntax-ns#"
   xmlns:svg="http://www.w3.org/2000/svg"
   xmlns="http://www.w3.org/2000/svg"
   xmlns:xlink="http://www.w3.org/1999/xlink"
   xmlns:sodipodi="http://sodipodi.sourceforge.net/DTD/sodipodi-0.dtd"
   xmlns:inkscape="http://www.inkscape.org/namespaces/inkscape"
   width="1200pt"
   height="1200pt"
   version="1.1"
   viewBox="0 0 1200 1200"
   id="svg4"
   sodipodi:docname="noun-transaction-3945434-00CDCD.svg"
   inkscape:version="0.92.4 (5da689c313, 2019-01-14)">
  <metadata
     id="metadata10">
    <rdf:RDF>
      <cc:Work
         rdf:about="">
        <dc:format>image/svg+xml</dc:format>
        <dc:type
           rdf:resource="http://purl.org/dc/dcmitype/StillImage" />
      </cc:Work>
    </rdf:RDF>
  </metadata>
  <defs
     id="defs8">
    <linearGradient
       inkscape:collect="always"
       id="linearGradient821">
      <stop
         style="stop-color:#12a09f;stop-opacity:0.94117647"
         offset="0"
         id="stop817" />
      <stop
         style="stop-color:#a81fe9;stop-opacity:1"
         offset="1"
         id="stop819" />
    </linearGradient>
    <linearGradient
       inkscape:collect="always"
       xlink:href="#linearGradient821"
       id="linearGradient823"
       x1="45.762711"
       y1="655.93219"
       x2="1150"
       y2="650"
       gradientUnits="userSpaceOnUse" />
  </defs>
  <sodipodi:namedview
     pagecolor="#ffffff"
     bordercolor="#666666"
     borderopacity="1"
     objecttolerance="10"
     gridtolerance="10"
     guidetolerance="10"
     inkscape:pageopacity="0"
     inkscape:pageshadow="2"
     inkscape:window-width="1920"
     inkscape:window-height="974"
     id="namedview6"
     showgrid="false"
     inkscape:zoom="0.1475"
     inkscape:cx="228.28828"
     inkscape:cy="800"
     inkscape:window-x="-11"
     inkscape:window-y="-11"
     inkscape:window-maximized="1"
     inkscape:current-layer="svg4" />
  <path
     d="m607.5 542.5c-10-10-10-25 0-35l57.5-57.5h-190c-15 0-25-10-25-25s10-25 25-25h190l-57.5-57.5c-10-10-10-25 0-35s25-10 35 0l100 100c10 10 10 25 0 35l-100 100c-10 10-25 10-35 0zm-50 140-100 100c-10 10-10 25 0 35l100 100c10 10 25 10 35 0s10-25 0-35l-57.5-57.5h190c15 0 25-10 25-25s-10-25-25-25h-190l57.5-57.5c10-10 10-25 0-35s-25-10-35 0zm-457.5 17.5c27.5 0 50-22.5 50-50v-175c0-15 10-25 25-25s25 10 25 25v175c0 55-45 100-100 100v300c0 27.5 22.5 50 50 50s50-22.5 50-50v-275c0-15 10-25 25-25s25 10 25 25v275c0 12.5-2.5 25-7.5 37.5 10 7.5 20 12.5 32.5 12.5 27.5 0 47.5-22.5 50-47.5v-320c17.5-25 25-52.5 25-82.5v-175c0-62.5-40-117.5-95-140 35-20 57.5-55 57.5-97.5 0-62.5-50-112.5-112.5-112.5s-112.5 50-112.5 112.5c0 42.5 22.5 77.5 57.5 97.5-55 22.5-95 77.5-95 140v175c0 27.5 22.5 50 50 50zm1050-50v-175c0-62.5-40-117.5-95-140 35-20 57.5-55 57.5-97.5 0-62.5-50-112.5-112.5-112.5s-112.5 50-112.5 112.5c0 42.5 22.5 77.5 57.5 97.5-55 22.5-95 75-95 140v175c0 30 7.5 57.5 25 82.5v320c0 27.5 22.5 47.5 50 47.5 12.5 0 22.5-5 32.5-12.5-5-12.5-7.5-25-7.5-37.5v-275c0-15 10-25 25-25s25 10 25 25v275c0 27.5 22.5 50 50 50s50-22.5 50-50v-300c-55 0-100-45-100-100v-175c0-15 10-25 25-25s25 10 25 25v175c0 27.5 22.5 50 50 50s50-22.5 50-50z"
     fill="#00cdcd"
     id="path2"
     style="fill-opacity:1;fill:url(#linearGradient823)" />
</svg>
