<?xml version="1.0" encoding="UTF-8" standalone="no"?>
<svg
   xmlns:dc="http://purl.org/dc/elements/1.1/"
   xmlns:cc="http://creativecommons.org/ns#"
   xmlns:rdf="http://www.w3.org/1999/02/22-rdf-syntax-ns#"
   xmlns:svg="http://www.w3.org/2000/svg"
   xmlns="http://www.w3.org/2000/svg"
   xmlns:xlink="http://www.w3.org/1999/xlink"
   xmlns:sodipodi="http://sodipodi.sourceforge.net/DTD/sodipodi-0.dtd"
   xmlns:inkscape="http://www.inkscape.org/namespaces/inkscape"
   width="1200pt"
   height="1200pt"
   version="1.1"
   viewBox="0 0 1200 1200"
   id="svg14"
   sodipodi:docname="noun-wallet-5478804-00CDCD.svg"
   inkscape:version="0.92.4 (5da689c313, 2019-01-14)">
  <metadata
     id="metadata20">
    <rdf:RDF>
      <cc:Work
         rdf:about="">
        <dc:format>image/svg+xml</dc:format>
        <dc:type
           rdf:resource="http://purl.org/dc/dcmitype/StillImage" />
      </cc:Work>
    </rdf:RDF>
  </metadata>
  <defs
     id="defs18">
    <linearGradient
       inkscape:collect="always"
       id="linearGradient831">
      <stop
         style="stop-color:#12a09f;stop-opacity:0.94117647"
         offset="0"
         id="stop827" />
      <stop
         style="stop-color:#a81fef;stop-opacity:0.94117647"
         offset="1"
         id="stop829" />
    </linearGradient>
    <linearGradient
       inkscape:collect="always"
       xlink:href="#linearGradient831"
       id="linearGradient833"
       x1="218.64407"
       y1="620.33899"
       x2="986.44067"
       y2="635.5932"
       gradientUnits="userSpaceOnUse" />
  </defs>
  <sodipodi:namedview
     pagecolor="#ffffff"
     bordercolor="#666666"
     borderopacity="1"
     objecttolerance="10"
     gridtolerance="10"
     guidetolerance="10"
     inkscape:pageopacity="0"
     inkscape:pageshadow="2"
     inkscape:window-width="1920"
     inkscape:window-height="974"
     id="namedview16"
     showgrid="false"
     inkscape:zoom="0.1475"
     inkscape:cx="-128.81356"
     inkscape:cy="800"
     inkscape:window-x="-11"
     inkscape:window-y="-11"
     inkscape:window-maximized="1"
     inkscape:current-layer="svg14" />
  <g
     fill="#00cdcd"
     id="g12"
     style="fill-opacity:1;fill:url(#linearGradient833)">
    <path
       d="m929.49 349.77c-10.883-16.68-29.68-27.742-51.027-27.742h-35.773l14.316 27.742z"
       id="path2"
       style="fill-opacity:1;fill:url(#linearGradient833)" />
    <path
       d="m557.2 644.73c0-80.504 65.492-146 146.01-146h236.2l-0.003906-115.76c0-1.7617-0.12109-3.5078-0.26172-5.2422-0.54297 0.066407-1.0781 0.16797-1.6406 0.16797l-628.1 0.003907h-0.027344-0.027344-21.066c-7.7734 0-14.062-6.2891-14.062-14.062 0-7.7734 6.2891-14.062 14.062-14.062h18.938l88.594-27.742h-121.15c-33.602 0-60.938 27.336-60.938 60.938v523.52c0 33.602 27.336 60.938 60.938 60.938h603.8c33.602 0 60.938-27.336 60.938-60.938v-115.76h-236.2c-80.512 0-146-65.496-146-146z"
       id="path4"
       style="fill-opacity:1;fill:url(#linearGradient833)" />
    <path
       d="m729.76 644.73c0 10.777-8.7344 19.512-19.508 19.512s-19.508-8.7344-19.508-19.512c0-10.773 8.7344-19.508 19.508-19.508s19.508 8.7344 19.508 19.508"
       id="path6"
       style="fill-opacity:1;fill:url(#linearGradient833)" />
    <path
       d="m766.36 235.47-365.01 114.3h424z"
       id="path8"
       style="fill-opacity:1;fill:url(#linearGradient833)" />
    <path
       d="m703.2 526.86c-65.008 0-117.88 52.875-117.88 117.87 0 64.996 52.883 117.86 117.88 117.86h283.08v-235.73zm7.0508 165.51c-26.258 0-47.625-21.367-47.625-47.625 0-26.27 21.367-47.633 47.625-47.633 26.27 0 47.645 21.367 47.645 47.633 0 26.25-21.375 47.625-47.645 47.625z"
       id="path10"
       style="fill-opacity:1;fill:url(#linearGradient833)" />
  </g>
</svg>
