<?xml version="1.0" encoding="UTF-8" standalone="no"?>
<svg
   xmlns:dc="http://purl.org/dc/elements/1.1/"
   xmlns:cc="http://creativecommons.org/ns#"
   xmlns:rdf="http://www.w3.org/1999/02/22-rdf-syntax-ns#"
   xmlns:svg="http://www.w3.org/2000/svg"
   xmlns="http://www.w3.org/2000/svg"
   xmlns:xlink="http://www.w3.org/1999/xlink"
   xmlns:sodipodi="http://sodipodi.sourceforge.net/DTD/sodipodi-0.dtd"
   xmlns:inkscape="http://www.inkscape.org/namespaces/inkscape"
   width="1200pt"
   height="1200pt"
   version="1.1"
   viewBox="0 0 1200 1200"
   id="svg8"
   sodipodi:docname="noun-speech-bubbles-72712.svg"
   inkscape:version="0.92.4 (5da689c313, 2019-01-14)">
  <metadata
     id="metadata14">
    <rdf:RDF>
      <cc:Work
         rdf:about="">
        <dc:format>image/svg+xml</dc:format>
        <dc:type
           rdf:resource="http://purl.org/dc/dcmitype/StillImage" />
      </cc:Work>
    </rdf:RDF>
  </metadata>
  <defs
     id="defs12">
    <linearGradient
       inkscape:collect="always"
       id="linearGradient825">
      <stop
         style="stop-color:#12a09e;stop-opacity:1"
         offset="0"
         id="stop821" />
      <stop
         style="stop-color:#a81fe9;stop-opacity:1"
         offset="1"
         id="stop823" />
    </linearGradient>
    <linearGradient
       inkscape:collect="always"
       xlink:href="#linearGradient825"
       id="linearGradient827"
       x1="91.525421"
       y1="361.01694"
       x2="1179.661"
       y2="477.96609"
       gradientUnits="userSpaceOnUse" />
  </defs>
  <sodipodi:namedview
     pagecolor="#ffffff"
     bordercolor="#666666"
     borderopacity="1"
     objecttolerance="10"
     gridtolerance="10"
     guidetolerance="10"
     inkscape:pageopacity="0"
     inkscape:pageshadow="2"
     inkscape:window-width="1920"
     inkscape:window-height="974"
     id="namedview10"
     showgrid="false"
     inkscape:zoom="0.1475"
     inkscape:cx="-128.81356"
     inkscape:cy="800"
     inkscape:window-x="-11"
     inkscape:window-y="-11"
     inkscape:window-maximized="1"
     inkscape:current-layer="svg8" />
  <g
     id="g6"
     style="fill-opacity:1;fill:url(#linearGradient827)">
    <path
       d="m159.1 927.35c-10.102 0-19.199-6.1484-23.102-15.551-3.8984-9.2891-1.75-20 5.3984-27.25 18.949-18.949 52.648-64.551 76.449-114.65-119.65-54.453-192.85-148.34-192.85-249.4 0-164.15 190.65-297.75 425-297.75 234.4 0 425 133.6 425 297.75 0 164.19-190.65 297.8-425 297.8-14 0-27.75-0.69922-41.352-1.6484-69.348 73.398-153.3 110.7-249.55 110.7z"
       id="path2"
       style="fill-opacity:1;fill:url(#linearGradient827)" />
    <path
       d="m1175 599.65c0-137.45-143.55-251.5-330.85-272.95 50.988 55.402 80.852 122.1 80.852 193.8 0 151-132.3 279.4-316.41 327.35 65.363 21.949 138.5 32.301 209.4 27.25 64.352 67.75 142.11 102.15 231.25 102.15 10.164 0 19.262-6.0508 23.164-15.449 3.8984-9.3984 1.75-20-5.4141-27.25-16.648-16.699-47.539-58.5-69.387-103.59 109.99-50.766 177.4-137.71 177.4-231.32z"
       id="path4"
       style="fill-opacity:1;fill:url(#linearGradient827)" />
  </g>
</svg>
