<svg width="27" height="28" viewBox="0 0 27 28" fill="none" xmlns="http://www.w3.org/2000/svg">
<path d="M10.5735 13.0534C10.3225 12.8023 9.98194 12.6613 9.62687 12.6613C9.27181 12.6613 8.93128 12.8023 8.68021 13.0534C8.42914 13.3045 8.28809 13.645 8.28809 14.0001C8.28809 14.3551 8.42914 14.6957 8.68021 14.9467L12.6802 18.9467C12.8048 19.0703 12.9525 19.1681 13.115 19.2344C13.2775 19.3008 13.4514 19.3344 13.6269 19.3334C13.8094 19.3276 13.9888 19.2844 14.1539 19.2064C14.3191 19.1284 14.4664 19.0174 14.5869 18.8801L23.9202 8.21341C24.1357 7.94584 24.2396 7.60542 24.2103 7.26311C24.1809 6.92081 24.0206 6.60305 23.7626 6.37608C23.5047 6.14912 23.1692 6.03047 22.8259 6.04487C22.4826 6.05928 22.1582 6.20563 21.9202 6.45341L13.6269 16.0534L10.5735 13.0534Z" fill="url(#paint0_linear_63_766)"/>
<path d="M25.6269 12.6667C25.2732 12.6667 24.9341 12.8072 24.6841 13.0573C24.434 13.3073 24.2935 13.6465 24.2935 14.0001C24.2935 16.8291 23.1697 19.5422 21.1693 21.5426C19.169 23.5429 16.4558 24.6667 13.6269 24.6667C11.5203 24.6658 9.46122 24.0411 7.70922 22.8715C5.95722 21.7018 4.59077 20.0396 3.78217 18.0944C2.97358 16.1493 2.75906 14.0082 3.16565 11.9413C3.57224 9.87433 4.58175 7.97406 6.06687 6.48008C7.05447 5.47926 8.23177 4.68547 9.52988 4.14517C10.828 3.60486 12.2208 3.32889 13.6269 3.33341C14.4795 3.33875 15.3289 3.43711 16.1602 3.62675C16.3342 3.68055 16.5173 3.69816 16.6983 3.67848C16.8793 3.6588 17.0544 3.60225 17.2127 3.51232C17.3711 3.42239 17.5093 3.30098 17.6189 3.15558C17.7285 3.01018 17.8072 2.84387 17.85 2.6669C17.8929 2.48993 17.8991 2.30606 17.8682 2.12661C17.8373 1.94717 17.7699 1.77596 17.6703 1.62354C17.5707 1.47111 17.4409 1.34071 17.289 1.24036C17.137 1.14002 16.9662 1.07186 16.7869 1.04008C15.7511 0.796405 14.6909 0.671158 13.6269 0.666748C10.9927 0.680433 8.42151 1.47411 6.23793 2.94762C4.05434 4.42113 2.35616 6.50843 1.35769 8.94612C0.359223 11.3838 0.105211 14.0626 0.627713 16.6446C1.15021 19.2265 2.42581 21.5958 4.29353 23.4534C6.76912 25.9301 10.1251 27.3252 13.6269 27.3334C17.1631 27.3334 20.5545 25.9287 23.055 23.4282C25.5554 20.9277 26.9602 17.5363 26.9602 14.0001C26.9602 13.6465 26.8197 13.3073 26.5697 13.0573C26.3196 12.8072 25.9805 12.6667 25.6269 12.6667Z" fill="url(#paint1_linear_63_766)"/>
<defs>
<linearGradient id="paint0_linear_63_766" x1="9.9904" y1="7.85375" x2="24.1146" y2="10.8023" gradientUnits="userSpaceOnUse">
<stop stop-color="#12A09E"/>
<stop offset="1" stop-color="#A81FE9"/>
</linearGradient>
<linearGradient id="paint1_linear_63_766" x1="3.20558" y1="4.29872" x2="27.099" y2="8.4499" gradientUnits="userSpaceOnUse">
<stop stop-color="#12A09E"/>
<stop offset="1" stop-color="#A81FE9"/>
</linearGradient>
</defs>
</svg>
