<svg width="220" height="31" viewBox="0 0 220 31" fill="none" xmlns="http://www.w3.org/2000/svg">
<g clip-path="url(#clip0_67_3992)">
<path d="M46.1251 21.6397C49.0501 21.6397 50.3965 19.9528 51.0929 17.8945L48.8953 17.1516C48.4465 18.5445 47.812 19.6278 46.1096 19.6278C43.9584 19.6278 43.0298 17.8635 43.0298 15.0933V12.5397C43.0298 9.76947 43.9584 8.00518 46.1096 8.00518C47.812 8.00518 48.4465 9.08851 48.8953 10.4814L51.0929 9.73851C50.3965 7.68018 49.0501 5.99328 46.1251 5.99328C42.287 5.99328 40.4453 8.80994 40.4453 13.8087C40.4453 18.823 42.287 21.6397 46.1251 21.6397ZM53.8322 21.3766H63.2262V19.473H59.1715V15.2945C59.1715 13.7314 60.1929 12.4468 62.112 12.4468H64.325V10.2028H62.9786C60.7036 10.2028 59.7286 11.6111 59.2953 13.1587H59.1715V10.2028H53.8322V12.1064H56.8036V19.473H53.8322V21.3766ZM73.1929 14.8766L71.8 18.7147H71.6762L70.2834 14.8766L68.5036 10.2028H66.0429L70.5465 21.2218L69.525 23.8064H66.8786V25.7099H68.7667C70.5465 25.7099 71.3512 24.9671 71.9238 23.5433L77.3405 10.2028H74.9572L73.1929 14.8766ZM79.9095 25.7099H82.2619V19.473H82.4012C83.0512 20.8195 84.1345 21.6397 85.775 21.6397C88.3905 21.6397 90.0929 19.6278 90.0929 15.7897C90.0929 11.9516 88.3905 9.9397 85.775 9.9397C84.1345 9.9397 83.0512 10.7599 82.4012 12.1064H82.2619V10.2028H79.9095V25.7099ZM84.8 19.7052C83.4381 19.7052 82.2619 19.0087 82.2619 17.6468V13.9171C82.2619 12.5552 83.4381 11.8587 84.8 11.8587C86.5798 11.8587 87.6012 13.0504 87.6012 14.8766V16.7028C87.6012 18.5135 86.5798 19.7052 84.8 19.7052ZM102.629 21.3766V19.473H97.8619V12.1064H102.629V10.2028H97.8619V6.25637H95.6488V9.04209C95.6488 9.90875 95.3238 10.2028 94.5036 10.2028H92.0583V12.1064H95.5095V18.5445C95.5095 20.2004 96.4071 21.3766 98.3571 21.3766H102.629ZM110.692 21.6397C113.988 21.6397 116 19.3647 116 15.7897C116 12.2147 113.988 9.9397 110.692 9.9397C107.395 9.9397 105.383 12.2147 105.383 15.7897C105.383 19.3647 107.395 21.6397 110.692 21.6397ZM110.692 19.7671C108.974 19.7671 107.86 18.7147 107.86 16.6254V14.9385C107.86 12.8647 108.974 11.7968 110.692 11.7968C112.41 11.7968 113.524 12.8647 113.524 14.9385V16.6254C113.524 18.7147 112.41 19.7671 110.692 19.7671ZM125.518 21.3766H128.629V6.25637H126.508V17.8945H126.307L121.865 6.25637H118.755V21.3766H120.875V9.73851H121.076L125.518 21.3766ZM136.692 21.6397C139.988 21.6397 142 19.3647 142 15.7897C142 12.2147 139.988 9.9397 136.692 9.9397C133.395 9.9397 131.383 12.2147 131.383 15.7897C131.383 19.3647 133.395 21.6397 136.692 21.6397ZM136.692 19.7671C134.974 19.7671 133.859 18.7147 133.859 16.6254V14.9385C133.859 12.8647 134.974 11.7968 136.692 11.7968C138.409 11.7968 139.524 12.8647 139.524 14.9385V16.6254C139.524 18.7147 138.409 19.7671 136.692 19.7671ZM152.121 21.3766H154.474V5.34328H152.121V12.1064H151.982C151.332 10.7599 150.249 9.9397 148.608 9.9397C145.993 9.9397 144.29 11.9516 144.29 15.7897C144.29 19.6278 145.993 21.6397 148.608 21.6397C150.249 21.6397 151.332 20.8195 151.982 19.473H152.121V21.3766ZM149.583 19.7052C147.804 19.7052 146.782 18.5135 146.782 16.7028V14.8766C146.782 13.0504 147.804 11.8587 149.583 11.8587C150.945 11.8587 152.121 12.5552 152.121 13.9171V17.6468C152.121 19.0087 150.945 19.7052 149.583 19.7052ZM162.924 21.6397C165.23 21.6397 166.793 20.6183 167.551 19.3183L166.065 18.0183C165.446 19.0552 164.409 19.7361 162.97 19.7361C161.051 19.7361 159.875 18.498 159.875 16.7337V16.3778H167.892V15.4802C167.892 12.1837 165.895 9.9397 162.753 9.9397C159.565 9.9397 157.492 12.2147 157.492 15.8052C157.492 19.3647 159.504 21.6397 162.924 21.6397ZM162.753 11.7349C164.409 11.7349 165.493 12.8802 165.493 14.6445V14.8611H159.875V14.7064C159.875 12.973 161.067 11.7349 162.753 11.7349ZM175.707 21.6397C178.771 21.6397 180.628 20.2778 180.628 18.0183C180.628 15.7278 178.678 15.1087 176.899 14.8611L175.134 14.5671C174.19 14.4433 173.417 14.1802 173.417 13.2361C173.417 12.2611 174.237 11.7349 175.784 11.7349C177.533 11.7349 178.555 12.4004 179.143 13.0814L180.458 11.6885C179.437 10.5897 177.951 9.9397 175.862 9.9397C172.999 9.9397 171.095 11.1468 171.095 13.4218C171.095 15.7278 173.076 16.3468 174.825 16.6099L176.605 16.8885C177.549 17.0278 178.307 17.2754 178.307 18.2349C178.307 19.3337 177.27 19.8445 175.753 19.8445C174.082 19.8445 172.89 19.2564 171.915 18.1885L170.476 19.4885C171.528 20.7885 173.308 21.6397 175.707 21.6397ZM188.692 21.5933C190.053 21.5933 190.58 20.9278 190.58 20.0921V19.5349C190.58 18.7147 190.053 18.0337 188.692 18.0337C187.33 18.0337 186.803 18.7147 186.803 19.5349V20.0921C186.803 20.9278 187.33 21.5933 188.692 21.5933ZM202.388 8.15994C203.549 8.15994 203.982 7.6028 203.982 6.87542V6.42661C203.982 5.71471 203.549 5.14209 202.357 5.14209C201.196 5.14209 200.763 5.71471 200.763 6.42661V6.87542C200.763 7.6028 201.196 8.15994 202.388 8.15994ZM197.374 21.3766H207.124V19.473H203.549V10.2028H197.374V12.1064H201.196V19.473H197.374V21.3766ZM214.692 21.6397C217.988 21.6397 220 19.3647 220 15.7897C220 12.2147 217.988 9.9397 214.692 9.9397C211.395 9.9397 209.383 12.2147 209.383 15.7897C209.383 19.3647 211.395 21.6397 214.692 21.6397ZM214.692 19.7671C212.974 19.7671 211.859 18.7147 211.859 16.6254V14.9385C211.859 12.8647 212.974 11.7968 214.692 11.7968C216.409 11.7968 217.524 12.8647 217.524 14.9385V16.6254C217.524 18.7147 216.409 19.7671 214.692 19.7671Z" fill="#D1A103"/>
<path d="M13.722 22.2363L7.8239 18.8315V12.0207L13.722 8.61545L19.6196 12.0207V18.8311L13.722 22.2363ZM8.87533 18.2241L13.7224 21.0223L18.5694 18.2241V12.6276L13.7224 9.82941L8.87533 12.6276V18.2241ZM13.8292 4.62294C13.2164 4.62228 12.629 4.37859 12.1956 3.94534C11.7623 3.51209 11.5185 2.92465 11.5177 2.31189C11.5184 1.69902 11.7621 1.11143 12.1955 0.67802C12.6288 0.244612 13.2163 0.000776133 13.8292 0C14.4421 0.000665473 15.0297 0.244466 15.4631 0.677898C15.8964 1.11133 16.1401 1.69898 16.1407 2.31189C16.1398 2.92462 15.896 3.51199 15.4627 3.94522C15.0294 4.37845 14.4419 4.62217 13.8292 4.62294ZM13.8292 0.420572C13.3278 0.421127 12.847 0.620568 12.4925 0.975139C12.1379 1.32971 11.9384 1.81045 11.9379 2.31189C11.9385 2.81326 12.138 3.29389 12.4926 3.64837C12.8472 4.00285 13.3278 4.20224 13.8292 4.20279C14.3305 4.20213 14.8111 4.00269 15.1655 3.64822C15.52 3.29376 15.7194 2.81318 15.7201 2.31189C15.7195 1.81052 15.5202 1.32985 15.1657 0.975287C14.8112 0.620728 14.3306 0.421238 13.8292 0.420572M2.41636 11.0878C2.01082 11.0872 1.61255 10.98 1.26153 10.7769C0.910509 10.5738 0.619075 10.282 0.416473 9.93066C0.21387 9.57935 0.107225 9.18094 0.107238 8.7754C0.107251 8.36985 0.213921 7.97145 0.416546 7.62015C0.620103 7.26893 0.912287 6.97731 1.26389 6.77442C1.61549 6.57153 2.01419 6.46449 2.42013 6.464C2.82353 6.464 3.22274 6.57123 3.57377 6.77398C4.10405 7.08111 4.49091 7.58598 4.64953 8.1779C4.80815 8.76982 4.72559 9.40048 4.41994 9.93162C4.21635 10.2828 3.92416 10.5744 3.57257 10.7773C3.22097 10.9802 2.82229 11.0872 2.41636 11.0878M2.42013 6.88457C1.74571 6.88457 1.11736 7.24733 0.780568 7.83044C0.655763 8.04528 0.574805 8.28275 0.542377 8.52909C0.509948 8.77543 0.526694 9.02575 0.591645 9.26558C0.655269 9.50576 0.765934 9.73093 0.917226 9.92802C1.06852 10.1251 1.25743 10.2902 1.473 10.4138C1.75984 10.5798 2.08535 10.6674 2.41678 10.6676C3.09078 10.6676 3.71955 10.3053 4.05634 9.72217C4.22175 9.43466 4.30873 9.10874 4.30856 8.77705C4.3084 8.44535 4.22111 8.11952 4.05542 7.83217C3.88973 7.54482 3.65146 7.30604 3.36446 7.13974C3.07747 6.97343 2.75182 6.88544 2.42013 6.88457M2.31331 24.2026C1.90733 24.2021 1.50859 24.095 1.15693 23.8921C0.805269 23.6892 0.512998 23.3976 0.309309 23.0464C0.106684 22.6951 1.28976e-05 22.2967 1.16952e-09 21.8912C-1.28953e-05 21.4857 0.106633 21.0872 0.309235 20.7359C0.511838 20.3846 0.803272 20.0928 1.15429 19.8897C1.50532 19.6866 1.90358 19.5794 2.30912 19.5788C2.71508 19.5792 3.11381 19.6862 3.46543 19.8891C3.81704 20.092 4.10921 20.3837 4.3127 20.735C4.62185 21.2695 4.70354 21.8924 4.54352 22.4889C4.3835 23.0854 4.00146 23.5835 3.46695 23.8926C3.11622 24.0953 2.71838 24.2022 2.31331 24.2026M2.30912 19.999C1.97746 19.9998 1.65184 20.0877 1.36487 20.254C1.0779 20.4203 0.83967 20.6591 0.674042 20.9464C0.508414 21.2338 0.421207 21.5596 0.421155 21.8912C0.421104 22.2229 0.50821 22.5488 0.673749 22.8362C0.840345 23.1235 1.07945 23.3621 1.36717 23.5281C1.65489 23.6941 1.98115 23.7817 2.31331 23.782C2.64461 23.7818 2.96998 23.6942 3.25667 23.5282C3.47218 23.4046 3.66105 23.2394 3.81233 23.0423C3.96362 22.8453 4.07432 22.6201 4.13802 22.38C4.20298 22.1402 4.21972 21.8898 4.18729 21.6435C4.15487 21.3971 4.07391 21.1597 3.9491 20.9448C3.78234 20.6575 3.54314 20.419 3.25537 20.253C2.9676 20.087 2.64133 19.9994 2.30912 19.999ZM13.6151 30.8517C12.3404 30.8517 11.3037 29.815 11.3037 28.5403C11.3037 27.2656 12.3404 26.2288 13.6151 26.2288C14.8898 26.2288 15.9266 27.2656 15.9266 28.5403C15.9266 29.815 14.8898 30.8517 13.6151 30.8517ZM13.6151 26.6494C13.1139 26.65 12.6333 26.8495 12.2788 27.2039C11.9243 27.5584 11.7249 28.039 11.7242 28.5403C11.7248 29.0416 11.9242 29.5222 12.2787 29.8767C12.6332 30.2312 13.1138 30.4306 13.6151 30.4312C14.1165 30.4307 14.5973 30.2314 14.9519 29.8769C15.3065 29.5224 15.5059 29.0417 15.5065 28.5403C15.5058 28.0389 15.3063 27.5583 14.9517 27.2038C14.5972 26.8493 14.1165 26.6499 13.6151 26.6494ZM25.0242 24.3877C24.619 24.3873 24.221 24.2804 23.8702 24.0778C23.3399 23.7706 22.953 23.2658 22.7944 22.6738C22.6358 22.0819 22.7183 21.4513 23.024 20.9201C23.2276 20.5689 23.5199 20.2772 23.8715 20.0743C24.2232 19.8715 24.622 19.7644 25.028 19.764C25.4314 19.764 25.8306 19.8712 26.1816 20.0739C26.7118 20.3812 27.0986 20.8861 27.2571 21.478C27.4157 22.0699 27.3331 22.7005 27.0274 23.2316C26.8239 23.5827 26.5317 23.8743 26.1802 24.0772C25.8287 24.2801 25.4301 24.3872 25.0242 24.3877M25.0284 20.1845C24.6962 20.1849 24.37 20.2725 24.0823 20.4385C23.7946 20.6044 23.5554 20.843 23.3888 21.1304C23.2236 21.4178 23.1367 21.7436 23.1369 22.0752C23.137 22.4068 23.2243 22.7325 23.3899 23.0197C23.5554 23.307 23.7935 23.5457 24.0804 23.7121C24.3672 23.8784 24.6927 23.9665 25.0242 23.9676C25.3564 23.9672 25.6826 23.8797 25.9704 23.7137C26.2581 23.5477 26.4972 23.3091 26.6638 23.0217C26.8291 22.7343 26.9159 22.4085 26.9158 22.0769C26.9156 21.7454 26.8283 21.4197 26.6628 21.1324C26.4972 20.8451 26.2591 20.6064 25.9723 20.44C25.6854 20.2737 25.36 20.1856 25.0284 20.1845ZM25.1352 11.2733C24.7292 11.2728 24.3305 11.1657 23.9788 10.9629C23.6272 10.76 23.3349 10.4684 23.1312 10.1172C22.9286 9.7659 22.8219 9.36749 22.8219 8.96195C22.8219 8.55641 22.9285 8.15799 23.1311 7.80668C23.3338 7.45537 23.6252 7.16353 23.9762 6.96043C24.3272 6.75733 24.7255 6.65013 25.131 6.64957C25.9554 6.64957 26.7228 7.09234 27.1346 7.80572C27.2872 8.06826 27.3862 8.35847 27.4258 8.65955C27.4655 8.96062 27.4449 9.26656 27.3654 9.55964C27.2876 9.85318 27.1523 10.1284 26.9675 10.3693C26.7826 10.6103 26.5518 10.8122 26.2884 10.9634C25.9374 11.1661 25.5386 11.2733 25.1352 11.2733M25.131 7.06972C24.7994 7.07053 24.4738 7.15848 24.1868 7.32476C23.8998 7.49104 23.6616 7.72982 23.496 8.01716C23.3303 8.30451 23.2431 8.63033 23.2431 8.962C23.243 9.29366 23.3301 9.61951 23.4957 9.90691C23.6623 10.1943 23.9014 10.4329 24.1891 10.5989C24.4768 10.7649 24.8031 10.8524 25.1352 10.8528H25.1356C25.4653 10.8528 25.7916 10.7652 26.079 10.5989C26.5163 10.3463 26.8292 9.93874 26.9599 9.45073C27.0906 8.96271 27.0236 8.45334 26.7714 8.01559C26.6046 7.72827 26.3653 7.48973 26.0775 7.32376C25.7896 7.15779 25.4633 7.0702 25.131 7.06972" fill="#D1A103"/>
<path d="M8.25607 12.5119L3.90918 10.3437L4.09685 9.96752L8.44374 12.1361L8.25607 12.5119ZM13.512 4.41211H13.9325V9.22188H13.512V4.41211ZM19.1951 12.5073L18.9932 12.1387L23.2132 9.82803L23.4147 10.1967L19.1951 12.5073ZM23.098 21.2044L18.9861 18.707L19.2044 18.3475L23.3167 20.845L23.098 21.2044ZM13.512 21.6288H13.9325V26.6442H13.512V21.6288ZM4.23173 21.023L4.02982 20.6544L8.24979 18.3438L8.4517 18.7124L4.23173 21.023Z" fill="#D1A103"/>
</g>
<defs>
<clipPath id="clip0_67_3992">
<rect width="220" height="30.8517" fill="white"/>
</clipPath>
</defs>
</svg>
