<?xml version="1.0" encoding="UTF-8" standalone="no"?>
<svg
   xmlns:dc="http://purl.org/dc/elements/1.1/"
   xmlns:cc="http://creativecommons.org/ns#"
   xmlns:rdf="http://www.w3.org/1999/02/22-rdf-syntax-ns#"
   xmlns:svg="http://www.w3.org/2000/svg"
   xmlns="http://www.w3.org/2000/svg"
   xmlns:xlink="http://www.w3.org/1999/xlink"
   xmlns:sodipodi="http://sodipodi.sourceforge.net/DTD/sodipodi-0.dtd"
   xmlns:inkscape="http://www.inkscape.org/namespaces/inkscape"
   width="1200pt"
   height="1200pt"
   version="1.1"
   viewBox="0 0 1200 1200"
   id="svg4"
   sodipodi:docname="noun-email-4883839.svg"
   inkscape:version="0.92.4 (5da689c313, 2019-01-14)">
  <metadata
     id="metadata10">
    <rdf:RDF>
      <cc:Work
         rdf:about="">
        <dc:format>image/svg+xml</dc:format>
        <dc:type
           rdf:resource="http://purl.org/dc/dcmitype/StillImage" />
      </cc:Work>
    </rdf:RDF>
  </metadata>
  <defs
     id="defs8">
    <linearGradient
       inkscape:collect="always"
       id="linearGradient821">
      <stop
         style="stop-color:#12a09e;stop-opacity:1"
         offset="0"
         id="stop817" />
      <stop
         style="stop-color:#a81fe9;stop-opacity:1"
         offset="1"
         id="stop819" />
    </linearGradient>
    <linearGradient
       inkscape:collect="always"
       xlink:href="#linearGradient821"
       id="linearGradient823"
       x1="132.20338"
       y1="361.01694"
       x2="1144.0677"
       y2="488.13559"
       gradientUnits="userSpaceOnUse" />
  </defs>
  <sodipodi:namedview
     pagecolor="#ffffff"
     bordercolor="#666666"
     borderopacity="1"
     objecttolerance="10"
     gridtolerance="10"
     guidetolerance="10"
     inkscape:pageopacity="0"
     inkscape:pageshadow="2"
     inkscape:window-width="1920"
     inkscape:window-height="974"
     id="namedview6"
     showgrid="false"
     inkscape:zoom="0.1475"
     inkscape:cx="-128.81356"
     inkscape:cy="800"
     inkscape:window-x="-11"
     inkscape:window-y="-11"
     inkscape:window-maximized="1"
     inkscape:current-layer="svg4" />
  <path
     d="m224.96 187.5h750.08c51.762 0 95.949 18.301 132.55 54.906 18.203 18.207 31.887 38.289 41.035 60.246-0.66406 0.26953-1.3281 0.55859-1.9883 0.86719l-546.64 255.1-546.64-255.1c-0.66016-0.30859-1.3242-0.59375-1.9922-0.86328 9.1523-21.957 22.832-42.043 41.039-60.25 36.605-36.605 80.789-54.906 132.55-54.906zm390.9 446.48 546.64-255.1v446.15c0 51.762-18.305 95.949-54.906 132.55-36.605 36.605-80.793 54.906-132.55 54.906h-750.08c-51.766 0-95.949-18.301-132.55-54.906s-54.906-80.793-54.906-132.55v-446.16l546.64 255.1c5.0273 2.3438 10.312 3.5156 15.859 3.5156s10.832-1.1719 15.859-3.5156z"
     fill-rule="evenodd"
     id="path2"
     style="fill-opacity:1;fill:url(#linearGradient823)" />
</svg>
