<svg width="32" height="43" viewBox="0 0 32 43" fill="none" xmlns="http://www.w3.org/2000/svg">
<path d="M4 42.5C2.9 42.5 1.95867 42.1087 1.176 41.326C0.392 40.542 0 39.6 0 38.5V18.5C0 17.4 0.392 16.458 1.176 15.674C1.95867 14.8913 2.9 14.5 4 14.5H6V10.5C6 7.73333 6.97533 5.37467 8.926 3.424C10.8753 1.47467 13.2333 0.5 16 0.5C18.7667 0.5 21.1253 1.47467 23.076 3.424C25.0253 5.37467 26 7.73333 26 10.5V14.5H28C29.1 14.5 30.042 14.8913 30.826 15.674C31.6087 16.458 32 17.4 32 18.5V38.5C32 39.6 31.6087 40.542 30.826 41.326C30.042 42.1087 29.1 42.5 28 42.5H4ZM16 32.5C17.1 32.5 18.042 32.1087 18.826 31.326C19.6087 30.542 20 29.6 20 28.5C20 27.4 19.6087 26.458 18.826 25.674C18.042 24.8913 17.1 24.5 16 24.5C14.9 24.5 13.9587 24.8913 13.176 25.674C12.392 26.458 12 27.4 12 28.5C12 29.6 12.392 30.542 13.176 31.326C13.9587 32.1087 14.9 32.5 16 32.5ZM10 14.5H22V10.5C22 8.83333 21.4167 7.41667 20.25 6.25C19.0833 5.08333 17.6667 4.5 16 4.5C14.3333 4.5 12.9167 5.08333 11.75 6.25C10.5833 7.41667 10 8.83333 10 10.5V14.5Z" fill="url(#paint0_linear_108_30)"/>
<defs>
<linearGradient id="paint0_linear_108_30" x1="3.42023" y1="6.22035" x2="32.5221" y2="10.0826" gradientUnits="userSpaceOnUse">
<stop stop-color="#12A09E"/>
<stop offset="1" stop-color="#A81FE9"/>
</linearGradient>
</defs>
</svg>
