<svg width="40" height="41" viewBox="0 0 40 41" fill="none" xmlns="http://www.w3.org/2000/svg">
<path d="M20 40.5C8.954 40.5 0 31.546 0 20.5C0 9.454 8.954 0.5 20 0.5C31.046 0.5 40 9.454 40 20.5C40 31.546 31.046 40.5 20 40.5ZM32.71 28.404V28.194C32.71 26.35 32.71 25.508 31.406 24.762C30.9869 24.5244 30.5564 24.3075 30.116 24.112C29.382 23.778 28.896 23.56 28.24 22.6C28.1617 22.486 28.0843 22.3713 28.008 22.256C27.318 21.206 26.82 20.45 24.924 20.75C21.194 21.342 20.918 21.998 20.754 23.106L20.728 23.288C20.486 24.908 20.442 25.452 21.118 26.162C23.648 28.816 25.164 30.73 25.624 31.85C25.848 32.396 26.424 34.05 26.028 35.686C28.4556 34.719 30.6165 33.185 32.33 31.212C32.55 30.464 32.71 29.532 32.71 28.404ZM20 4.166C15.366 4.166 11.18 6.098 8.208 9.198C8.562 9.444 8.87 9.79 9.082 10.266C9.49 11.18 9.49 12.122 9.49 12.956C9.49 13.612 9.49 14.236 9.7 14.686C9.988 15.302 11.232 15.566 12.33 15.794C12.724 15.878 13.128 15.962 13.496 16.064C14.508 16.344 15.292 17.254 15.918 17.984C16.178 18.286 16.564 18.732 16.758 18.844C16.858 18.772 17.18 18.422 17.338 17.848C17.462 17.408 17.426 17.02 17.248 16.808C16.128 15.488 16.19 12.948 16.536 12.01C17.08 10.532 18.78 10.642 20.024 10.722C20.488 10.752 20.924 10.782 21.252 10.74C22.496 10.584 22.88 8.69 23.15 8.32C23.734 7.52 25.522 6.314 26.63 5.57C24.543 4.64199 22.284 4.16362 20 4.166Z" fill="url(#paint0_linear_108_118)"/>
<defs>
<linearGradient id="paint0_linear_108_118" x1="4.27528" y1="5.94796" x2="40.2032" y2="12.2062" gradientUnits="userSpaceOnUse">
<stop stop-color="#12A09E"/>
<stop offset="1" stop-color="#A81FE9"/>
</linearGradient>
</defs>
</svg>
