<?xml version="1.0" encoding="UTF-8" standalone="no"?>
<svg
   xmlns:dc="http://purl.org/dc/elements/1.1/"
   xmlns:cc="http://creativecommons.org/ns#"
   xmlns:rdf="http://www.w3.org/1999/02/22-rdf-syntax-ns#"
   xmlns:svg="http://www.w3.org/2000/svg"
   xmlns="http://www.w3.org/2000/svg"
   xmlns:sodipodi="http://sodipodi.sourceforge.net/DTD/sodipodi-0.dtd"
   xmlns:inkscape="http://www.inkscape.org/namespaces/inkscape"
   width="288"
   height="78"
   viewBox="0 0 288 78"
   fill="none"
   version="1.1"
   id="svg90"
   sodipodi:docname="footor-logo.svg"
   inkscape:version="0.92.4 (5da689c313, 2019-01-14)">
  <metadata
     id="metadata96">
    <rdf:RDF>
      <cc:Work
         rdf:about="">
        <dc:format>image/svg+xml</dc:format>
        <dc:type
           rdf:resource="http://purl.org/dc/dcmitype/StillImage" />
      </cc:Work>
    </rdf:RDF>
  </metadata>
  <defs
     id="defs94" />
  <sodipodi:namedview
     pagecolor="#ffffff"
     bordercolor="#666666"
     borderopacity="1"
     objecttolerance="10"
     gridtolerance="10"
     guidetolerance="10"
     inkscape:pageopacity="0"
     inkscape:pageshadow="2"
     inkscape:window-width="1920"
     inkscape:window-height="974"
     id="namedview92"
     showgrid="false"
     inkscape:zoom="1.7708333"
     inkscape:cx="198.22995"
     inkscape:cy="38.999998"
     inkscape:window-x="-11"
     inkscape:window-y="-11"
     inkscape:window-maximized="1"
     inkscape:current-layer="svg90" />
  <path
     d="M37.609 0C38.1135 0.0315309 38.6496 -0.0630619 39.0595 0.283778C40.4784 1.19817 40.6676 3.4684 39.5009 4.63505C38.3973 5.7071 36.4739 5.58097 35.4649 4.47739C34.8028 3.81524 34.8974 2.83778 34.9604 1.98645C35.0235 1.16664 35.6856 0.504495 36.3793 0.126124C36.7577 -0.0315309 37.1991 0.0315309 37.609 0Z"
     fill="#FFFBFF"
     id="path2"
     style="fill:#ffffff;fill-opacity:1" />
  <path
     d="M29.6629 2.80625C30.3566 2.58553 31.0818 2.52247 31.807 2.554C31.9331 3.02696 31.7439 3.59452 31.2079 3.62605C27.9918 4.09901 24.8386 5.04494 21.9063 6.46383C21.654 6.55843 21.3072 6.77914 21.0865 6.52689C20.7396 6.33771 20.7081 5.73862 21.1495 5.6125C23.8612 4.31973 26.699 3.34227 29.6629 2.80625Z"
     fill="#FFFBFF"
     id="path4"
     style="fill:#ffffff;fill-opacity:1" />
  <path
     d="M43.5049 2.90088C43.9463 2.93241 44.3878 2.93241 44.8292 3.027C47.7931 3.68915 50.6625 4.7612 53.3741 6.11703C53.6264 6.27469 53.8786 6.4954 54.0993 6.68459C53.8156 7.03143 53.4372 7.37827 52.9642 7.12602C50.6309 5.99091 48.203 4.98192 45.6806 4.31977C44.7977 4.09905 43.8518 4.03599 43.0635 3.49997C43.1896 3.34231 43.4103 3.027 43.5049 2.90088Z"
     fill="#FFFBFF"
     id="path6"
     style="fill:#ffffff;fill-opacity:1" />
  <path
     d="M15.3478 6.81039C16.0731 6.68427 16.9244 6.65274 17.5865 7.06264C18.4063 7.47254 18.8478 8.35541 19.037 9.20674C19.1631 10.468 18.2802 11.6977 17.1451 12.1706C16.483 12.2337 15.8208 12.2652 15.1902 12.1076C14.4019 11.6346 13.519 10.9094 13.5821 9.90042C13.5821 9.30133 13.4875 8.60765 13.8343 8.07163C14.1497 7.50407 14.7172 7.06264 15.3478 6.81039Z"
     fill="#FFFBFF"
     id="path8"
     style="fill:#ffffff;fill-opacity:1" />
  <path
     d="M58.4826 6.81053C60.0277 6.55828 61.7934 7.94564 61.6358 9.58525C61.7303 10.5312 61.1628 11.414 60.406 11.9501C59.8385 12.3915 59.0817 12.2339 58.4196 12.2654C57.4106 12.3284 56.6854 11.4456 56.2439 10.6573C56.0548 9.77444 55.9917 8.73392 56.6223 8.00871C57.0322 7.34656 57.7574 6.99972 58.4826 6.81053Z"
     fill="#FFFBFF"
     id="path10"
     style="fill:#ffffff;fill-opacity:1" />
  <path
     d="M30.6095 11.4774C31.65 9.99544 32.5959 8.48195 33.6049 7C34.1725 7.15765 34.6454 7.50449 35.0869 7.88287C34.0464 9.61707 32.8482 11.2251 31.7446 12.9278C31.4923 13.3062 31.3032 13.7161 31.114 14.126C31.4923 14.3152 31.9968 14.3782 32.2806 14.6935C32.3752 15.135 32.1545 15.6079 32.0599 16.0494C31.3347 16.0809 30.6095 15.8287 29.9158 15.5764C29.6005 16.1124 29.2536 16.6485 28.9068 17.1845C28.3392 16.9638 27.8663 16.5854 27.4564 16.144C27.7401 15.7656 27.9924 15.3557 28.15 14.8827C26.1005 14.0945 24.0195 13.3062 21.9384 12.581C21.1186 12.3918 21.6862 11.3828 21.7808 10.8468C22.8844 10.8468 23.7988 11.4459 24.8078 11.7612C26.2897 12.2657 27.7086 12.8963 29.1906 13.4008C29.7897 12.8963 30.1365 12.1395 30.6095 11.4774Z"
     fill="#FFFBFF"
     id="path12"
     style="fill:#ffffff;fill-opacity:1" />
  <path
     d="M41.0773 7.15765C41.4557 6.87387 41.7394 7.34684 41.9286 7.59908C42.7169 8.79726 43.4736 10.027 44.2934 11.1936C44.8295 11.9188 45.2078 12.7386 45.8385 13.4323C46.0277 13.4008 46.2484 13.3377 46.4376 13.2746C48.6447 12.4233 50.8204 11.6035 53.0591 10.8152C53.469 11.2882 53.7212 11.8558 53.6582 12.4864C52.6177 12.7702 51.6087 13.2116 50.5681 13.5584C49.3384 13.9683 48.1718 14.5989 46.879 14.8197C47.0682 15.3557 47.3204 15.8287 47.6357 16.2701C47.1943 16.6485 46.7529 16.9953 46.2799 17.3106C45.9015 16.7746 45.5547 16.1755 45.0817 15.671C44.4511 15.7656 43.8836 16.0809 43.2845 16.2701C43.0637 15.7971 42.843 15.2926 42.6538 14.7881C43.0637 14.5674 43.4736 14.3467 43.9151 14.1575C43.789 13.653 43.5367 13.1801 43.2529 12.7386C42.2439 11.2567 41.2349 9.74319 40.2575 8.2297C39.9106 7.69368 40.6989 7.4099 41.0773 7.15765Z"
     fill="#FFFBFF"
     id="path14"
     style="fill:#ffffff;fill-opacity:1" />
  <path
     d="M8.60023 15.3558C9.42004 14.3468 10.2714 13.3693 11.3119 12.5811C11.5011 12.8018 11.7218 13.0225 11.9425 13.2432C11.4065 13.9054 10.7759 14.4729 10.2083 15.1351C8.50564 17.153 6.89755 19.2656 5.66784 21.5989C5.47866 21.8511 5.38407 22.2926 5.00569 22.198C4.69038 22.261 4.53273 21.9142 4.31201 21.7566C5.54172 19.5179 6.92909 17.3422 8.60023 15.3558Z"
     fill="#FFFBFF"
     id="path16"
     style="fill:#ffffff;fill-opacity:1" />
  <path
     d="M54.9827 13.8423C55.4241 14.1576 55.8656 14.4729 56.2755 14.7882C55.7079 15.7972 55.0773 16.7431 54.289 17.5945C53.8791 17.2792 53.5007 16.9323 53.0908 16.617C53.5953 15.6395 54.2575 14.6936 54.9827 13.8423Z"
     fill="#FFFBFF"
     id="path18"
     style="fill:#ffffff;fill-opacity:1" />
  <path
     d="M40.1941 18.2562C40.0995 18.7291 39.8788 19.139 39.5004 19.4543C38.8068 20.2741 37.6716 20.2741 36.6942 20.148C35.8744 19.8642 35.2122 19.139 34.8969 18.2877C34.7708 17.9724 34.7393 17.6255 34.7393 17.2787C34.7708 16.9949 34.8339 16.7111 34.96 16.4274C35.2438 15.6391 35.969 15.1031 36.7257 14.7877C38.0815 14.3463 39.6581 15.1346 40.1626 16.4589C40.1941 16.7111 40.2257 16.9634 40.2572 17.2156C40.2887 17.594 40.2572 17.9093 40.1941 18.2562Z"
     fill="#FFFBFF"
     id="path20"
     style="fill:#ffffff;fill-opacity:1" />
  <path
     d="M15.7576 15.261C16.2621 15.261 16.7666 15.261 17.2395 15.2295C17.5549 16.6484 17.3341 18.0988 17.4287 19.5177C17.3657 20.5897 17.5549 21.6303 17.6494 22.7023C18.1539 22.5447 18.6584 22.387 19.1629 22.2609C19.4152 22.7654 19.6044 23.3329 19.6044 23.9005C19.0053 24.0582 18.4062 24.2473 17.7756 24.405C17.744 25.0987 17.744 25.7923 17.744 26.486C17.208 26.486 16.672 26.486 16.136 26.486C16.1044 25.95 16.1044 25.414 16.0729 24.878C13.645 25.5716 11.1856 26.2653 8.72617 26.9275C8.60004 26.3914 8.50544 25.8554 8.44238 25.2879C8.85229 25.0987 9.26219 24.941 9.70362 24.878C11.4694 24.5626 13.1405 23.7744 14.9062 23.5221C15.2846 23.4591 15.8207 23.2699 15.7891 22.7969C15.7891 20.2744 15.6945 17.7835 15.7576 15.261Z"
     fill="#FFFBFF"
     id="path22"
     style="fill:#ffffff;fill-opacity:1" />
  <path
     d="M24.7129 24.4679C24.1769 24.4049 23.7039 24.2157 23.2625 23.9004C22.9787 23.6796 22.758 23.4274 22.5688 23.1436C22.285 22.7337 22.0958 22.2292 22.0958 21.7247C22.0012 20.3374 23.0417 18.95 24.4291 18.7608C25.1228 18.6347 25.848 18.7924 26.4786 19.1077C26.7939 19.2653 27.0147 19.5176 27.2354 19.7698C27.4246 20.0536 27.5822 20.3374 27.7083 20.6842C27.7714 20.8419 27.8345 21.031 27.866 21.1887C28.0552 22.8914 26.4786 24.6571 24.7129 24.4679Z"
     fill="#FFFBFF"
     id="path24"
     style="fill:#ffffff;fill-opacity:1" />
  <path
     d="M52.6185 22.8284C52.4608 23.1437 52.2716 23.4274 52.0194 23.6482C51.8617 23.8058 51.6725 23.9319 51.4518 24.0581C50.096 24.8779 48.1726 24.1842 47.5735 22.7022C47.1636 22.0086 47.2267 21.2203 47.542 20.5266C47.6681 20.2113 47.8888 19.9275 48.1095 19.6753C48.4248 19.36 48.8032 19.1077 49.1816 18.9501C50.159 18.7924 51.2942 18.7924 51.9878 19.5807C52.9968 20.3689 53.123 21.7563 52.6185 22.8284Z"
     fill="#FFFBFF"
     id="path26"
     style="fill:#ffffff;fill-opacity:1" />
  <path
     d="M2.29426 24.9096C3.33478 24.6258 4.50143 25.0042 5.16359 25.8555C5.85727 26.5807 5.63655 27.6528 5.60502 28.5672C5.32124 29.3554 4.65909 29.9861 3.87081 30.2698C3.051 30.3014 2.13661 30.459 1.44292 29.9545C0.591584 29.2924 0.0240266 28.2203 0.213213 27.1483C0.528523 26.1393 1.2222 25.1618 2.29426 24.9096Z"
     fill="#FFFBFF"
     id="path28"
     style="fill:#ffffff;fill-opacity:1" />
  <path
     d="M19.9515 32.4137C19.9515 33.8956 18.5011 35.0938 17.0507 35.0308C16.8615 35.0308 16.6723 34.9992 16.4831 34.9362C16.357 34.9046 16.1993 34.8416 16.0732 34.7785C15.3795 34.4632 14.7489 33.8641 14.5282 33.1074C14.4967 32.2876 14.3075 31.3732 14.8435 30.6795C15.1903 30.175 15.6948 29.7966 16.2624 29.5759C16.7669 29.5444 17.3345 29.4498 17.8705 29.5444C18.1227 29.6074 18.3435 29.6705 18.5642 29.8282C18.6588 29.8912 18.7218 29.9227 18.7849 29.9858C19.5101 30.5534 20.0461 31.4678 19.9515 32.4137Z"
     fill="#FFFBFF"
     id="path30"
     style="fill:#ffffff;fill-opacity:1" />
  <path
     d="M5.98347 32.6032C6.39337 32.2878 6.77175 31.9725 7.18165 31.6572C7.56002 32.0356 7.90687 32.414 8.22218 32.8239C9.3573 34.3374 10.587 35.7878 11.7537 37.3013C12.2266 37.0175 12.605 36.6076 12.9518 36.2292C13.3933 36.576 13.8347 36.9229 14.2131 37.3013C13.8978 37.9003 13.1095 38.3102 13.2041 39.067C13.4879 39.603 13.9293 40.0444 14.2131 40.5805C13.7716 40.8643 13.3617 41.1796 12.9518 41.4633C12.5735 41.085 12.1951 40.7066 11.7537 40.3913C10.7131 41.7787 9.60954 43.103 8.53749 44.4903C8.09605 45.0579 7.62309 45.5624 7.15012 46.0669C6.70869 45.7515 6.26725 45.3732 5.92041 44.9317C7.49696 42.9138 9.16811 40.9588 10.6816 38.9093C10.3032 38.058 9.54648 37.4274 9.01045 36.6706C8.03299 35.2833 6.83481 34.0536 5.98347 32.6032Z"
     fill="#FFFBFF"
     id="path32"
     style="fill:#ffffff;fill-opacity:1" />
  <path
     d="M0.780433 32.7925C1.03268 33.0447 1.56871 33.2024 1.44259 33.6438C1.37953 35.2834 1.31646 36.923 1.28493 38.5626C1.31646 40.5806 1.41106 42.5986 1.47412 44.6166C1.28493 44.6481 0.906558 44.6481 0.717372 44.6796C0.496655 43.7968 0.55972 42.8824 0.370533 41.968C0.0867539 40.423 0.212876 38.8464 0.181345 37.2699C0.181345 36.1032 0.496655 34.9996 0.559717 33.833C0.559717 33.4862 0.654309 33.1393 0.780433 32.7925Z"
     fill="#FFFBFF"
     id="path34"
     style="fill:#ffffff;fill-opacity:1" />
  <path
     d="M19.92 45.9721C19.6678 46.7603 19.1948 47.5171 18.4696 47.8955C18.375 47.9585 18.2804 47.9901 18.1543 48.0216C17.9336 48.1162 17.7129 48.2108 17.4922 48.2423C16.2309 48.4315 14.8435 47.5801 14.4967 46.3504C14.4652 45.4991 14.2129 44.4586 14.9066 43.7649C15.1904 43.4496 15.5372 43.1658 15.9156 42.9766C16.1994 42.8505 16.4832 42.7874 16.7985 42.7874C16.83 42.7874 16.8615 42.7874 16.9246 42.7874C17.5237 42.7559 18.1543 42.7559 18.6588 43.1343C19.5417 43.7649 20.1092 44.8685 19.92 45.9721Z"
     fill="#FFFBFF"
     id="path36"
     style="fill:#ffffff;fill-opacity:1" />
  <path
     d="M2.04207 47.2966C2.92494 46.9497 3.93393 47.2335 4.72221 47.738C6.07804 48.8416 6.14111 51.1749 4.8168 52.31C4.37537 52.6253 3.83934 52.7829 3.33484 52.9406C1.97901 53.0982 0.560114 52.1838 0.213272 50.8595C0.181741 50.1343 0.0240823 49.3145 0.465517 48.6839C0.84389 48.0848 1.34839 47.5173 2.04207 47.2966Z"
     fill="#FFFBFF"
     id="path38"
     style="fill:#ffffff;fill-opacity:1" />
  <path
     d="M8.69484 50.8911C10.5236 51.1118 12.2578 51.8055 14.0236 52.2785C14.6857 52.5307 15.3794 52.6568 16.1046 52.5938C16.1046 52.1524 16.1046 51.7424 16.1046 51.301C16.6091 51.301 17.1136 51.301 17.6497 51.301C17.6497 51.9632 17.6181 52.6253 17.6181 53.2875C18.2803 53.4451 18.9424 53.6658 19.573 53.9181C19.4469 54.3595 19.3839 54.8009 19.1316 55.1793C18.5641 55.2424 17.9965 55.1793 17.4605 55.1478C17.4605 57.418 17.4605 59.6567 17.3974 61.9269C17.3028 62.7152 16.2938 62.3368 15.7578 62.3999C15.7263 60.2558 15.7578 58.0802 15.7893 55.9361C15.8209 55.4316 16.1362 54.6433 15.474 54.4226C13.1407 53.855 10.8389 53.0037 8.47412 52.5623C8.47412 51.9947 8.53718 51.4271 8.69484 50.8911Z"
     fill="#FFFBFF"
     id="path40"
     style="fill:#ffffff;fill-opacity:1" />
  <path
     d="M27.5508 56.6924C27.5823 57.0392 27.4562 57.3546 27.267 57.6383C27.0778 57.9221 26.794 58.1744 26.5418 58.3951C26.4787 58.4266 26.4156 58.4897 26.3526 58.5212C24.9967 59.5302 22.8842 58.805 22.2535 57.26C21.9382 56.5663 21.9698 55.8095 22.2851 55.1474C22.4427 54.8321 22.6319 54.5483 22.8526 54.2961C23.1364 54.0123 23.4517 53.76 23.8301 53.6024C24.9652 53.3186 26.3526 53.5078 27.0778 54.5483C27.6769 55.0843 27.5823 55.9357 27.5508 56.6924Z"
     fill="#FFFBFF"
     id="path42"
     style="fill:#ffffff;fill-opacity:1" />
  <path
     d="M52.7119 57.1972C52.3651 57.954 51.7344 58.5846 50.9777 58.8999C50.3471 58.9945 49.6849 58.9945 49.0543 58.8999C48.8967 58.8369 48.739 58.7423 48.6129 58.6477C48.3291 58.4269 48.0453 58.1747 47.8246 57.9225C47.6669 57.7333 47.5408 57.5441 47.4462 57.3549C46.8471 55.8729 47.7615 54.0757 49.2435 53.6027C50.3786 53.2559 51.6399 53.7604 52.3335 54.6748C52.5227 54.8955 52.6488 55.1793 52.7434 55.463C52.7434 55.5261 52.775 55.6207 52.775 55.6838C52.775 56.1567 52.775 56.6927 52.7119 57.1972Z"
     fill="#FFFBFF"
     id="path44"
     style="fill:#ffffff;fill-opacity:1" />
  <path
     d="M4.43848 55.6519C4.78532 55.5257 5.16369 55.4627 5.54206 55.4312C6.80331 57.859 8.41139 60.0977 10.2087 62.1788C10.8078 62.904 11.5645 63.5346 12.1005 64.3229C11.8167 64.5436 11.4068 65.0796 11.0915 64.6382C8.37986 61.9896 6.14115 58.9626 4.43848 55.6519Z"
     fill="#FFFBFF"
     id="path46"
     style="fill:#ffffff;fill-opacity:1" />
  <path
     d="M40.2257 60.287C40.2257 60.6654 40.1626 61.0122 40.0365 61.3275C39.595 62.4311 38.4284 63.2824 37.2302 63.0932C36.1897 62.9671 35.1807 62.2419 34.8338 61.2329C34.8338 61.2014 34.8023 61.2014 34.8023 61.1699C34.7708 60.8545 34.7393 60.5077 34.7393 60.1924C34.7393 59.9402 34.7708 59.6564 34.8023 59.4041C35.0861 58.6474 35.6537 58.0483 36.3473 57.7015C37.041 57.5753 37.7662 57.6069 38.4915 57.6699C39.4374 58.1744 40.2887 59.1519 40.2257 60.287Z"
     fill="#FFFBFF"
     id="path48"
     style="fill:#ffffff;fill-opacity:1" />
  <path
     d="M27.4239 61.3276C27.8653 61.0438 28.2752 60.7916 28.7167 60.5393C29.1896 61.0438 29.505 61.706 30.041 62.1159C30.577 61.9582 31.113 61.706 31.6491 61.5168C31.9013 61.9582 32.1536 62.3997 32.3743 62.8726C31.9959 63.251 31.4914 63.5348 30.9554 63.5663C31.3022 64.4807 31.9013 65.2375 32.4373 66.0257C33.7932 68.1383 35.2751 70.1878 36.5994 72.3319C37.1985 72.3319 37.7976 72.3319 38.3652 72.3319C39.3426 70.6608 40.4778 69.1158 41.5183 67.5077C42.1489 66.5302 42.8111 65.5528 43.5047 64.5753C43.7255 64.26 43.8516 63.9132 43.8831 63.5348C43.3471 63.4717 42.8741 63.251 42.4958 62.8726C42.7165 62.4312 42.9372 61.9898 43.1894 61.5483C43.82 61.7375 44.4507 61.8952 45.0182 62.179C45.3651 61.5799 45.8065 61.0438 46.2479 60.5078C46.5948 60.8231 47.0993 61.0123 47.3515 61.4222C47.3515 61.9582 46.9732 62.4312 46.9101 62.9672C47.7299 63.0933 48.5182 63.4402 49.2749 63.7555C50.6623 64.2915 52.0497 64.7645 53.437 65.332C53.7208 65.8681 53.3424 66.4987 53.0902 66.9717C50.7253 66.1834 48.3921 65.269 46.0588 64.3861C45.7119 64.1969 45.5227 64.6699 45.3335 64.8906C43.6309 67.4761 41.8967 69.9986 40.2255 72.5842C40.5093 73.0256 40.73 73.5616 41.1714 73.8769C42.5273 73.6247 43.8516 73.3094 45.2074 73.0887C46.0903 72.8995 46.9101 72.5211 47.7614 72.3004C49.6533 71.7328 51.4821 70.8815 53.2478 70.0302C53.4686 70.3139 53.6262 70.5977 53.7208 70.9445C50.3154 72.7733 46.5948 74.003 42.8111 74.6337C42.0858 74.8229 41.3291 74.8544 40.6039 74.8859C40.3201 74.8859 40.2886 75.2643 40.2255 75.485C40.0679 76.4625 39.4372 77.3769 38.5228 77.7552C37.8607 77.8183 37.1985 77.8183 36.5364 77.7552C35.7166 77.503 35.0859 76.8093 34.8652 75.9895C34.676 75.6427 34.7391 75.0436 34.2661 74.949C33.4463 74.7913 32.6265 74.9174 31.8067 74.8229C29.095 74.3814 26.4149 73.7823 23.8609 72.7733C22.8519 72.3634 21.7798 72.0481 20.897 71.3545C21.1492 71.0707 21.3384 70.377 21.8114 70.7238C24.933 72.1743 28.2752 73.2463 31.7121 73.6877C32.5004 73.8769 33.3202 73.9715 34.1085 73.9085C34.3292 73.4986 34.7076 73.0887 34.6445 72.5842C34.613 72.3004 34.4238 72.1112 34.2977 71.8589C32.6581 69.4311 31.0815 66.9717 29.4734 64.5438C29.2842 64.1969 28.8428 64.2915 28.5275 64.4176C27.1401 65.0167 25.7212 65.4897 24.3339 66.0257C23.4825 66.341 22.6942 66.7194 21.8114 66.9086C21.5907 66.3726 21.3699 65.8365 21.3384 65.269C22.3159 64.9537 23.2303 64.5438 24.2077 64.26C25.469 63.8501 26.6672 63.1879 27.9599 62.9357C27.9284 62.3997 27.6446 61.8952 27.4239 61.3276Z"
     fill="#FFFBFF"
     id="path50"
     style="fill:#ffffff;fill-opacity:1" />
  <path
     d="M52.7754 61.3592C53.1853 61.0438 53.5637 60.6339 54.0997 60.5078C54.951 61.233 55.5186 62.242 56.0862 63.1879C55.6447 63.4717 55.2348 63.787 54.7934 64.0708C53.9736 63.2825 53.3745 62.3051 52.7754 61.3592Z"
     fill="#FFFBFF"
     id="path52"
     style="fill:#ffffff;fill-opacity:1" />
  <path
     d="M15.443 65.3951C16.2313 65.1114 17.0826 65.3951 17.7763 65.8366C18.5961 66.3411 18.9745 67.3185 18.8799 68.2645C19.0375 69.8725 17.3979 71.1968 15.8529 71.0392C14.6232 70.8185 13.5196 69.841 13.2673 68.6113C13.0151 67.1924 14.0556 65.7735 15.443 65.3951Z"
     fill="#FFFBFF"
     id="path54"
     style="fill:#ffffff;fill-opacity:1" />
  <path
     d="M57.7261 65.679C58.4198 65.5529 59.145 65.5529 59.8387 65.6475C60.9108 66.1835 61.7621 67.3817 61.5729 68.6114C61.3207 70.1564 59.6811 71.4492 58.1045 71.0078C57.127 70.6294 55.9919 69.8096 56.118 68.6429C56.1811 68.0439 55.9604 67.2871 56.4018 66.8141C56.7802 66.3412 57.1901 65.9313 57.7261 65.679Z"
     fill="#FFFBFF"
     id="path56"
     style="fill:#ffffff;fill-opacity:1" />
  <path
     d="M52.7122 55.4002C52.6176 55.1164 52.4915 54.8642 52.3023 54.6119C50.9465 55.8732 49.433 56.9767 47.7934 57.8596C45.4916 59.1208 42.9376 59.9406 40.2259 60.256C39.4376 60.3505 38.6178 60.4136 37.7665 60.4136C36.726 60.4136 35.717 60.3505 34.708 60.1929C32.0278 59.8145 29.5054 58.9001 27.2667 57.6074C25.6586 56.693 24.1766 55.5578 22.8523 54.2335C21.0235 52.4048 19.51 50.2607 18.438 47.8328C17.7128 46.2247 17.2083 44.522 16.8929 42.7248C16.7038 41.5896 16.6092 40.3915 16.6092 39.1933C16.6092 37.7429 16.7668 36.324 17.0506 34.9366C17.3974 33.1709 17.9965 31.4998 18.7533 29.9232C19.8884 27.6215 21.4334 25.5404 23.2622 23.8062C24.5865 22.545 26.0685 21.4729 27.6766 20.5901C29.8837 19.3919 32.3116 18.5721 34.8972 18.2252C35.8431 18.0991 36.789 18.0361 37.7665 18.0361C38.5863 18.0361 39.4061 18.0676 40.1944 18.1622C42.8115 18.446 45.3024 19.2342 47.5411 20.4324C49.1807 21.2837 50.6627 22.3243 52.0185 23.5855C52.2708 23.3648 52.46 23.0495 52.6176 22.7657C51.2618 21.536 49.7483 20.4639 48.1087 19.6126C45.7123 18.3514 43.0637 17.5 40.2259 17.1847C39.4061 17.0901 38.5863 17.0586 37.735 17.0586C36.6944 17.0586 35.6855 17.1217 34.708 17.2793C32.0278 17.6577 29.4738 18.509 27.1721 19.7387C25.4694 20.6531 23.9244 21.7882 22.537 23.1125C20.5821 24.9413 18.974 27.117 17.8073 29.5448C17.0191 31.1844 16.3884 32.9186 16.0101 34.7474C15.6948 36.1979 15.5371 37.7113 15.5371 39.2564C15.5371 40.5176 15.6317 41.7788 15.8524 42.977C16.1677 44.8058 16.7038 46.5715 17.429 48.2111C18.5956 50.8282 20.2352 53.1615 22.2217 55.1164C23.4829 56.3461 24.9334 57.4497 26.4469 58.3641C28.9378 59.8461 31.7441 60.8235 34.708 61.2334C35.6855 61.3595 36.6629 61.4226 37.6719 61.4226C38.4287 61.4226 39.1854 61.3911 39.9421 61.2965C43.0007 60.9812 45.9015 60.0352 48.4871 58.5848C50.0006 57.7335 51.3879 56.7245 52.6492 55.5894C52.7437 55.5578 52.7122 55.4633 52.7122 55.4002Z"
     fill="#FFFBFF"
     id="path58"
     style="fill:#ffffff;fill-opacity:1" />
  <g
     aria-label="Chaingateway.io"
     style="font-style:normal;font-variant:normal;font-weight:600;font-stretch:normal;font-size:32px;line-height:1.25;font-family:Dosis;-inkscape-font-specification:'Dosis Semi-Bold';letter-spacing:0px;word-spacing:0px;fill:#ffffff;fill-opacity:1;stroke:none"
     id="text905">
    <path
       d="m 72.771764,48.262587 q -1.92,0 -3.552,-0.704 -1.6,-0.704 -2.56,-2.272 -0.96,-1.568 -0.96,-4.16 v -9.312 q 0,-2.592 0.96,-4.16 0.96,-1.568 2.592,-2.272 1.632,-0.704 3.552,-0.704 2.208,0 3.808,0.768 1.632,0.736 2.528,2.048 0.928,1.28 0.928,2.976 0,1.088 -0.416,1.44 -0.416,0.32 -1.28,0.32 -0.768,0 -1.216,-0.256 -0.448,-0.288 -0.48,-0.864 -0.032,-0.416 -0.16,-0.992 -0.128,-0.576 -0.512,-1.12 -0.352,-0.576 -1.088,-0.928 -0.736,-0.384 -2.016,-0.384 -1.856,0 -2.848,1.024 -0.992,0.992 -0.992,3.104 v 9.312 q 0,2.112 0.992,3.136 1.024,0.992 2.944,0.992 1.216,0 1.92,-0.352 0.736,-0.384 1.088,-0.928 0.352,-0.576 0.48,-1.184 0.128,-0.64 0.192,-1.152 0.032,-0.608 0.48,-0.864 0.48,-0.256 1.184,-0.256 0.896,0 1.312,0.352 0.416,0.352 0.416,1.408 0,1.728 -0.928,3.104 -0.896,1.344 -2.528,2.112 -1.632,0.768 -3.84,0.768 z"
       style="fill:#ffffff;fill-opacity:1"
       id="path842" />
    <path
       d="m 84.580264,48.070587 q -0.736,0 -1.216,-0.352 -0.448,-0.352 -0.448,-0.768 v -21.984 q 0,-0.48 0.448,-0.768 0.48,-0.32 1.216,-0.32 0.704,0 1.184,0.32 0.512,0.288 0.512,0.768 v 10.176 q 0.48,-0.928 1.504,-1.664 1.056,-0.768 2.592,-0.768 1.504,0 2.752,0.864 1.28,0.832 2.048,2.272 0.768,1.408 0.768,3.168 v 7.936 q 0,0.544 -0.544,0.832 -0.512,0.288 -1.152,0.288 -0.576,0 -1.12,-0.288 -0.544,-0.288 -0.544,-0.832 v -7.936 q 0,-0.832 -0.448,-1.6 -0.448,-0.768 -1.184,-1.248 -0.704,-0.48 -1.6,-0.48 -0.768,0 -1.472,0.416 -0.704,0.384 -1.152,1.12 -0.448,0.736 -0.448,1.792 v 7.936 q 0,0.416 -0.512,0.768 -0.48,0.352 -1.184,0.352 z"
       style="fill:#ffffff;fill-opacity:1"
       id="path844" />
    <path
       d="m 102.61776,48.326587 q -1.76,0 -3.007996,-1.024 -1.248,-1.056 -1.248,-3.2 0,-1.824 0.96,-2.816 0.959996,-0.992 2.623996,-1.376 1.696,-0.384 3.904,-0.384 h 1.408 v -0.576 q 0,-0.832 -0.32,-1.6 -0.288,-0.8 -0.992,-1.312 -0.672,-0.544 -1.856,-0.544 -1.184,0 -1.824,0.224 -0.64,0.224 -1.024,0.48 -0.384,0.256 -0.704,0.256 -0.575996,0 -0.895996,-0.544 -0.32,-0.576 -0.32,-1.152 0,-0.576 0.735996,-1.024 0.768,-0.48 1.888,-0.736 1.12,-0.288 2.208,-0.288 2.368,0 3.776,0.896 1.408,0.864 2.048,2.272 0.64,1.408 0.64,3.04 v 8.032 q 0,0.448 -0.48,0.8 -0.448,0.32 -1.152,0.32 -0.64,0 -1.088,-0.32 -0.448,-0.352 -0.448,-0.8 v -1.12 q -0.832,0.96 -2.016,1.728 -1.184,0.768 -2.816,0.768 z m 1.216,-2.56 q 0.8,0 1.568,-0.48 0.8,-0.48 1.312,-1.216 0.544,-0.736 0.544,-1.504 v -1.184 h -0.8 q -1.216,0 -2.304,0.16 -1.088,0.128 -1.76,0.64 -0.64,0.48 -0.64,1.504 0,1.088 0.576,1.6 0.608,0.48 1.504,0.48 z"
       style="fill:#ffffff;fill-opacity:1"
       id="path846" />
    <path
       d="m 115.67326,29.094587 q -0.8,0 -1.376,-0.544 -0.576,-0.544 -0.576,-1.216 0,-0.736 0.576,-1.248 0.576,-0.512 1.376,-0.512 0.8,0 1.344,0.512 0.576,0.512 0.576,1.248 0,0.672 -0.576,1.216 -0.544,0.544 -1.344,0.544 z m 0,18.976 q -0.736,0 -1.216,-0.352 -0.448,-0.352 -0.448,-0.768 v -12.96 q 0,-0.48 0.448,-0.768 0.48,-0.32 1.216,-0.32 0.704,0 1.184,0.32 0.512,0.288 0.512,0.768 v 12.96 q 0,0.416 -0.512,0.768 -0.48,0.352 -1.184,0.352 z"
       style="fill:#ffffff;fill-opacity:1"
       id="path848" />
    <path
       d="m 122.54826,48.070587 q -0.736,0 -1.216,-0.352 -0.448,-0.352 -0.448,-0.768 v -12.96 q 0,-0.48 0.448,-0.768 0.48,-0.32 1.216,-0.32 0.608,0 1.056,0.32 0.448,0.288 0.448,0.768 v 1.152 q 0.48,-0.928 1.568,-1.664 1.12,-0.768 2.72,-0.768 1.504,0 2.752,0.864 1.28,0.832 2.048,2.272 0.768,1.408 0.768,3.168 v 7.936 q 0,0.544 -0.544,0.832 -0.512,0.288 -1.152,0.288 -0.576,0 -1.12,-0.288 -0.544,-0.288 -0.544,-0.832 v -7.936 q 0,-0.832 -0.448,-1.6 -0.416,-0.768 -1.152,-1.248 -0.736,-0.48 -1.632,-0.48 -0.768,0 -1.472,0.416 -0.704,0.384 -1.152,1.12 -0.448,0.736 -0.448,1.792 v 7.936 q 0,0.416 -0.512,0.768 -0.48,0.352 -1.184,0.352 z"
       style="fill:#ffffff;fill-opacity:1"
       id="path850" />
    <path
       d="m 142.98726,55.270587 q -1.856,0 -3.424,-0.544 -1.568,-0.512 -2.496,-1.504 -0.928,-0.992 -0.928,-2.368 0,-1.28 0.736,-2.144 0.736,-0.832 1.728,-1.28 -0.64,-0.288 -1.056,-0.768 -0.416,-0.48 -0.416,-1.344 0,-0.896 0.448,-1.44 0.448,-0.544 1.152,-0.992 -0.896,-0.704 -1.408,-1.728 -0.48,-1.056 -0.48,-2.304 v -0.896 q 0,-1.536 0.736,-2.72 0.736,-1.184 2.08,-1.856 1.376,-0.672 3.136,-0.672 1.088,0 2.016,0.288 0.96,0.288 1.696,0.8 0.512,-1.184 1.024,-1.664 0.544,-0.48 1.024,-0.48 0.672,0 1.024,0.384 0.352,0.384 0.352,0.768 0,0.256 -0.16,0.48 -0.128,0.192 -0.384,0.32 -0.32,0.16 -0.768,0.448 -0.416,0.256 -0.832,0.832 0.544,0.608 0.8,1.408 0.256,0.8 0.256,1.664 v 0.896 q 0,1.504 -0.768,2.72 -0.768,1.216 -2.144,1.92 -1.376,0.672 -3.136,0.672 -1.248,0 -2.208,-0.384 -0.256,0.16 -0.448,0.384 -0.16,0.192 -0.16,0.512 0,0.576 0.704,0.832 0.704,0.256 1.792,0.384 1.12,0.128 2.368,0.32 1.248,0.192 2.336,0.64 1.12,0.416 1.824,1.248 0.704,0.864 0.704,2.336 0,1.664 -0.928,2.72 -0.928,1.088 -2.464,1.6 -1.504,0.512 -3.328,0.512 z m -0.064,-2.24 q 1.568,0 2.528,-0.704 0.992,-0.672 0.992,-1.792 0,-0.8 -0.48,-1.248 -0.48,-0.448 -1.248,-0.672 -0.768,-0.224 -1.632,-0.32 -0.832,-0.096 -1.6,-0.192 -0.896,0.32 -1.536,0.896 -0.608,0.608 -0.608,1.504 0,1.184 0.992,1.856 1.024,0.672 2.592,0.672 z m -0.064,-11.008 q 1.28,0 1.984,-0.896 0.736,-0.896 0.736,-2.272 v -0.896 q 0,-1.312 -0.736,-2.208 -0.704,-0.896 -2.016,-0.896 -1.312,0 -2.016,0.896 -0.704,0.896 -0.704,2.208 v 0.864 q 0,1.344 0.704,2.272 0.704,0.928 2.048,0.928 z"
       style="fill:#ffffff;fill-opacity:1"
       id="path852" />
    <path
       d="m 155.43026,48.326587 q -1.76,0 -3.008,-1.024 -1.248,-1.056 -1.248,-3.2 0,-1.824 0.96,-2.816 0.96,-0.992 2.624,-1.376 1.696,-0.384 3.904,-0.384 h 1.408 v -0.576 q 0,-0.832 -0.32,-1.6 -0.288,-0.8 -0.992,-1.312 -0.672,-0.544 -1.856,-0.544 -1.184,0 -1.824,0.224 -0.64,0.224 -1.024,0.48 -0.384,0.256 -0.704,0.256 -0.576,0 -0.896,-0.544 -0.32,-0.576 -0.32,-1.152 0,-0.576 0.736,-1.024 0.768,-0.48 1.888,-0.736 1.12,-0.288 2.208,-0.288 2.368,0 3.776,0.896 1.408,0.864 2.048,2.272 0.64,1.408 0.64,3.04 v 8.032 q 0,0.448 -0.48,0.8 -0.448,0.32 -1.152,0.32 -0.64,0 -1.088,-0.32 -0.448,-0.352 -0.448,-0.8 v -1.12 q -0.832,0.96 -2.016,1.728 -1.184,0.768 -2.816,0.768 z m 1.216,-2.56 q 0.8,0 1.568,-0.48 0.8,-0.48 1.312,-1.216 0.544,-0.736 0.544,-1.504 v -1.184 h -0.8 q -1.216,0 -2.304,0.16 -1.088,0.128 -1.76,0.64 -0.64,0.48 -0.64,1.504 0,1.088 0.576,1.6 0.608,0.48 1.504,0.48 z"
       style="fill:#ffffff;fill-opacity:1"
       id="path854" />
    <path
       d="m 172.35776,48.070587 q -2.72,0 -4.16,-1.184 -1.44,-1.216 -1.44,-3.808 v -16.032 q 0,-0.48 0.512,-0.768 0.544,-0.32 1.152,-0.32 0.608,0 1.152,0.32 0.544,0.288 0.544,0.768 v 5.856 h 3.904 q 0.448,0 0.672,0.384 0.256,0.384 0.256,0.864 0,0.48 -0.256,0.864 -0.224,0.384 -0.672,0.384 h -3.904 v 7.68 q 0,1.152 0.48,1.632 0.512,0.48 1.76,0.48 h 1.088 q 0.736,0 1.088,0.448 0.384,0.416 0.384,0.992 0,0.544 -0.384,0.992 -0.352,0.448 -1.088,0.448 z"
       style="fill:#ffffff;fill-opacity:1"
       id="path856" />
    <path
       d="m 183.85726,48.326587 q -2.176,0 -3.84,-0.8 -1.664,-0.8 -2.624,-2.208 -0.96,-1.44 -0.96,-3.36 v -3.04 q 0,-1.696 0.896,-3.104 0.928,-1.408 2.432,-2.24 1.504,-0.864 3.328,-0.864 1.728,0 3.168,0.768 1.44,0.736 2.304,2.08 0.896,1.344 0.896,3.072 0,1.344 -0.416,1.92 -0.416,0.576 -1.088,0.704 -0.672,0.128 -1.408,0.128 h -6.752 v 0.736 q 0,1.6 1.152,2.56 1.184,0.928 3.008,0.928 1.12,0 1.824,-0.32 0.704,-0.32 1.184,-0.608 0.48,-0.288 0.896,-0.288 0.416,0 0.704,0.256 0.288,0.256 0.448,0.608 0.16,0.352 0.16,0.64 0,0.48 -0.672,1.056 -0.64,0.576 -1.824,0.992 -1.184,0.384 -2.816,0.384 z m -4.064,-9.024 h 5.312 q 0.704,0 0.928,-0.192 0.256,-0.192 0.256,-0.768 0,-0.832 -0.416,-1.536 -0.416,-0.736 -1.152,-1.12 -0.736,-0.416 -1.664,-0.416 -0.896,0 -1.632,0.384 -0.736,0.384 -1.184,1.056 -0.448,0.672 -0.448,1.568 z"
       style="fill:#ffffff;fill-opacity:1"
       id="path858" />
    <path
       d="m 197.15676,48.390587 q -0.448,0 -0.8,-0.16 -0.352,-0.16 -0.512,-0.576 l -4.96,-12.928 q -0.064,-0.16 -0.128,-0.288 -0.032,-0.16 -0.032,-0.256 0,-0.416 0.352,-0.704 0.352,-0.32 0.832,-0.512 0.512,-0.192 0.96,-0.192 0.352,0 0.64,0.16 0.288,0.128 0.384,0.448 l 3.552,9.952 2.72,-8.832 q 0.16,-0.48 0.48,-0.608 0.32,-0.128 0.704,-0.128 0.416,0 0.736,0.128 0.32,0.128 0.48,0.608 l 2.656,8.896 3.584,-10.016 q 0.192,-0.608 0.992,-0.608 0.448,0 0.928,0.192 0.512,0.16 0.864,0.48 0.352,0.32 0.352,0.768 0,0.096 -0.032,0.256 -0.032,0.16 -0.096,0.256 l -4.96,12.992 q -0.128,0.384 -0.512,0.512 -0.352,0.16 -0.8,0.16 -0.512,0 -0.896,-0.16 -0.352,-0.16 -0.48,-0.48 l -2.816,-8.256 -2.752,8.16 q -0.128,0.384 -0.544,0.544 -0.384,0.192 -0.896,0.192 z"
       style="fill:#ffffff;fill-opacity:1"
       id="path860" />
    <path
       d="m 217.30526,48.326587 q -1.76,0 -3.008,-1.024 -1.248,-1.056 -1.248,-3.2 0,-1.824 0.96,-2.816 0.96,-0.992 2.624,-1.376 1.696,-0.384 3.904,-0.384 h 1.408 v -0.576 q 0,-0.832 -0.32,-1.6 -0.288,-0.8 -0.992,-1.312 -0.672,-0.544 -1.856,-0.544 -1.184,0 -1.824,0.224 -0.64,0.224 -1.024,0.48 -0.384,0.256 -0.704,0.256 -0.576,0 -0.896,-0.544 -0.32,-0.576 -0.32,-1.152 0,-0.576 0.736,-1.024 0.768,-0.48 1.888,-0.736 1.12,-0.288 2.208,-0.288 2.368,0 3.776,0.896 1.408,0.864 2.048,2.272 0.64,1.408 0.64,3.04 v 8.032 q 0,0.448 -0.48,0.8 -0.448,0.32 -1.152,0.32 -0.64,0 -1.088,-0.32 -0.448,-0.352 -0.448,-0.8 v -1.12 q -0.832,0.96 -2.016,1.728 -1.184,0.768 -2.816,0.768 z m 1.216,-2.56 q 0.8,0 1.568,-0.48 0.8,-0.48 1.312,-1.216 0.544,-0.736 0.544,-1.504 v -1.184 h -0.8 q -1.216,0 -2.304,0.16 -1.088,0.128 -1.76,0.64 -0.64,0.48 -0.64,1.504 0,1.088 0.576,1.6 0.608,0.48 1.504,0.48 z"
       style="fill:#ffffff;fill-opacity:1"
       id="path862" />
    <path
       d="m 228.57326,55.270587 q -0.64,0 -1.088,-0.288 -0.448,-0.256 -0.448,-1.152 0,-0.576 0.192,-1.024 0.192,-0.416 0.704,-0.416 0.608,0 1.312,-0.32 0.736,-0.288 1.408,-0.96 0.704,-0.64 1.184,-1.632 0.512,-0.992 0.704,-2.336 l -5.408,-12.416 q -0.128,-0.224 -0.128,-0.448 0,-0.416 0.352,-0.768 0.384,-0.384 0.896,-0.608 0.512,-0.224 0.96,-0.224 0.32,0 0.608,0.16 0.32,0.128 0.416,0.448 l 4.032,10.4 3.488,-10.4 q 0.096,-0.32 0.384,-0.448 0.288,-0.16 0.576,-0.16 0.384,0 0.896,0.224 0.544,0.224 0.928,0.608 0.416,0.352 0.416,0.832 0,0.256 -0.096,0.384 l -4.8,12.512 q -0.512,1.376 -1.056,2.784 -0.544,1.44 -1.344,2.624 -0.768,1.184 -2.016,1.888 -1.216,0.736 -3.072,0.736 z"
       style="fill:#ffffff;fill-opacity:1"
       id="path864" />
    <path
       d="m 243.38076,48.262587 q -0.832,0 -1.376,-0.576 -0.544,-0.576 -0.544,-1.344 0,-0.8 0.544,-1.344 0.544,-0.576 1.376,-0.576 0.768,0 1.312,0.576 0.576,0.544 0.576,1.344 0,0.768 -0.576,1.344 -0.544,0.576 -1.312,0.576 z"
       style="fill:#ffffff;fill-opacity:1"
       id="path866" />
    <path
       d="m 249.73576,29.094587 q -0.8,0 -1.376,-0.544 -0.576,-0.544 -0.576,-1.216 0,-0.736 0.576,-1.248 0.576,-0.512 1.376,-0.512 0.8,0 1.344,0.512 0.576,0.512 0.576,1.248 0,0.672 -0.576,1.216 -0.544,0.544 -1.344,0.544 z m 0,18.976 q -0.736,0 -1.216,-0.352 -0.448,-0.352 -0.448,-0.768 v -12.96 q 0,-0.48 0.448,-0.768 0.48,-0.32 1.216,-0.32 0.704,0 1.184,0.32 0.512,0.288 0.512,0.768 v 12.96 q 0,0.416 -0.512,0.768 -0.48,0.352 -1.184,0.352 z"
       style="fill:#ffffff;fill-opacity:1"
       id="path868" />
    <path
       d="m 260.93076,48.326587 q -1.728,0 -3.232,-0.896 -1.504,-0.896 -2.432,-2.336 -0.896,-1.472 -0.896,-3.136 v -2.944 q 0,-1.696 0.864,-3.136 0.896,-1.44 2.4,-2.304 1.536,-0.864 3.328,-0.864 1.792,0 3.296,0.864 1.504,0.832 2.4,2.272 0.928,1.408 0.928,3.168 v 2.944 q 0,1.632 -0.928,3.104 -0.896,1.472 -2.432,2.368 -1.504,0.896 -3.296,0.896 z m 0.032,-2.976 q 0.896,0 1.632,-0.48 0.736,-0.48 1.184,-1.248 0.448,-0.8 0.448,-1.664 v -2.944 q 0,-0.832 -0.448,-1.6 -0.448,-0.768 -1.184,-1.248 -0.736,-0.48 -1.632,-0.48 -0.928,0 -1.664,0.48 -0.704,0.48 -1.152,1.248 -0.416,0.768 -0.416,1.6 v 2.944 q 0,0.864 0.416,1.664 0.448,0.768 1.184,1.248 0.736,0.48 1.632,0.48 z"
       style="fill:#ffffff;fill-opacity:1"
       id="path870" />
  </g>
</svg>
