<svg width="310" height="404" viewBox="0 0 310 404" fill="none" xmlns="http://www.w3.org/2000/svg">
<g style="mix-blend-mode:color-dodge">
<path d="M272.856 14.079L268.578 11.4613C259.963 6.19456 250.397 2.67695 240.423 1.10929C230.45 -0.458362 220.266 -0.0453651 210.452 2.3247C200.639 4.69477 191.388 8.9755 183.228 14.9225C175.068 20.8694 168.159 28.3662 162.895 36.9846L102.805 135.374C98.6075 142.266 95.5173 149.774 93.647 157.625L97.8858 155.19C98.2522 154.981 98.6315 154.811 98.9979 154.614C99.9529 154.104 100.908 153.607 101.863 153.135C102.818 152.664 103.93 152.141 104.977 151.669C105.631 151.381 106.285 151.107 106.939 150.845C108.352 150.256 109.791 149.706 111.243 149.209L112.826 148.672C114.71 148.057 116.62 147.52 118.544 147.036L119.054 146.905C120.061 146.669 121.082 146.447 122.102 146.251L123.698 145.963C125.242 145.688 126.799 145.452 128.356 145.269L130.423 145.046C131.731 144.929 133.039 144.85 134.269 144.785L137.082 144.706C137.867 144.706 138.639 144.706 139.424 144.706C140.846 144.706 142.272 144.772 143.702 144.902C144.016 144.902 144.33 144.902 144.644 144.902C144.958 144.902 145.599 145.02 146.07 145.06H146.633L199.134 59.1703C203.895 51.3923 211.543 45.8195 220.403 43.6727C229.263 41.526 238.612 42.9805 246.402 47.7175L250.68 50.3353C258.46 55.1001 264.032 62.7587 266.174 71.6299C268.315 80.501 266.851 89.8597 262.102 97.6516L209.6 183.633L208.436 185.543L207.285 187.441L202.051 196.028C198.967 201.06 194.64 205.214 189.487 208.091C184.334 210.967 178.529 212.47 172.628 212.454C171.843 212.454 171.058 212.428 170.273 212.376C169.436 212.31 168.599 212.219 167.774 212.101C163.14 211.472 158.685 209.89 154.692 207.454L150.427 204.836C146.447 202.407 143.013 199.181 140.34 195.36C139.502 195.295 138.665 195.242 137.815 195.242C132.603 195.211 127.472 196.53 122.921 199.071C118.37 201.613 114.554 205.29 111.845 209.745L106.612 218.318L105.618 219.928C106.429 221.08 107.266 222.219 108.156 223.331C109.045 224.444 109.739 225.268 110.563 226.224C113.089 229.095 115.827 231.773 118.753 234.234C121.746 236.763 124.93 239.057 128.277 241.093L132.555 243.71C135.9 245.763 139.4 247.553 143.022 249.064C146.546 250.542 150.176 251.754 153.88 252.689C155.097 252.991 156.327 253.265 157.557 253.514C159.31 253.867 161.076 254.129 162.79 254.365L164.216 254.509C165.132 254.614 166.061 254.692 166.989 254.758C168.415 254.862 169.841 254.915 171.281 254.941H173.57C174.748 254.941 175.925 254.875 177.102 254.81C178.28 254.744 179.196 254.666 180.242 254.561L181.917 254.365C183.565 254.155 185.201 253.907 186.823 253.606L187.87 253.396C193.021 252.351 198.053 250.785 202.889 248.724L203.124 248.619C204.869 247.86 206.613 247.035 208.357 246.145L209.443 245.569C211.223 244.601 212.963 243.58 214.676 242.48L215.357 242.035C216.246 241.433 217.136 240.831 217.973 240.203C219.534 239.06 221.043 237.864 222.5 236.616C228.675 231.338 233.974 225.113 238.199 218.174L298.289 119.798C308.923 102.403 312.218 81.4953 307.449 61.6708C302.68 41.8463 290.237 24.7279 272.856 14.079V14.079Z" fill="url(#paint0_linear_63_863)"/>
<path d="M216.901 245.909C215.697 246.695 214.493 247.441 213.29 248.135C212.701 248.475 212.086 248.776 211.484 249.103L210.176 249.784C208.488 250.661 206.788 251.472 205.061 252.231L204.472 252.493C201.379 253.811 198.207 254.934 194.974 255.857L194.568 255.975C193.6 256.25 192.632 256.551 191.651 256.786C190.67 257.022 189.911 257.127 189.034 257.31C188.511 257.432 187.988 257.537 187.464 257.624C185.881 257.925 184.298 258.161 182.715 258.357C182.022 258.449 181.328 258.54 180.635 258.606C179.615 258.71 178.594 258.802 177.574 258.854C176.265 258.946 174.957 258.985 173.649 258.998H171.281C169.763 258.998 168.246 258.907 166.715 258.802C166.427 258.802 166.126 258.802 165.825 258.802H165.394C165.119 258.802 164.831 258.802 164.556 258.802C164.281 258.802 164.059 258.737 163.81 258.71L111.361 344.508C106.596 352.289 98.9414 357.861 90.0754 360.003C81.2094 362.145 71.8561 360.682 64.0669 355.935L59.7888 353.317C52.0089 348.552 46.4367 340.893 44.2954 332.022C42.154 323.151 43.6186 313.792 48.3675 306.001L100.856 220.033L102.007 218.148L103.198 216.211L108.431 207.624C111.513 202.599 115.834 198.451 120.979 195.577C126.125 192.703 131.922 191.199 137.815 191.211C138.6 191.211 139.385 191.237 140.17 191.29C141.007 191.355 141.831 191.447 142.669 191.564C147.303 192.193 151.758 193.775 155.751 196.211L160.016 198.829C163.996 201.258 167.43 204.484 170.103 208.305C170.941 208.371 171.778 208.41 172.628 208.423C177.834 208.461 182.961 207.152 187.512 204.623C192.062 202.093 195.881 198.429 198.598 193.986L203.831 185.413L204.812 183.803C198.796 175.25 191.088 168.024 182.166 162.573L177.888 159.955C168.108 153.972 157.109 150.263 145.704 149.104C128.178 147.34 110.574 151.601 95.7928 161.185L94.9162 161.761C94.092 162.311 93.2678 162.874 92.4697 163.463C92.3127 164.431 92.2212 165.059 92.1688 165.321C92.1688 165.059 92.3127 164.431 92.4697 163.463C90.9085 164.606 89.3996 165.801 87.9431 167.049C81.7684 172.327 76.4695 178.552 72.2437 185.491L12.1542 283.867C6.89045 292.486 3.37526 302.058 1.8093 312.037C0.243332 322.015 0.657279 332.204 3.02749 342.022C5.3977 351.841 9.67774 361.096 15.6232 369.259C21.5687 377.422 29.0633 384.334 37.6788 389.599L41.9569 392.217C59.343 402.847 80.2362 406.137 100.045 401.363C119.855 396.589 136.959 384.143 147.601 366.759L207.69 268.37C211.925 261.416 215.033 253.835 216.901 245.909Z" fill="url(#paint1_linear_63_863)"/>
</g>
<g style="mix-blend-mode:lighten">
<path d="M272.856 14.079L268.578 11.4613C259.963 6.19456 250.397 2.67695 240.423 1.10929C230.45 -0.458362 220.266 -0.0453651 210.452 2.3247C200.639 4.69477 191.388 8.9755 183.228 14.9225C175.068 20.8694 168.159 28.3662 162.895 36.9846L102.805 135.374C98.6075 142.266 95.5173 149.774 93.647 157.625L97.8858 155.19C98.2522 154.981 98.6315 154.811 98.9979 154.614C99.9529 154.104 100.908 153.607 101.863 153.135C102.818 152.664 103.93 152.141 104.977 151.669C105.631 151.381 106.285 151.107 106.939 150.845C108.352 150.256 109.791 149.706 111.243 149.209L112.826 148.672C114.71 148.057 116.62 147.52 118.544 147.036L119.054 146.905C120.061 146.669 121.082 146.447 122.102 146.251L123.698 145.963C125.242 145.688 126.799 145.452 128.356 145.269L130.423 145.046C131.731 144.929 133.039 144.85 134.269 144.785L137.082 144.706C137.867 144.706 138.639 144.706 139.424 144.706C140.846 144.706 142.272 144.772 143.702 144.902C144.016 144.902 144.33 144.902 144.644 144.902C144.958 144.902 145.599 145.02 146.07 145.06H146.633L199.134 59.1703C203.895 51.3923 211.543 45.8195 220.403 43.6727C229.263 41.526 238.612 42.9805 246.402 47.7175L250.68 50.3353C258.46 55.1001 264.032 62.7587 266.174 71.6299C268.315 80.501 266.851 89.8597 262.102 97.6516L209.6 183.633L208.436 185.543L207.285 187.441L202.051 196.028C198.967 201.06 194.64 205.214 189.487 208.091C184.334 210.967 178.529 212.47 172.628 212.454C171.843 212.454 171.058 212.428 170.273 212.376C169.436 212.31 168.599 212.219 167.774 212.101C163.14 211.472 158.685 209.89 154.692 207.454L150.427 204.836C146.447 202.407 143.013 199.181 140.34 195.36C139.502 195.295 138.665 195.242 137.815 195.242C132.603 195.211 127.472 196.53 122.921 199.071C118.37 201.613 114.554 205.29 111.845 209.745L106.612 218.318L105.618 219.928C106.429 221.08 107.266 222.219 108.156 223.331C109.045 224.444 109.739 225.268 110.563 226.224C113.089 229.095 115.827 231.773 118.753 234.234C121.746 236.763 124.93 239.057 128.277 241.093L132.555 243.71C135.9 245.763 139.4 247.553 143.022 249.064C146.546 250.542 150.176 251.754 153.88 252.689C155.097 252.991 156.327 253.265 157.557 253.514C159.31 253.867 161.076 254.129 162.79 254.365L164.216 254.509C165.132 254.614 166.061 254.692 166.989 254.758C168.415 254.862 169.841 254.915 171.281 254.941H173.57C174.748 254.941 175.925 254.875 177.102 254.81C178.28 254.744 179.196 254.666 180.242 254.561L181.917 254.365C183.565 254.155 185.201 253.907 186.823 253.606L187.87 253.396C193.021 252.351 198.053 250.785 202.889 248.724L203.124 248.619C204.869 247.86 206.613 247.035 208.357 246.145L209.443 245.569C211.223 244.601 212.963 243.58 214.676 242.48L215.357 242.035C216.246 241.433 217.136 240.831 217.973 240.203C219.534 239.06 221.043 237.864 222.5 236.616C228.675 231.338 233.974 225.113 238.199 218.174L298.289 119.798C308.923 102.403 312.218 81.4953 307.449 61.6708C302.68 41.8463 290.237 24.7279 272.856 14.079V14.079Z" fill="url(#paint2_linear_63_863)"/>
<path d="M216.901 245.909C215.697 246.695 214.493 247.441 213.29 248.135C212.701 248.475 212.086 248.776 211.484 249.103L210.176 249.784C208.488 250.661 206.788 251.472 205.061 252.231L204.472 252.493C201.379 253.811 198.207 254.934 194.974 255.857L194.568 255.975C193.6 256.25 192.632 256.551 191.651 256.786C190.67 257.022 189.911 257.127 189.034 257.31C188.511 257.432 187.988 257.537 187.464 257.624C185.881 257.925 184.298 258.161 182.715 258.357C182.022 258.449 181.328 258.54 180.635 258.606C179.615 258.71 178.594 258.802 177.574 258.854C176.265 258.946 174.957 258.985 173.649 258.998H171.281C169.763 258.998 168.246 258.907 166.715 258.802C166.427 258.802 166.126 258.802 165.825 258.802H165.394C165.119 258.802 164.831 258.802 164.556 258.802C164.281 258.802 164.059 258.737 163.81 258.71L111.361 344.508C106.596 352.289 98.9414 357.861 90.0754 360.003C81.2094 362.145 71.8561 360.682 64.0669 355.935L59.7888 353.317C52.0089 348.552 46.4367 340.893 44.2954 332.022C42.154 323.151 43.6186 313.792 48.3675 306.001L100.856 220.033L102.007 218.148L103.198 216.211L108.431 207.624C111.513 202.599 115.834 198.451 120.979 195.577C126.125 192.703 131.922 191.199 137.815 191.211C138.6 191.211 139.385 191.237 140.17 191.29C141.007 191.355 141.831 191.447 142.669 191.564C147.303 192.193 151.758 193.775 155.751 196.211L160.016 198.829C163.996 201.258 167.43 204.484 170.103 208.305C170.941 208.371 171.778 208.41 172.628 208.423C177.834 208.461 182.961 207.152 187.512 204.623C192.062 202.093 195.881 198.429 198.598 193.986L203.831 185.413L204.812 183.803C198.796 175.25 191.088 168.024 182.166 162.573L177.888 159.955C168.108 153.972 157.109 150.263 145.704 149.104C128.178 147.34 110.574 151.601 95.7928 161.185L94.9162 161.761C94.092 162.311 93.2678 162.874 92.4697 163.463C92.3127 164.431 92.2212 165.059 92.1688 165.321C92.1688 165.059 92.3127 164.431 92.4697 163.463C90.9085 164.606 89.3996 165.801 87.9431 167.049C81.7684 172.327 76.4695 178.552 72.2437 185.491L12.1542 283.867C6.89045 292.486 3.37526 302.058 1.8093 312.037C0.243332 322.015 0.657279 332.204 3.02749 342.022C5.3977 351.841 9.67774 361.096 15.6232 369.259C21.5687 377.422 29.0633 384.334 37.6788 389.599L41.9569 392.217C59.343 402.847 80.2362 406.137 100.045 401.363C119.855 396.589 136.959 384.143 147.601 366.759L207.69 268.37C211.925 261.416 215.033 253.835 216.901 245.909Z" fill="url(#paint3_linear_63_863)"/>
</g>
<path d="M228.57 2.78321C242.21 2.79321 255.582 6.56583 267.217 13.6863L271.495 16.304C288.272 26.5939 300.286 43.1179 304.907 62.2549C309.527 81.3919 306.375 101.581 296.143 118.397L236.054 216.787C231.965 223.492 226.838 229.504 220.865 234.6C219.399 235.844 217.934 237.009 216.482 238.056C215.618 238.684 214.703 239.365 213.957 239.81L213.277 240.255C211.72 241.263 210.019 242.271 208.24 243.239L207.193 243.802C205.505 244.679 203.818 245.49 202.182 246.197H202.038H201.96C197.283 248.186 192.418 249.699 187.438 250.713H187.242L186.431 250.87C184.939 251.158 183.382 251.394 181.695 251.603H181.354L180.046 251.76C178.999 251.865 177.979 251.943 177.011 252.009C175.846 252.074 174.695 252.113 173.596 252.127H171.385C169.959 252.127 168.559 252.035 167.238 251.943C166.44 251.943 165.498 251.812 164.556 251.721L163.248 251.564C161.285 251.315 159.663 251.053 158.145 250.752C156.968 250.517 155.764 250.242 154.6 249.954C147.339 248.112 140.397 245.187 134.008 241.276L129.729 238.658C126.516 236.677 123.455 234.459 120.571 232.022C117.765 229.644 115.141 227.058 112.722 224.286C111.924 223.37 111.139 222.428 110.38 221.485C109.909 220.896 109.438 220.268 108.941 219.601L109.019 219.47L114.252 210.897C116.746 206.901 120.221 203.61 124.345 201.337C128.469 199.064 133.106 197.885 137.815 197.912H138.94C141.71 201.571 145.14 204.679 149.053 207.075L153.331 209.692C157.608 212.318 162.384 214.025 167.356 214.705C168.311 214.849 169.187 214.941 170.038 214.993C170.888 215.046 171.752 215.085 172.576 215.085C178.928 215.123 185.182 213.514 190.728 210.415C196.275 207.316 200.924 202.833 204.223 197.402L209.456 188.829L210.621 186.918L211.785 184.994L264.3 99.0127C269.406 90.6264 270.98 80.556 268.674 71.0107C266.369 61.4655 260.373 53.2249 252.002 48.0969L247.737 45.4792C239.353 40.3659 229.284 38.7896 219.74 41.0964C210.196 43.4031 201.957 49.4044 196.831 57.7827L145.193 142.35H144.788H144.147H143.807C142.289 142.245 140.798 142.18 139.398 142.154H136.977L134.073 142.232C132.765 142.298 131.456 142.389 130.148 142.507L128.016 142.73C126.459 142.913 124.876 143.148 123.201 143.449L122.796 143.515L121.487 143.751C120.323 143.973 119.302 144.196 118.334 144.431L117.994 144.523H117.824C115.822 145.02 113.834 145.583 111.911 146.198L110.485 146.682L110.275 146.761C108.745 147.298 107.253 147.86 105.827 148.449C105.16 148.724 104.519 149.012 103.812 149.313C102.661 149.811 101.614 150.308 100.594 150.805C99.5735 151.303 98.6839 151.774 97.7942 152.258C99.6224 146.818 102.077 141.608 105.108 136.735L165.184 38.3588C171.791 27.4533 181.107 18.4449 192.227 12.2106C203.346 5.97633 215.89 2.72847 228.636 2.78321M228.636 0.16543C215.45 0.146821 202.482 3.52434 190.98 9.97286C179.477 16.4214 169.828 25.7238 162.96 36.9845L102.87 135.374C98.673 142.266 95.5827 149.774 93.7124 157.625L97.9512 155.19C98.3176 154.981 98.697 154.811 99.0633 154.614C100.018 154.104 100.973 153.606 101.928 153.135C102.883 152.664 103.996 152.141 105.042 151.669C105.696 151.381 106.35 151.106 107.005 150.845C108.418 150.256 109.857 149.706 111.309 149.209L112.892 148.672C114.776 148.057 116.686 147.52 118.609 147.036L119.119 146.905C120.127 146.669 121.147 146.447 122.168 146.251L123.764 145.963C125.307 145.688 126.864 145.452 128.421 145.269L130.488 145.046C131.797 144.929 133.105 144.85 134.335 144.785L137.147 144.706H139.489C140.911 144.706 142.337 144.771 143.767 144.902C144.081 144.902 144.395 144.902 144.709 144.902C145.023 144.902 145.664 145.02 146.135 145.059H146.698L199.134 59.1701C203.89 51.3868 211.538 45.8093 220.4 43.6621C229.262 41.5149 238.614 42.9734 246.402 47.7174L250.68 50.3351C258.46 55.1 264.032 62.7586 266.174 71.6297C268.315 80.5009 266.851 89.8596 262.102 97.6515L209.6 183.632L208.436 185.543L207.285 187.441L202.051 196.028C198.967 201.06 194.64 205.214 189.487 208.091C184.334 210.967 178.529 212.47 172.628 212.454C171.843 212.454 171.058 212.428 170.273 212.376C169.436 212.31 168.599 212.218 167.774 212.101C163.14 211.472 158.685 209.89 154.692 207.454L150.427 204.836C146.447 202.407 143.013 199.181 140.34 195.36C139.502 195.295 138.665 195.242 137.815 195.242C132.603 195.211 127.472 196.53 122.921 199.071C118.37 201.613 114.554 205.29 111.845 209.745L106.612 218.318L105.618 219.928C106.429 221.08 107.266 222.218 108.156 223.331C109.045 224.444 109.739 225.268 110.563 226.224C113.089 229.095 115.827 231.772 118.753 234.234C121.746 236.763 124.93 239.056 128.277 241.093L132.555 243.71C135.9 245.763 139.4 247.553 143.022 249.064C146.546 250.541 150.176 251.753 153.88 252.689C155.097 252.99 156.327 253.265 157.557 253.514C159.31 253.867 161.076 254.129 162.79 254.365L164.216 254.509C165.132 254.613 166.061 254.692 166.989 254.757C168.415 254.862 169.841 254.914 171.281 254.941H173.57C174.748 254.941 175.925 254.875 177.102 254.81C178.28 254.744 179.196 254.666 180.242 254.561L181.917 254.365C183.565 254.155 185.201 253.907 186.823 253.606L187.87 253.396C193.021 252.351 198.053 250.785 202.889 248.723L203.124 248.619C204.869 247.86 206.613 247.035 208.357 246.145L209.443 245.569C211.223 244.6 212.963 243.579 214.676 242.48L215.357 242.035C216.246 241.433 217.136 240.831 217.973 240.203C219.534 239.059 221.043 237.864 222.5 236.616C228.675 231.338 233.974 225.113 238.199 218.174L298.289 119.798C303.553 111.179 307.068 101.607 308.634 91.6285C310.2 81.6502 309.786 71.461 307.416 61.6428C305.045 51.8245 300.765 42.5695 294.82 34.4062C288.874 26.2429 281.38 19.3313 272.764 14.0658L268.486 11.4481C256.45 4.05713 242.602 0.14727 228.479 0.152349L228.636 0.16543Z" fill="url(#paint4_linear_63_863)"/>
<path d="M137.933 151.329C140.431 151.329 142.956 151.46 145.429 151.709C156.451 152.811 167.082 156.39 176.527 162.18L180.805 164.798C188.925 169.748 196.011 176.224 201.672 183.868L201.607 183.986L196.374 192.559C193.891 196.623 190.399 199.975 186.238 202.289C182.077 204.603 177.389 205.801 172.628 205.766H171.503C168.733 202.107 165.303 199 161.39 196.604L157.112 193.986C152.823 191.355 148.033 189.648 143.048 188.973C142.093 188.829 141.216 188.737 140.431 188.685C139.646 188.633 138.718 188.593 137.893 188.593C131.541 188.555 125.287 190.164 119.741 193.263C114.195 196.362 109.545 200.845 106.246 206.276L101.013 214.85L99.8353 216.8L98.6709 218.698L46.1695 304.666C41.0651 313.051 39.4918 323.119 41.7946 332.663C44.0974 342.207 50.0883 350.449 58.4543 355.581L62.7323 358.199C71.1159 363.312 81.1848 364.889 90.7288 362.582C100.273 360.275 108.512 354.274 113.638 345.896L165.289 261.341H165.694H166.322H166.597C168.18 261.459 169.763 261.525 171.307 261.551H173.74C175.206 261.551 176.527 261.485 177.783 261.407C179.039 261.328 180.02 261.237 180.949 261.145L183.095 260.896C184.769 260.687 186.418 260.425 188.001 260.137L189.61 259.81L190.565 259.627C191.127 259.522 191.716 259.417 192.318 259.273C192.92 259.129 193.744 258.894 194.424 258.697L195.327 258.436H195.471L195.746 258.357C199.084 257.397 202.361 256.234 205.558 254.875L205.924 254.705L206.16 254.601C207.952 253.828 209.718 252.978 211.393 252.087L212.596 251.446C210.814 256.862 208.413 262.053 205.44 266.917L145.377 365.319C135.113 382.127 118.597 394.169 99.4601 398.796C80.3235 403.423 60.1337 400.256 43.3305 389.992L39.0524 387.374C22.2597 377.099 10.2312 360.574 5.6095 341.431C0.987831 322.288 4.1511 302.092 14.4043 285.281L74.4939 186.892C78.5825 180.187 83.7093 174.174 89.683 169.078C91.1352 167.847 92.5874 166.696 94.0265 165.648L94.8115 165.766L94.9293 164.994L96.3945 163.986L97.2711 163.423C109.388 155.543 123.533 151.355 137.985 151.368M137.985 148.751C123.03 148.754 108.395 153.086 95.8451 161.224L94.9685 161.8C94.1443 162.35 93.3201 162.913 92.522 163.502C92.365 164.47 92.2734 165.099 92.2211 165.361C92.2211 165.099 92.365 164.47 92.522 163.502C90.9608 164.645 89.4519 165.84 87.9954 167.088C81.8207 172.367 76.5218 178.591 72.2959 185.53L12.2064 283.907C6.94272 292.526 3.42751 302.098 1.86154 312.076C0.295578 322.054 0.709525 332.243 3.07973 342.062C5.44994 351.88 9.73001 361.135 15.6755 369.298C21.621 377.461 29.1155 384.373 37.7311 389.639L42.0091 392.256C59.3938 402.873 80.2802 406.151 100.079 401.371C119.878 396.59 136.971 384.141 147.601 366.759L207.69 268.37C211.9 261.433 214.991 253.875 216.848 245.975C215.645 246.76 214.441 247.506 213.237 248.2C212.649 248.54 212.034 248.841 211.432 249.169L210.124 249.849C208.436 250.726 206.735 251.538 205.008 252.297L204.42 252.559C201.326 253.876 198.154 254.999 194.921 255.923L194.516 256.04C193.548 256.315 192.58 256.616 191.598 256.852C190.617 257.087 189.858 257.192 188.982 257.375C188.459 257.498 187.935 257.602 187.412 257.69C185.829 257.991 184.246 258.226 182.663 258.423C181.969 258.514 181.276 258.606 180.583 258.671C179.562 258.776 178.542 258.868 177.521 258.92C176.213 259.011 174.905 259.051 173.596 259.064H171.228C169.711 259.064 168.193 258.972 166.662 258.868C166.375 258.868 166.074 258.868 165.773 258.868H165.341C165.066 258.868 164.779 258.868 164.504 258.868C164.229 258.868 164.007 258.802 163.758 258.776L111.361 344.508C106.601 352.294 98.9459 357.871 90.0778 360.014C81.2097 362.157 71.8542 360.689 64.0668 355.935L59.7887 353.317C52.0088 348.552 46.4366 340.893 44.2953 332.022C42.154 323.151 43.6185 313.792 48.3674 306.001L100.856 220.033L102.007 218.148L103.198 216.211L108.431 207.625C111.513 202.599 115.834 198.451 120.979 195.577C126.125 192.703 131.922 191.199 137.815 191.211C138.6 191.211 139.385 191.237 140.17 191.29C141.007 191.355 141.831 191.447 142.669 191.564C147.303 192.193 151.758 193.775 155.751 196.211L160.016 198.829C163.996 201.258 167.43 204.484 170.103 208.305C170.941 208.371 171.778 208.41 172.628 208.423C177.834 208.461 182.961 207.152 187.511 204.623C192.062 202.093 195.881 198.429 198.598 193.986L203.831 185.413L204.812 183.803C198.796 175.25 191.088 168.024 182.166 162.573L177.888 159.955C165.859 152.597 152.032 148.706 137.933 148.711L137.985 148.751Z" fill="url(#paint5_linear_63_863)"/>
<path d="M228.57 2.78321C242.21 2.79321 255.582 6.56583 267.217 13.6863L271.495 16.304C288.272 26.5939 300.286 43.1179 304.907 62.2549C309.527 81.3919 306.375 101.581 296.143 118.397L236.054 216.787C231.965 223.492 226.838 229.504 220.865 234.6C219.399 235.844 217.934 237.009 216.482 238.056C215.618 238.684 214.703 239.365 213.957 239.81L213.277 240.255C211.72 241.263 210.019 242.271 208.24 243.239L207.193 243.802C205.505 244.679 203.818 245.49 202.182 246.197H202.038H201.96C197.283 248.186 192.418 249.699 187.438 250.713H187.242L186.431 250.87C184.939 251.158 183.382 251.394 181.695 251.603H181.354L180.046 251.76C178.999 251.865 177.979 251.943 177.011 252.009C175.846 252.074 174.695 252.113 173.596 252.127H171.385C169.959 252.127 168.559 252.035 167.238 251.943C166.44 251.943 165.498 251.812 164.556 251.721L163.248 251.564C161.285 251.315 159.663 251.053 158.145 250.752C156.968 250.517 155.764 250.242 154.6 249.954C147.339 248.112 140.397 245.187 134.008 241.276L129.729 238.658C126.516 236.677 123.455 234.459 120.571 232.022C117.765 229.644 115.141 227.058 112.722 224.286C111.924 223.37 111.139 222.428 110.38 221.485C109.909 220.896 109.438 220.268 108.941 219.601L109.019 219.47L114.252 210.897C116.746 206.901 120.221 203.61 124.345 201.337C128.469 199.064 133.106 197.885 137.815 197.912H138.94C141.71 201.571 145.14 204.679 149.053 207.075L153.331 209.692C157.608 212.318 162.384 214.025 167.356 214.705C168.311 214.849 169.187 214.941 170.038 214.993C170.888 215.046 171.752 215.085 172.576 215.085C178.928 215.123 185.182 213.514 190.728 210.415C196.275 207.316 200.924 202.833 204.223 197.402L209.456 188.829L210.621 186.918L211.785 184.994L264.3 99.0127C269.406 90.6264 270.98 80.556 268.674 71.0107C266.369 61.4655 260.373 53.2249 252.002 48.0969L247.737 45.4792C239.353 40.3659 229.284 38.7896 219.74 41.0964C210.196 43.4031 201.957 49.4044 196.831 57.7827L145.193 142.35H144.788H144.147H143.807C142.289 142.245 140.798 142.18 139.398 142.154H136.977L134.073 142.232C132.765 142.298 131.456 142.389 130.148 142.507L128.016 142.73C126.459 142.913 124.876 143.148 123.201 143.449L122.796 143.515L121.487 143.751C120.323 143.973 119.302 144.196 118.334 144.431L117.994 144.523H117.824C115.822 145.02 113.834 145.583 111.911 146.198L110.485 146.682L110.275 146.761C108.745 147.298 107.253 147.86 105.827 148.449C105.16 148.724 104.519 149.012 103.812 149.313C102.661 149.811 101.614 150.308 100.594 150.805C99.5735 151.303 98.6839 151.774 97.7942 152.258C99.6224 146.818 102.077 141.608 105.108 136.735L165.184 38.3588C171.791 27.4533 181.107 18.4449 192.227 12.2106C203.346 5.97633 215.89 2.72847 228.636 2.78321M228.636 0.16543C215.45 0.146821 202.482 3.52434 190.98 9.97286C179.477 16.4214 169.828 25.7238 162.96 36.9845L102.87 135.374C98.673 142.266 95.5827 149.774 93.7124 157.625L97.9512 155.19C98.3176 154.981 98.697 154.811 99.0633 154.614C100.018 154.104 100.973 153.606 101.928 153.135C102.883 152.664 103.996 152.141 105.042 151.669C105.696 151.381 106.35 151.106 107.005 150.845C108.418 150.256 109.857 149.706 111.309 149.209L112.892 148.672C114.776 148.057 116.686 147.52 118.609 147.036L119.119 146.905C120.127 146.669 121.147 146.447 122.168 146.251L123.764 145.963C125.307 145.688 126.864 145.452 128.421 145.269L130.488 145.046C131.797 144.929 133.105 144.85 134.335 144.785L137.147 144.706H139.489C140.911 144.706 142.337 144.771 143.767 144.902C144.081 144.902 144.395 144.902 144.709 144.902C145.023 144.902 145.664 145.02 146.135 145.059H146.698L199.134 59.1701C203.89 51.3868 211.538 45.8093 220.4 43.6621C229.262 41.5149 238.614 42.9734 246.402 47.7174L250.68 50.3351C258.46 55.1 264.032 62.7586 266.174 71.6297C268.315 80.5009 266.851 89.8596 262.102 97.6515L209.6 183.632L208.436 185.543L207.285 187.441L202.051 196.028C198.967 201.06 194.64 205.214 189.487 208.091C184.334 210.967 178.529 212.47 172.628 212.454C171.843 212.454 171.058 212.428 170.273 212.376C169.436 212.31 168.599 212.218 167.774 212.101C163.14 211.472 158.685 209.89 154.692 207.454L150.427 204.836C146.447 202.407 143.013 199.181 140.34 195.36C139.502 195.295 138.665 195.242 137.815 195.242C132.603 195.211 127.472 196.53 122.921 199.071C118.37 201.613 114.554 205.29 111.845 209.745L106.612 218.318L105.618 219.928C106.429 221.08 107.266 222.218 108.156 223.331C109.045 224.444 109.739 225.268 110.563 226.224C113.089 229.095 115.827 231.772 118.753 234.234C121.746 236.763 124.93 239.056 128.277 241.093L132.555 243.71C135.9 245.763 139.4 247.553 143.022 249.064C146.546 250.541 150.176 251.753 153.88 252.689C155.097 252.99 156.327 253.265 157.557 253.514C159.31 253.867 161.076 254.129 162.79 254.365L164.216 254.509C165.132 254.613 166.061 254.692 166.989 254.757C168.415 254.862 169.841 254.914 171.281 254.941H173.57C174.748 254.941 175.925 254.875 177.102 254.81C178.28 254.744 179.196 254.666 180.242 254.561L181.917 254.365C183.565 254.155 185.201 253.907 186.823 253.606L187.87 253.396C193.021 252.351 198.053 250.785 202.889 248.723L203.124 248.619C204.869 247.86 206.613 247.035 208.357 246.145L209.443 245.569C211.223 244.6 212.963 243.579 214.676 242.48L215.357 242.035C216.246 241.433 217.136 240.831 217.973 240.203C219.534 239.059 221.043 237.864 222.5 236.616C228.675 231.338 233.974 225.113 238.199 218.174L298.289 119.798C303.553 111.179 307.068 101.607 308.634 91.6285C310.2 81.6502 309.786 71.461 307.416 61.6428C305.045 51.8245 300.765 42.5695 294.82 34.4062C288.874 26.2429 281.38 19.3313 272.764 14.0658L268.486 11.4481C256.45 4.05713 242.602 0.14727 228.479 0.152349L228.636 0.16543Z" fill="url(#paint6_linear_63_863)"/>
<path d="M137.933 151.329C140.431 151.329 142.956 151.46 145.429 151.709C156.451 152.811 167.082 156.39 176.527 162.18L180.805 164.798C188.925 169.748 196.011 176.224 201.672 183.868L201.607 183.986L196.374 192.559C193.891 196.623 190.399 199.975 186.238 202.289C182.077 204.603 177.389 205.801 172.628 205.766H171.503C168.733 202.107 165.303 199 161.39 196.604L157.112 193.986C152.823 191.355 148.033 189.648 143.048 188.973C142.093 188.829 141.216 188.737 140.431 188.685C139.646 188.633 138.718 188.593 137.893 188.593C131.541 188.555 125.287 190.164 119.741 193.263C114.195 196.362 109.545 200.845 106.246 206.276L101.013 214.85L99.8353 216.8L98.6709 218.698L46.1695 304.666C41.0651 313.051 39.4918 323.119 41.7946 332.663C44.0974 342.207 50.0883 350.449 58.4543 355.581L62.7323 358.199C71.1159 363.312 81.1848 364.889 90.7288 362.582C100.273 360.275 108.512 354.274 113.638 345.896L165.289 261.341H165.694H166.322H166.597C168.18 261.459 169.763 261.525 171.307 261.551H173.74C175.206 261.551 176.527 261.485 177.783 261.407C179.039 261.328 180.02 261.237 180.949 261.145L183.095 260.896C184.769 260.687 186.418 260.425 188.001 260.137L189.61 259.81L190.565 259.627C191.127 259.522 191.716 259.417 192.318 259.273C192.92 259.129 193.744 258.894 194.424 258.697L195.327 258.436H195.471L195.746 258.357C199.084 257.397 202.361 256.234 205.558 254.875L205.924 254.705L206.16 254.601C207.952 253.828 209.718 252.978 211.393 252.087L212.596 251.446C210.814 256.862 208.413 262.053 205.44 266.917L145.377 365.319C135.113 382.127 118.597 394.169 99.4601 398.796C80.3235 403.423 60.1337 400.256 43.3305 389.992L39.0524 387.374C22.2597 377.099 10.2312 360.574 5.6095 341.431C0.987831 322.288 4.1511 302.092 14.4043 285.281L74.4939 186.892C78.5825 180.187 83.7093 174.174 89.683 169.078C91.1352 167.847 92.5874 166.696 94.0265 165.648L94.8115 165.766L94.9293 164.994L96.3945 163.986L97.2711 163.423C109.388 155.543 123.533 151.355 137.985 151.368M137.985 148.751C123.03 148.754 108.395 153.086 95.8451 161.224L94.9685 161.8C94.1443 162.35 93.3201 162.913 92.522 163.502C92.365 164.47 92.2734 165.099 92.2211 165.361C92.2211 165.099 92.365 164.47 92.522 163.502C90.9608 164.645 89.4519 165.84 87.9954 167.088C81.8207 172.367 76.5218 178.591 72.2959 185.53L12.2064 283.907C6.94272 292.526 3.42751 302.098 1.86154 312.076C0.295578 322.054 0.709525 332.243 3.07973 342.062C5.44994 351.88 9.73001 361.135 15.6755 369.298C21.621 377.461 29.1155 384.373 37.7311 389.639L42.0091 392.256C59.3938 402.873 80.2802 406.151 100.079 401.371C119.878 396.59 136.971 384.141 147.601 366.759L207.69 268.37C211.9 261.433 214.991 253.875 216.848 245.975C215.645 246.76 214.441 247.506 213.237 248.2C212.649 248.54 212.034 248.841 211.432 249.169L210.124 249.849C208.436 250.726 206.735 251.538 205.008 252.297L204.42 252.559C201.326 253.876 198.154 254.999 194.921 255.923L194.516 256.04C193.548 256.315 192.58 256.616 191.598 256.852C190.617 257.087 189.858 257.192 188.982 257.375C188.459 257.498 187.935 257.602 187.412 257.69C185.829 257.991 184.246 258.226 182.663 258.423C181.969 258.514 181.276 258.606 180.583 258.671C179.562 258.776 178.542 258.868 177.521 258.92C176.213 259.011 174.905 259.051 173.596 259.064H171.228C169.711 259.064 168.193 258.972 166.662 258.868C166.375 258.868 166.074 258.868 165.773 258.868H165.341C165.066 258.868 164.779 258.868 164.504 258.868C164.229 258.868 164.007 258.802 163.758 258.776L111.361 344.508C106.601 352.294 98.9459 357.871 90.0778 360.014C81.2097 362.157 71.8542 360.689 64.0668 355.935L59.7887 353.317C52.0088 348.552 46.4366 340.893 44.2953 332.022C42.154 323.151 43.6185 313.792 48.3674 306.001L100.856 220.033L102.007 218.148L103.198 216.211L108.431 207.625C111.513 202.599 115.834 198.451 120.979 195.577C126.125 192.703 131.922 191.199 137.815 191.211C138.6 191.211 139.385 191.237 140.17 191.29C141.007 191.355 141.831 191.447 142.669 191.564C147.303 192.193 151.758 193.775 155.751 196.211L160.016 198.829C163.996 201.258 167.43 204.484 170.103 208.305C170.941 208.371 171.778 208.41 172.628 208.423C177.834 208.461 182.961 207.152 187.511 204.623C192.062 202.093 195.881 198.429 198.598 193.986L203.831 185.413L204.812 183.803C198.796 175.25 191.088 168.024 182.166 162.573L177.888 159.955C165.859 152.597 152.032 148.706 137.933 148.711L137.985 148.751Z" fill="url(#paint7_linear_63_863)"/>
<defs>
<linearGradient id="paint0_linear_63_863" x1="116.727" y1="34.8758" x2="312.302" y2="63.7511" gradientUnits="userSpaceOnUse">
<stop stop-color="#12A09E"/>
<stop offset="1" stop-color="#A81FE9"/>
</linearGradient>
<linearGradient id="paint1_linear_63_863" x1="-4.11888" y1="148.714" x2="333.903" y2="212.531" gradientUnits="userSpaceOnUse">
<stop stop-color="#12A09E"/>
<stop offset="1" stop-color="#A81FE9"/>
</linearGradient>
<linearGradient id="paint2_linear_63_863" x1="245.392" y1="0.177226" x2="292.284" y2="205.772" gradientUnits="userSpaceOnUse">
<stop stop-color="#2E89AC"/>
<stop offset="0.635417" stop-color="#6955C9"/>
<stop offset="1" stop-color="#8B38DA"/>
</linearGradient>
<linearGradient id="paint3_linear_63_863" x1="152.684" y1="148.714" x2="199.568" y2="354.334" gradientUnits="userSpaceOnUse">
<stop stop-color="#2E89AC"/>
<stop offset="0.635417" stop-color="#6955C9"/>
<stop offset="1" stop-color="#8B38DA"/>
</linearGradient>
<linearGradient id="paint4_linear_63_863" x1="88.7185" y1="0.152334" x2="426.492" y2="63.8718" gradientUnits="userSpaceOnUse">
<stop stop-color="#12A09E"/>
<stop offset="1" stop-color="#A81FE9"/>
</linearGradient>
<linearGradient id="paint5_linear_63_863" x1="-6.14882" y1="304.155" x2="220.667" y2="249.413" gradientUnits="userSpaceOnUse">
<stop stop-color="white"/>
<stop offset="0.33" stop-color="white" stop-opacity="0"/>
<stop offset="0.8" stop-color="white"/>
<stop offset="1" stop-color="white" stop-opacity="0"/>
</linearGradient>
<linearGradient id="paint6_linear_63_863" x1="116.783" y1="34.8542" x2="312.286" y2="63.7047" gradientUnits="userSpaceOnUse">
<stop stop-color="#12A09E"/>
<stop offset="1" stop-color="#A81FE9"/>
</linearGradient>
<linearGradient id="paint7_linear_63_863" x1="24.0088" y1="183.416" x2="219.569" y2="212.281" gradientUnits="userSpaceOnUse">
<stop stop-color="#12A09E"/>
<stop offset="1" stop-color="#A81FE9"/>
</linearGradient>
</defs>
</svg>
