<svg width="347" height="460" viewBox="0 0 347 460" fill="none" xmlns="http://www.w3.org/2000/svg">
<path d="M60.9717 323.463V69.366L120.993 34.7385L97.9887 52.032L83.6112 62.886L72.5547 71.1885L66.6822 75.603L66.3176 90.7905L65.6697 118.614L65.0622 145.506L64.4141 174.139L64.0901 188.314L63.8067 200.262L63.3612 218.649L62.9561 237.4L62.3487 262.753L61.6602 292.723L60.9717 323.463Z" fill="url(#paint0_linear_63_725)"/>
<path d="M60.9722 69.366L0.951172 34.7385V288.835L2.3687 204.96L3.09767 163.893L3.7052 128.577L4.19118 98.7285L4.43417 85.323L4.8392 61.104L5.12267 44.2965L21.9302 51.87L34.7687 57.621L60.9722 69.366Z" fill="url(#paint1_linear_63_725)"/>
<path d="M12.0077 33.726L25.8587 24.2085L40.2362 14.3266L60.9722 0.0705566L0.951172 34.7385L60.9722 69.366L38.3327 52.8825L21.1607 40.368L12.0077 33.726Z" fill="url(#paint2_linear_63_725)"/>
<path d="M60.9717 323.463V69.366L120.993 34.7385L101.998 55.2315L83.6112 62.886L81.1002 71.5935L69.5172 77.5875L71.8662 91.2765L65.6697 118.614L69.7602 144.453L64.4141 174.139L68.6667 187.788L63.8067 200.262L67.4516 218.932L62.9561 237.4L67.2087 262.915L61.6602 292.723L60.9717 323.463Z" fill="url(#paint3_linear_63_725)"/>
<path d="M60.9722 69.366L0.951172 34.7385V288.835L2.3687 204.96L6.98569 163.407L3.7052 128.577L8.16017 98.445L4.43417 85.323L9.21321 60.7395L9.73966 49.764L21.9302 51.87L32.8247 62.886L60.9722 69.366Z" fill="url(#paint4_linear_63_725)"/>
<path d="M12.0077 33.726L29.7062 25.707L40.2362 14.3266L60.9722 0.0705566L0.951172 34.7385L60.9722 69.366L38.3327 52.8825L24.8462 37.3305L12.0077 33.726Z" fill="url(#paint5_linear_63_725)"/>
<path d="M60.9717 323.463V69.366L120.993 34.7385L101.998 55.2315L100.419 73.1325L81.1002 71.5935L87.4587 82.6095L71.8662 91.2765L83.6112 125.053L69.7602 144.453L82.3151 180.579L68.6667 187.788L81.7077 206.661L67.4516 218.932L80.8572 243.799L67.2087 262.915L89.0787 307.222L60.9717 323.463Z" fill="url(#paint6_linear_63_725)"/>
<path d="M60.9722 69.366L0.951172 34.7385V288.835L16.9487 216.259L6.98569 163.407L18.2447 139.917L8.16017 98.445L18.9737 96.6225L9.21321 60.7395L18.4472 60.456L21.9302 51.87L60.9722 81.597V69.366Z" fill="url(#paint7_linear_63_725)"/>
<path d="M30.9617 33.645L29.7062 25.707L59.2307 14.2456L60.9722 0.0705566L0.951172 34.7385L60.9722 69.366L47.2022 50.2095L24.8462 37.3305L30.9617 33.645Z" fill="url(#paint8_linear_63_725)"/>
<path d="M171.577 397.497V201.598L231.598 174.909L208.635 188.233L194.217 196.576L183.201 203.016L177.288 206.418L176.923 218.122L176.316 239.587L175.708 260.323L175.02 282.396L174.696 293.331L174.412 302.524L174.007 316.699L173.562 331.158L172.995 350.679L172.306 373.804L171.577 397.497Z" fill="url(#paint9_linear_63_725)"/>
<path d="M171.577 196.86L111.597 169.482V370.119L113.014 303.901L113.703 271.501L114.31 243.597L114.837 220.026L115.039 209.415L115.485 190.299L115.768 177.055L132.576 183.009L145.374 187.545L171.577 196.86Z" fill="url(#paint10_linear_63_725)"/>
<path d="M122.613 168.712L136.464 161.179L150.882 153.363L171.577 142.144L111.597 169.482L171.577 196.86L148.938 183.819L131.766 173.977L122.613 168.712Z" fill="url(#paint11_linear_63_725)"/>
<path d="M171.577 397.497V201.598L231.598 174.909L212.604 190.704L194.217 196.576L191.746 203.34L180.123 207.957L182.472 218.487L176.316 239.587L180.406 259.513L175.02 282.396L179.272 292.885L174.412 302.524L178.057 316.902L173.562 331.158L177.814 350.841L172.306 373.804L171.577 397.497Z" fill="url(#paint12_linear_63_725)"/>
<path d="M171.577 196.86L111.597 169.482V370.119L113.014 303.901L117.631 271.096L114.31 243.597L118.765 219.823L115.039 209.415L119.859 190.056L120.345 181.389L132.576 183.009L143.47 191.716L171.577 196.86Z" fill="url(#paint13_linear_63_725)"/>
<path d="M122.613 168.712L140.311 162.354L150.882 153.363L171.577 142.144L111.597 169.482L171.577 196.86L148.938 183.819L135.492 171.547L122.613 168.712Z" fill="url(#paint14_linear_63_725)"/>
<path d="M171.577 397.497V201.598L231.598 174.909L212.604 190.704L211.065 204.514L191.746 203.34L198.064 211.804L182.472 218.487L194.217 244.528L180.406 259.513L192.921 287.337L179.272 292.885L192.354 307.465L178.057 316.902L191.463 336.099L177.814 350.841L199.684 384.982L171.577 397.497Z" fill="url(#paint15_linear_63_725)"/>
<path d="M171.577 196.86L111.597 169.482V370.119L127.554 312.852L117.631 271.096L128.89 252.547L118.765 219.823L129.619 218.365L119.859 190.056L129.052 189.813L132.576 183.009L171.577 206.499V196.86Z" fill="url(#paint16_linear_63_725)"/>
<path d="M141.567 168.631L140.311 162.354L169.836 153.322L171.577 142.144L111.597 169.482L171.577 196.86L157.807 181.713L135.492 171.547L141.567 168.631Z" fill="url(#paint17_linear_63_725)"/>
<path d="M309.399 345.171L298.343 351.61L292.43 355.012L292.106 366.717L291.458 388.182L290.85 408.918L290.162 430.99L289.838 441.925L289.595 451.119L289.352 458.166L288.38 458.692C287.802 459.014 287.259 459.394 286.76 459.826V350.233L346.74 323.503L323.777 336.828L309.399 345.171Z" fill="url(#paint18_linear_63_725)"/>
<path d="M247.798 331.603L230.991 325.65L230.707 338.893L230.262 358.009L230.059 368.661L229.533 392.191L228.925 420.096V425.118L226.9 423.943V318.076L286.921 345.454L260.799 336.139L247.798 331.603Z" fill="url(#paint19_linear_63_725)"/>
<path d="M237.835 317.307L251.686 309.774L266.104 301.957L286.84 290.739L226.819 318.076L286.84 345.454L264.201 332.454L246.988 322.572L237.835 317.307Z" fill="url(#paint20_linear_63_725)"/>
<path d="M306.969 351.934L295.346 356.551L297.695 367.081L291.539 388.182L295.589 408.108L290.202 430.99L294.252 441.48L289.433 451.119L290.85 456.829C290.283 457.234 289.716 457.72 289.19 458.166L288.218 458.692C287.64 459.014 287.097 459.394 286.598 459.826V350.233L346.578 323.503L327.584 339.298L309.399 345.171L306.969 351.934Z" fill="url(#paint21_linear_63_725)"/>
<path d="M247.798 331.603L235.648 329.983L235.162 338.65L230.343 358.009L234.109 368.418L229.614 392.191L232.935 419.691L231.841 427.345C230.324 426.034 228.667 424.893 226.9 423.943V318.076L286.921 345.454L258.571 340.351L247.798 331.603Z" fill="url(#paint22_linear_63_725)"/>
<path d="M237.835 317.307L255.534 310.989L266.104 301.957L286.84 290.739L226.819 318.076L286.84 345.454L264.201 332.454L250.714 320.142L237.835 317.307Z" fill="url(#paint23_linear_63_725)"/>
<path d="M313.449 360.399L297.857 367.081L309.602 393.123L295.791 408.108L308.346 435.931L294.657 441.48L303.041 450.795C298.094 452.286 293.513 454.797 289.595 458.166L288.623 458.692C288.045 459.014 287.502 459.394 287.003 459.826V350.233L346.983 323.503L327.989 339.298L326.288 353.271L306.969 352.096L313.449 360.399Z" fill="url(#paint24_linear_63_725)"/>
<path d="M244.275 338.407L235.082 338.65L244.842 367L234.029 368.458L244.113 401.182L232.854 419.731L235.284 429.978L234.515 429.492L233.826 429.127C231.738 427.187 229.427 425.501 226.941 424.105V318.076L286.962 345.454V355.093L247.92 331.603L244.275 338.407Z" fill="url(#paint25_linear_63_725)"/>
<path d="M256.83 317.226L255.534 310.989L285.099 301.917L286.84 290.739L226.819 318.076L286.84 345.454L273.03 330.307L250.714 320.142L256.83 317.226Z" fill="url(#paint26_linear_63_725)"/>
<path d="M60.972 323.463C60.972 324.921 0.950961 288.835 0.950961 288.835L0.626953 260.89L6.90447 286.486L18.69 289.402L25.6154 297.502L39.6285 303.618V307.668L52.2645 313.864L60.972 323.463Z" fill="url(#paint27_linear_63_725)"/>
<path d="M60.9717 0.0705566L85.5551 14.2861L120.993 34.7385L120.304 162.84L120.223 171.79L111.597 176.772L111.111 296.935L60.9717 323.463L107.709 295.113L108.316 271.623L102.93 258.946L108.316 248.335L100.986 232.986L108.316 221.686L103.942 205.648L107.506 194.673L105.846 185.722L109.167 178.23L110.827 171.547L115.809 170.332V142.144L112.933 130.156L116.862 120.396L118.32 113.106L112.569 104.277L117.712 94.5975L118.32 88.7655L111.597 81.6375L117.267 71.715L115.606 61.104L113.136 59.241L119.17 50.493L113.743 43.6485L117.51 39.477L100.014 28.9065L94.6272 20.766L76.7262 12.2206L67.6137 14.5696L66.9252 10.1551L60.9717 0.0705566Z" fill="url(#paint28_linear_63_725)"/>
<path d="M171.699 142.144L231.599 175.071V315.889L226.82 318.076L226.293 359.71L199.685 384.982L171.699 397.497L195.392 382.35L201.71 375.748L205.112 368.58L210.903 362.707L218.274 357.888L220.866 356.349L222.324 347.317L223.094 337.435L216.249 329.862L220.299 323.463L229.493 302.16L221.393 290.739L226.455 281.14L223.418 266.884L229.128 258.784L222.243 247.971L228.399 238.291L226.82 231.771L222.203 226.789L226.82 217.596L224.349 212.574L221.474 207.471L226.82 199.371L224.349 192.567L223.782 183.819L216.816 175.071L212.199 172.722L214.872 170.292L208.149 168.226L201.588 164.176L192.921 157.291C192.921 157.291 189.479 150.892 186.563 155.955C183.647 161.017 186.239 164.338 183.647 160.977L181.055 157.615L171.699 142.144Z" fill="url(#paint29_linear_63_725)"/>
<path d="M226.819 423.943L286.84 459.826L345.849 425.077L344.755 321.154L284.572 284.866L247.272 308.761L277.282 291.427L286.314 289.321L299.193 298.757L311.991 305.521L306.766 308.558L314.623 311.555L321.711 320.344L330.58 318.076L332.808 325.123L342.285 337.88L342.973 343.591L341.394 348.208L343.257 354.85L340.584 358.819L339.409 366.473L340.908 375.383L337.83 390.49L341.151 392.96L344.026 405.677L339.814 414.182L338.64 422.08L336.615 423.943L327.664 430.909L311.667 439.252L307.455 441.641L303.891 441.358L301.947 445.489L293.563 451.28L288.298 454.439L283.276 452.333L269.02 443.261L261.082 435.283L252.375 434.635L246.3 425.887L240.103 426.17L237.147 421.067L226.819 423.943Z" fill="url(#paint30_linear_63_725)"/>
<path d="M171.699 142.144L231.599 175.071V315.889L226.82 318.076L226.293 359.71L199.685 384.982L171.699 397.497L195.392 382.35L201.71 375.748L205.112 368.58L210.903 362.707L218.274 357.888L220.866 356.349L222.324 347.317L223.094 337.435L216.249 329.862L220.299 323.463L229.493 302.16L221.393 290.739L226.455 281.14L223.418 266.884L229.128 258.784L222.243 247.971L228.399 238.291L226.82 231.771L222.203 226.789L226.82 217.596L224.349 212.574L221.474 207.471L226.82 199.371L224.349 192.567L223.782 183.819L216.816 175.071L212.199 172.722L214.872 170.292L208.149 168.226L201.588 164.176L192.921 157.291C192.921 157.291 189.479 150.892 186.563 155.955C183.647 161.017 186.239 164.338 183.647 160.977L181.055 157.615L171.699 142.144Z" fill="url(#paint31_linear_63_725)"/>
<path d="M226.819 423.943L286.84 459.826L345.849 425.077L344.755 321.154L284.572 284.866L247.272 308.761L277.282 291.427L286.314 289.321L299.193 298.757L311.991 305.521L306.766 308.558L314.623 311.555L321.711 320.344L330.58 318.076L332.808 325.123L342.285 337.88L342.973 343.591L341.394 348.208L343.257 354.85L340.584 358.819L339.409 366.473L340.908 375.383L337.83 390.49L341.151 392.96L344.026 405.677L339.814 414.182L338.64 422.08L336.615 423.943L327.664 430.909L311.667 439.252L307.455 441.641L303.891 441.358L301.947 445.489L293.563 451.28L288.298 454.439L283.276 452.333L269.02 443.261L261.082 435.283L252.375 434.635L246.3 425.887L240.103 426.17L237.147 421.067L226.819 423.943Z" fill="url(#paint32_linear_63_725)"/>
<path d="M226.819 423.943L286.84 459.826L345.849 425.077L344.755 321.154L284.572 284.866L247.272 308.761L277.282 291.427L286.314 289.321L299.193 298.757L311.991 305.521L306.766 308.558L314.623 311.555L321.711 320.344L330.58 318.076L332.808 325.123L342.285 337.88L342.973 343.591L341.394 348.208L343.257 354.85L340.584 358.819L339.409 366.473L340.908 375.383L337.83 390.49L341.151 392.96L344.026 405.677L339.814 414.182L338.64 422.08L336.615 423.943L327.664 430.909L311.667 439.252L307.455 441.641L303.891 441.358L301.947 445.489L293.563 451.28L288.298 454.439L283.276 452.333L269.02 443.261L261.082 435.283L252.375 434.635L246.3 425.887L240.103 426.17L237.147 421.067L226.819 423.943Z" fill="url(#paint33_linear_63_725)"/>
<path d="M111.596 370.119L171.577 397.497L226.819 358.495L213.373 363.841L204.584 367.122L192.677 374.007L188.182 380.041L178.583 385.306L169.39 385.914L165.097 391.665L156.47 382.431L148.897 381.418L135.005 375.1L119.818 364.246L117.023 358.495L121.883 353.959L117.185 350.071L123.098 341.607L118.4 336.058L118.198 332.94L118.805 321.195L114.877 311.637L110.584 320.425L111.596 370.119Z" fill="url(#paint34_linear_63_725)"/>
<path d="M111.596 370.119L171.577 397.497L226.819 358.495L213.373 363.841L204.584 367.122L192.677 374.007L188.182 380.041L178.583 385.306L169.39 385.914L165.097 391.665L156.47 382.431L148.897 381.418L135.005 375.1L119.818 364.246L117.023 358.495L121.883 353.959L117.185 350.071L123.098 341.607L118.4 336.058L118.198 332.94L118.805 321.195L114.877 311.637L110.584 320.425L111.596 370.119Z" fill="url(#paint35_linear_63_725)"/>
<path d="M111.596 370.119L171.577 397.497L226.819 358.495L213.373 363.841L204.584 367.122L192.677 374.007L188.182 380.041L178.583 385.306L169.39 385.914L165.097 391.665L156.47 382.431L148.897 381.418L135.005 375.1L119.818 364.246L117.023 358.495L121.883 353.959L117.185 350.071L123.098 341.607L118.4 336.058L118.198 332.94L118.805 321.195L114.877 311.637L110.584 320.425L111.596 370.119Z" fill="url(#paint36_linear_63_725)"/>
<path d="M111.597 295.396L90.9827 307.587L60.9722 323.463L0.951172 288.835V222.901L1.92319 240.681L4.8392 257.488L2.49019 268.261L8.36268 279.196L12.2507 286.203L21.0392 292.197L38.0492 301.674L46.0682 310.462L57.6107 315.363L61.7012 313.014L57.8132 250.482L60.9722 242.422L56.2742 229.908L57.8941 218.001L60.9722 220.755L62.8757 286.203L64.4552 305.764L66.3992 313.783L72.7172 311.637L72.8387 304.428L81.0602 303.051L89.0792 300.702L101.351 294.06L99.0422 290.334L106.616 288.835L106.494 282.112L105.644 272.595L110.585 262.51L111.759 272.149L111.597 295.396Z" fill="url(#paint37_linear_63_725)"/>
<path d="M111.597 295.396L90.9827 307.587L60.9722 323.463L0.951172 288.835V222.901L1.92319 240.681L4.8392 257.488L2.49019 268.261L8.36268 279.196L12.2507 286.203L21.0392 292.197L38.0492 301.674L46.0682 310.462L57.6107 315.363L61.7012 313.014L57.8132 250.482L60.9722 242.422L56.2742 229.908L57.8941 218.001L60.9722 220.755L62.8757 286.203L64.4552 305.764L66.3992 313.783L72.7172 311.637L72.8387 304.428L81.0602 303.051L89.0792 300.702L101.351 294.06L99.0422 290.334L106.616 288.835L106.494 282.112L105.644 272.595L110.585 262.51L111.759 272.149L111.597 295.396Z" fill="url(#paint38_linear_63_725)"/>
<defs>
<linearGradient id="paint0_linear_63_725" x1="67.3868" y1="74.0625" x2="122.861" y2="76.0712" gradientUnits="userSpaceOnUse">
<stop stop-color="#12A09E"/>
<stop offset="1" stop-color="#A81FE9"/>
</linearGradient>
<linearGradient id="paint1_linear_63_725" x1="7.36634" y1="69.3463" x2="62.819" y2="71.6279" gradientUnits="userSpaceOnUse">
<stop stop-color="#12A09E"/>
<stop offset="1" stop-color="#A81FE9"/>
</linearGradient>
<linearGradient id="paint2_linear_63_725" x1="7.36634" y1="9.50853" x2="61.6765" y2="17.7027" gradientUnits="userSpaceOnUse">
<stop stop-color="#12A09E"/>
<stop offset="1" stop-color="#A81FE9"/>
</linearGradient>
<linearGradient id="paint3_linear_63_725" x1="67.3868" y1="74.0625" x2="122.861" y2="76.0712" gradientUnits="userSpaceOnUse">
<stop stop-color="#12A09E"/>
<stop offset="1" stop-color="#A81FE9"/>
</linearGradient>
<linearGradient id="paint4_linear_63_725" x1="7.36634" y1="69.3463" x2="62.819" y2="71.6279" gradientUnits="userSpaceOnUse">
<stop stop-color="#12A09E"/>
<stop offset="1" stop-color="#A81FE9"/>
</linearGradient>
<linearGradient id="paint5_linear_63_725" x1="7.36634" y1="9.50853" x2="61.6765" y2="17.7027" gradientUnits="userSpaceOnUse">
<stop stop-color="#12A09E"/>
<stop offset="1" stop-color="#A81FE9"/>
</linearGradient>
<linearGradient id="paint6_linear_63_725" x1="59.5831" y1="34.7385" x2="134.475" y2="38.0205" gradientUnits="userSpaceOnUse">
<stop stop-color="#9747FF"/>
<stop offset="1" stop-color="#0865FB"/>
</linearGradient>
<linearGradient id="paint7_linear_63_725" x1="-0.437448" y1="34.7385" x2="74.4124" y2="38.4657" gradientUnits="userSpaceOnUse">
<stop stop-color="#9747FF"/>
<stop offset="1" stop-color="#0865FB"/>
</linearGradient>
<linearGradient id="paint8_linear_63_725" x1="-0.437448" y1="0.0705527" x2="72.177" y2="13.3296" gradientUnits="userSpaceOnUse">
<stop stop-color="#9747FF"/>
<stop offset="1" stop-color="#0865FB"/>
</linearGradient>
<linearGradient id="paint9_linear_63_725" x1="177.992" y1="205.225" x2="233.416" y2="207.828" gradientUnits="userSpaceOnUse">
<stop stop-color="#12A09E"/>
<stop offset="1" stop-color="#A81FE9"/>
</linearGradient>
<linearGradient id="paint10_linear_63_725" x1="118.008" y1="196.808" x2="173.366" y2="199.691" gradientUnits="userSpaceOnUse">
<stop stop-color="#12A09E"/>
<stop offset="1" stop-color="#A81FE9"/>
</linearGradient>
<linearGradient id="paint11_linear_63_725" x1="118.008" y1="149.596" x2="171.564" y2="159.823" gradientUnits="userSpaceOnUse">
<stop stop-color="#12A09E"/>
<stop offset="1" stop-color="#A81FE9"/>
</linearGradient>
<linearGradient id="paint12_linear_63_725" x1="177.992" y1="205.225" x2="233.416" y2="207.828" gradientUnits="userSpaceOnUse">
<stop stop-color="#12A09E"/>
<stop offset="1" stop-color="#A81FE9"/>
</linearGradient>
<linearGradient id="paint13_linear_63_725" x1="118.008" y1="196.808" x2="173.366" y2="199.691" gradientUnits="userSpaceOnUse">
<stop stop-color="#12A09E"/>
<stop offset="1" stop-color="#A81FE9"/>
</linearGradient>
<linearGradient id="paint14_linear_63_725" x1="118.008" y1="149.596" x2="171.564" y2="159.823" gradientUnits="userSpaceOnUse">
<stop stop-color="#12A09E"/>
<stop offset="1" stop-color="#A81FE9"/>
</linearGradient>
<linearGradient id="paint15_linear_63_725" x1="170.189" y1="174.909" x2="244.982" y2="179.161" gradientUnits="userSpaceOnUse">
<stop stop-color="#9747FF"/>
<stop offset="1" stop-color="#0865FB"/>
</linearGradient>
<linearGradient id="paint16_linear_63_725" x1="123.43" y1="46.1163" x2="226.74" y2="88.3304" gradientUnits="userSpaceOnUse">
<stop stop-color="#12A09E"/>
<stop offset="0.559028" stop-color="#A81FE9"/>
<stop offset="1" stop-color="#A81FE9"/>
</linearGradient>
<linearGradient id="paint17_linear_63_725" x1="110.209" y1="142.144" x2="181.392" y2="158.594" gradientUnits="userSpaceOnUse">
<stop stop-color="#9747FF"/>
<stop offset="1" stop-color="#0865FB"/>
</linearGradient>
<linearGradient id="paint18_linear_63_725" x1="293.171" y1="342.07" x2="348.355" y2="346.3" gradientUnits="userSpaceOnUse">
<stop stop-color="#12A09E"/>
<stop offset="1" stop-color="#A81FE9"/>
</linearGradient>
<linearGradient id="paint19_linear_63_725" x1="233.316" y1="332.655" x2="288.337" y2="338.029" gradientUnits="userSpaceOnUse">
<stop stop-color="#12A09E"/>
<stop offset="1" stop-color="#A81FE9"/>
</linearGradient>
<linearGradient id="paint20_linear_63_725" x1="233.235" y1="298.191" x2="286.824" y2="308.431" gradientUnits="userSpaceOnUse">
<stop stop-color="#12A09E"/>
<stop offset="1" stop-color="#A81FE9"/>
</linearGradient>
<linearGradient id="paint21_linear_63_725" x1="293.008" y1="342.07" x2="348.193" y2="346.3" gradientUnits="userSpaceOnUse">
<stop stop-color="#12A09E"/>
<stop offset="1" stop-color="#A81FE9"/>
</linearGradient>
<linearGradient id="paint22_linear_63_725" x1="233.316" y1="332.958" x2="288.358" y2="338.225" gradientUnits="userSpaceOnUse">
<stop stop-color="#12A09E"/>
<stop offset="1" stop-color="#A81FE9"/>
</linearGradient>
<linearGradient id="paint23_linear_63_725" x1="233.235" y1="298.191" x2="286.824" y2="308.431" gradientUnits="userSpaceOnUse">
<stop stop-color="#12A09E"/>
<stop offset="1" stop-color="#A81FE9"/>
</linearGradient>
<linearGradient id="paint24_linear_63_725" x1="285.615" y1="323.503" x2="359.96" y2="330.399" gradientUnits="userSpaceOnUse">
<stop stop-color="#9747FF"/>
<stop offset="1" stop-color="#0865FB"/>
</linearGradient>
<linearGradient id="paint25_linear_63_725" x1="225.553" y1="318.076" x2="299.641" y2="326.454" gradientUnits="userSpaceOnUse">
<stop stop-color="#9747FF"/>
<stop offset="1" stop-color="#0865FB"/>
</linearGradient>
<linearGradient id="paint26_linear_63_725" x1="225.431" y1="290.739" x2="296.657" y2="307.21" gradientUnits="userSpaceOnUse">
<stop stop-color="#9747FF"/>
<stop offset="1" stop-color="#0865FB"/>
</linearGradient>
<linearGradient id="paint27_linear_63_725" x1="7.07675" y1="269.419" x2="61.3924" y2="278.537" gradientUnits="userSpaceOnUse">
<stop stop-color="#12A09E"/>
<stop offset="1" stop-color="#A81FE9"/>
</linearGradient>
<linearGradient id="paint28_linear_63_725" x1="72.8127" y1="-198.774" x2="179.592" y2="-186.201" gradientUnits="userSpaceOnUse">
<stop stop-color="#A81FE9"/>
<stop offset="0.220486" stop-color="#12A09E" stop-opacity="0.42"/>
<stop offset="1" stop-color="#A81FE9"/>
</linearGradient>
<linearGradient id="paint29_linear_63_725" x1="178.101" y1="176.923" x2="233.443" y2="179.184" gradientUnits="userSpaceOnUse">
<stop stop-color="#12A09E"/>
<stop offset="1" stop-color="#A81FE9"/>
</linearGradient>
<linearGradient id="paint30_linear_63_725" x1="239.541" y1="308.695" x2="348.172" y2="321.569" gradientUnits="userSpaceOnUse">
<stop stop-color="#12A09E"/>
<stop offset="1" stop-color="#A81FE9"/>
</linearGradient>
<linearGradient id="paint31_linear_63_725" x1="183.516" y1="-14.8642" x2="292.69" y2="20.1396" gradientUnits="userSpaceOnUse">
<stop stop-color="#12A09E"/>
<stop offset="0.559028" stop-color="#A81FE9"/>
<stop offset="1" stop-color="#A81FE9"/>
</linearGradient>
<linearGradient id="paint32_linear_63_725" x1="239.541" y1="308.695" x2="348.172" y2="321.569" gradientUnits="userSpaceOnUse">
<stop stop-color="#12A09E"/>
<stop offset="1" stop-color="#A81FE9"/>
</linearGradient>
<linearGradient id="paint33_linear_63_725" x1="245.558" y1="223.909" x2="353.077" y2="323.453" gradientUnits="userSpaceOnUse">
<stop stop-color="#12A09E"/>
<stop offset="1" stop-color="#A81FE9"/>
</linearGradient>
<linearGradient id="paint34_linear_63_725" x1="123.007" y1="323.331" x2="224.911" y2="347.361" gradientUnits="userSpaceOnUse">
<stop stop-color="#12A09E"/>
<stop offset="1" stop-color="#A81FE9"/>
</linearGradient>
<linearGradient id="paint35_linear_63_725" x1="128.883" y1="281.722" x2="173.259" y2="363.477" gradientUnits="userSpaceOnUse">
<stop stop-color="#12A09E"/>
<stop offset="1" stop-color="#A81FE9"/>
</linearGradient>
<linearGradient id="paint36_linear_63_725" x1="128.883" y1="281.722" x2="173.259" y2="363.477" gradientUnits="userSpaceOnUse">
<stop stop-color="#12A09E"/>
<stop offset="1" stop-color="#A81FE9"/>
</linearGradient>
<linearGradient id="paint37_linear_63_725" x1="12.7946" y1="232.365" x2="112.018" y2="250.525" gradientUnits="userSpaceOnUse">
<stop stop-color="#12A09E"/>
<stop offset="1" stop-color="#A81FE9"/>
</linearGradient>
<linearGradient id="paint38_linear_63_725" x1="18.3955" y1="181.257" x2="79.4532" y2="268.561" gradientUnits="userSpaceOnUse">
<stop stop-color="#12A09E"/>
<stop offset="1" stop-color="#A81FE9"/>
</linearGradient>
</defs>
</svg>
