<svg width="119" height="119" viewBox="0 0 119 119" fill="none" xmlns="http://www.w3.org/2000/svg">
<path d="M54.5879 66.9554L66.5462 59.0804L54.5879 51.2054V66.9554ZM58.8587 76.5804C56.4955 76.5804 54.2747 76.1207 52.1962 75.2014C50.1178 74.2832 48.3098 73.0366 46.7723 71.4616C45.2348 69.8866 44.0179 68.0346 43.1216 65.9054C42.2241 63.7762 41.7754 61.5012 41.7754 59.0804C41.7754 56.6596 42.2241 54.3846 43.1216 52.2554C44.0179 50.1262 45.2348 48.2741 46.7723 46.6991C48.3098 45.1241 50.1178 43.877 52.1962 42.9576C54.2747 42.0395 56.4955 41.5804 58.8587 41.5804C61.2219 41.5804 63.4428 42.0395 65.5212 42.9576C67.5997 43.877 69.4077 45.1241 70.9452 46.6991C72.4827 48.2741 73.6996 50.1262 74.5959 52.2554C75.4933 54.3846 75.9421 56.6596 75.9421 59.0804C75.9421 61.5012 75.4933 63.7762 74.5959 65.9054C73.6996 68.0346 72.4827 69.8866 70.9452 71.4616C69.4077 73.0366 67.5997 74.2832 65.5212 75.2014C63.4428 76.1207 61.2219 76.5804 58.8587 76.5804Z" fill="#FFFBFF"/>
<g opacity="0.7">
<path d="M100.592 96.0073L95.8544 89.5905L96.4561 88.7693L102.108 90.6102C102.225 90.6429 102.356 90.6934 102.503 90.7617C102.395 90.6343 102.307 90.5239 102.24 90.4306L98.7942 85.5786L99.3929 84.7617L106.939 87.3462L106.381 88.1075C106.323 88.1874 106.253 88.2397 106.174 88.2647C106.097 88.2917 106.02 88.2897 105.941 88.2588L100.944 86.4572C100.848 86.4215 100.746 86.3778 100.639 86.3259C100.531 86.2769 100.418 86.2248 100.3 86.1696C100.388 86.2647 100.472 86.3568 100.552 86.4457C100.629 86.5375 100.697 86.6268 100.756 86.7139L103.851 91.1116C103.895 91.1705 103.919 91.2427 103.922 91.3282C103.923 91.4166 103.896 91.4993 103.839 91.5763L103.648 91.8372C103.59 91.917 103.521 91.968 103.444 91.99C103.366 92.0121 103.288 92.0116 103.208 91.9884L98.0859 90.358C97.8914 90.2944 97.6798 90.2094 97.4509 90.1031C97.6226 90.2814 97.7737 90.4491 97.9041 90.606L101.124 94.8327C101.171 94.8887 101.195 94.9609 101.196 95.0493C101.197 95.1377 101.169 95.2203 101.112 95.2973L100.592 96.0073Z" fill="#FFFBFF"/>
<path d="M90.8283 97.8274C91.1395 97.544 91.3896 97.2871 91.5787 97.0565C91.7701 96.8287 91.9083 96.6229 91.9933 96.4391C92.0783 96.2554 92.114 96.0928 92.1003 95.9512C92.0889 95.8124 92.0374 95.6891 91.9457 95.5814C91.8587 95.4791 91.7669 95.404 91.6705 95.3562C91.5736 95.3132 91.4763 95.2916 91.3785 95.2913C91.2804 95.2959 91.1831 95.3207 91.0867 95.3656C90.9903 95.4105 90.8963 95.4719 90.8048 95.5498C90.6836 95.6529 90.5836 95.7589 90.5046 95.8679C90.4229 95.9792 90.3559 96.0942 90.3038 96.2129C90.2539 96.3342 90.216 96.4616 90.1903 96.5949C90.1645 96.7283 90.1481 96.8699 90.141 97.0198L90.8283 97.8274ZM94.5918 97.5699C94.5485 97.9827 94.4395 98.3563 94.2646 98.6908C94.087 99.0276 93.8381 99.3323 93.5177 99.605C93.2835 99.8043 93.043 99.9417 92.7961 100.017C92.5516 100.095 92.309 100.118 92.0683 100.086C91.8277 100.054 91.595 99.9693 91.3705 99.8308C91.1432 99.6947 90.931 99.5108 90.734 99.2793L88.5071 96.6626L88.8585 96.3636C88.9365 96.2971 89.0061 96.2589 89.0671 96.2487C89.1304 96.2413 89.2039 96.2622 89.2877 96.3116L89.6784 96.5989C89.7009 96.4126 89.7312 96.2382 89.7694 96.0758C89.8098 95.9161 89.8637 95.7612 89.9309 95.6111C89.9978 95.466 90.083 95.3262 90.1866 95.1916C90.2902 95.057 90.4188 94.9244 90.5722 94.7938C90.7337 94.6563 90.9042 94.5484 91.0835 94.4701C91.2625 94.3967 91.4434 94.3611 91.6263 94.3633C91.8091 94.3655 91.99 94.4089 92.1687 94.4935C92.3448 94.5804 92.5107 94.7154 92.6665 94.8984C92.804 95.06 92.8926 95.2514 92.9325 95.4728C92.9719 95.6991 92.9438 95.9552 92.8481 96.2409C92.7497 96.5289 92.5737 96.8457 92.3202 97.1914C92.064 97.5394 91.7076 97.917 91.251 98.3241L91.5053 98.6229C91.7688 98.9325 92.0317 99.1079 92.2943 99.1491C92.5568 99.1903 92.8159 99.1021 93.0716 98.8845C93.2439 98.7378 93.371 98.5926 93.4528 98.4487C93.5319 98.3071 93.5916 98.1727 93.6319 98.0456C93.6719 97.9234 93.7058 97.8133 93.7338 97.7152C93.759 97.6195 93.8053 97.5429 93.8726 97.4857C93.9264 97.4399 93.9862 97.4146 94.0517 97.4098C94.1146 97.4074 94.1754 97.416 94.234 97.4358L94.5918 97.5699Z" fill="#FFFBFF"/>
<path d="M83.4504 99.9696C83.8222 99.7442 84.1726 99.6743 84.5016 99.7601C84.8276 99.8477 85.1079 100.085 85.3425 100.472L87.014 103.229L87.549 102.904C87.6004 102.873 87.6534 102.862 87.708 102.87C87.7614 102.883 87.8074 102.921 87.8459 102.985L88.0631 103.343L87.3782 103.901L88.0117 105.396C88.0308 105.454 88.0319 105.507 88.0152 105.555C87.9972 105.607 87.961 105.65 87.9066 105.683L87.4578 105.955L86.5203 104.409L85.2144 105.2L84.824 104.557L86.1299 103.765L84.4941 101.067C84.3841 100.886 84.2578 100.776 84.1151 100.739C83.9713 100.706 83.8299 100.732 83.6908 100.816C83.6092 100.866 83.5461 100.918 83.5015 100.974C83.4539 101.032 83.4162 101.086 83.3886 101.136C83.3627 101.189 83.3411 101.235 83.3237 101.274C83.3063 101.314 83.2855 101.341 83.2614 101.355C83.2311 101.374 83.2039 101.38 83.1796 101.374C83.1541 101.373 83.1232 101.363 83.0867 101.344L82.5653 101.077C82.6297 100.856 82.7397 100.649 82.8952 100.455C83.0508 100.262 83.2358 100.1 83.4504 99.9696Z" fill="#FFFBFF"/>
<path d="M76.9984 107.983C77.0132 107.935 77.0308 107.894 77.051 107.859C77.0692 107.829 77.1045 107.803 77.1569 107.782C77.2094 107.76 77.273 107.758 77.3479 107.773C77.4209 107.793 77.5109 107.808 77.6179 107.818C77.723 107.833 77.8458 107.834 77.9862 107.823C78.1247 107.817 78.284 107.777 78.4642 107.704C78.7001 107.608 78.8909 107.481 79.0365 107.323C79.1822 107.165 79.2838 106.983 79.3413 106.776C79.3955 106.571 79.4079 106.343 79.3785 106.092C79.3491 105.84 79.2773 105.574 79.1632 105.292C79.045 105.001 78.9066 104.753 78.7482 104.551C78.591 104.351 78.42 104.197 78.235 104.089C78.0514 103.984 77.8562 103.926 77.6493 103.915C77.4438 103.906 77.2346 103.945 77.0217 104.032C76.8153 104.115 76.6549 104.209 76.5405 104.313C76.4274 104.419 76.3386 104.52 76.274 104.615C76.2095 104.71 76.1577 104.794 76.1186 104.867C76.0809 104.943 76.0309 104.994 75.9686 105.019C75.89 105.051 75.8175 105.046 75.751 105.004L75.3324 104.762C75.3899 104.575 75.4709 104.403 75.5752 104.246C75.6762 104.091 75.7944 103.949 75.9297 103.822C76.065 103.695 76.2151 103.58 76.3801 103.479C76.5418 103.379 76.7127 103.293 76.8929 103.22C77.2041 103.094 77.5189 103.033 77.8373 103.037C78.1525 103.043 78.4544 103.115 78.7432 103.254C79.0288 103.394 79.2933 103.599 79.5367 103.871C79.7815 104.145 79.9863 104.486 80.1509 104.892C80.301 105.262 80.3889 105.625 80.4149 105.981C80.4375 106.338 80.3947 106.67 80.2865 106.977C80.1763 107.288 79.9997 107.568 79.7566 107.815C79.5149 108.066 79.204 108.268 78.824 108.422C78.4669 108.567 78.1291 108.637 77.8107 108.632C77.4923 108.628 77.1842 108.564 76.8862 108.441L76.9984 107.983Z" fill="#FFFBFF"/>
<path d="M71.0484 110.069C70.8737 110.34 70.6675 110.573 70.4298 110.767C70.1886 110.961 69.8933 111.095 69.5437 111.168C69.253 111.228 68.9885 111.233 68.7503 111.181C68.5087 111.13 68.2951 111.032 68.1096 110.886C67.9248 110.744 67.7687 110.558 67.6415 110.328C67.5142 110.099 67.4196 109.835 67.3577 109.537L66.6591 106.178L67.6766 105.967L68.3752 109.325C68.4537 109.703 68.6011 109.977 68.8173 110.149C69.0343 110.324 69.321 110.374 69.6775 110.3C69.937 110.246 70.1681 110.133 70.3706 109.961C70.5703 109.793 70.7452 109.584 70.8951 109.332L70.0906 105.465L71.1029 105.254L72.6967 112.916L71.6844 113.127L71.0484 110.069Z" fill="#FFFBFF"/>
<path d="M48.6208 113.414L52.666 106.258L53.6704 106.388L55.7677 114.336L54.8737 114.22C54.7755 114.208 54.6998 114.173 54.6466 114.116C54.5898 114.059 54.5506 113.99 54.529 113.909L53.1505 108.513C53.1177 108.38 53.0882 108.236 53.062 108.079C53.0324 107.922 53.0089 107.759 52.9916 107.589C52.9353 107.749 52.8764 107.902 52.8149 108.047C52.7534 108.192 52.6899 108.325 52.6246 108.445L49.9274 113.315C49.8938 113.382 49.8421 113.438 49.7722 113.482C49.6988 113.526 49.6148 113.542 49.5201 113.53L48.6208 113.414Z" fill="#FFFBFF"/>
<path d="M43.3735 109.672L44.9394 104.517L45.9288 104.818L44.3628 109.972L43.3735 109.672ZM42.7018 111.208C42.7296 111.117 42.7749 111.034 42.8378 110.961C42.8996 110.891 42.9725 110.834 43.0563 110.789C43.1356 110.747 43.2233 110.72 43.3191 110.708C43.4139 110.7 43.507 110.71 43.5984 110.738C43.6897 110.765 43.7708 110.809 43.8417 110.867C43.9116 110.929 43.9694 111 44.0152 111.08C44.0565 111.163 44.0835 111.251 44.096 111.343C44.1042 111.438 44.0944 111.531 44.0666 111.623C44.0378 111.717 43.9942 111.8 43.9357 111.871C43.8728 111.944 43.8017 112.002 43.7223 112.044C43.6385 112.089 43.5509 112.116 43.4595 112.125C43.367 112.138 43.2751 112.13 43.1838 112.102C43.0924 112.075 43.0101 112.029 42.9369 111.967C42.8626 111.907 42.8048 111.836 42.7634 111.753C42.7176 111.673 42.689 111.585 42.6775 111.489C42.6649 111.396 42.673 111.303 42.7018 111.208Z" fill="#FFFBFF"/>
<path d="M35.7517 105.166C35.8081 105.44 35.9064 105.66 36.0465 105.826C36.1834 105.989 36.3618 106.124 36.5816 106.23C37.0085 106.435 37.4141 106.44 37.7984 106.244C38.1781 106.05 38.5096 105.659 38.7931 105.069C38.9417 104.76 39.0433 104.484 39.0981 104.239C39.1481 103.997 39.1574 103.782 39.1261 103.594C39.09 103.408 39.0148 103.246 38.9004 103.109C38.7845 102.975 38.6342 102.863 38.4494 102.774C38.1786 102.644 37.9154 102.592 37.6596 102.618C37.4039 102.644 37.1372 102.726 36.8594 102.863L35.7517 105.166ZM33.1927 108.089L36.5846 101.036L37.1485 101.307C37.2791 101.37 37.3305 101.471 37.3026 101.611L37.115 102.209C37.44 102.063 37.7707 101.979 38.1072 101.957C38.4389 101.936 38.7768 102.008 39.1208 102.173C39.398 102.307 39.6236 102.482 39.7977 102.699C39.9686 102.915 40.0839 103.164 40.1436 103.448C40.2018 103.735 40.1996 104.053 40.137 104.404C40.0744 104.754 39.9466 105.13 39.7536 105.531C39.5804 105.891 39.3718 106.203 39.1276 106.466C38.8834 106.729 38.6161 106.93 38.3258 107.069C38.0354 107.208 37.7306 107.279 37.4112 107.282C37.0904 107.289 36.7675 107.214 36.4425 107.057C36.1494 106.917 35.9239 106.749 35.766 106.556C35.6049 106.36 35.4852 106.136 35.407 105.883L34.1293 108.54L33.1927 108.089Z" fill="#FFFBFF"/>
<path d="M28.017 99.3198C27.8954 99.4849 27.8075 99.655 27.7531 99.8301C27.6959 100.003 27.6751 100.174 27.6907 100.344C27.7063 100.514 27.7586 100.675 27.8476 100.828C27.9366 100.982 28.0664 101.121 28.2372 101.247C28.5873 101.505 28.9378 101.607 29.2887 101.554C29.6368 101.499 29.97 101.312 30.2882 100.993L28.017 99.3198ZM28.8267 96.7814C29.0173 96.7373 29.2119 96.7205 29.4107 96.7308C29.6073 96.7439 29.801 96.779 29.9917 96.8361C30.1824 96.8931 30.3683 96.9686 30.5494 97.0625C30.7276 97.1543 30.895 97.2579 31.0515 97.3732C31.3504 97.5933 31.5912 97.8476 31.7739 98.1359C31.9518 98.4249 32.0633 98.7354 32.1086 99.0674C32.1489 99.4 32.1158 99.7489 32.0094 100.114C31.898 100.48 31.7039 100.85 31.4271 101.226C31.2049 101.528 30.9514 101.774 30.6667 101.963C30.3799 102.156 30.0784 102.285 29.7622 102.351C29.4431 102.414 29.1161 102.408 28.781 102.333C28.4459 102.257 28.1205 102.103 27.8045 101.87C27.5398 101.675 27.329 101.452 27.172 101.2C27.0101 100.949 26.9088 100.681 26.8682 100.397C26.8275 100.112 26.8508 99.8152 26.938 99.5062C27.0222 99.1951 27.1787 98.8844 27.4072 98.5742C27.5016 98.4461 27.5797 98.3698 27.6417 98.3452C27.7017 98.3235 27.77 98.341 27.8469 98.3976L30.6901 100.492C30.8724 100.227 31.0021 99.9734 31.0792 99.7316C31.1542 99.4927 31.182 99.2673 31.1625 99.0553C31.1401 98.8413 31.0723 98.6442 30.9591 98.4642C30.8458 98.2842 30.691 98.1218 30.4946 97.9772C30.3096 97.8409 30.1345 97.7448 29.9693 97.689C29.8012 97.631 29.651 97.5906 29.5186 97.5677C29.3812 97.5455 29.2641 97.5317 29.1672 97.5262C29.0674 97.5185 28.992 97.4958 28.9407 97.4581C28.8724 97.4078 28.8386 97.3434 28.8394 97.2649L28.8267 96.7814Z" fill="#FFFBFF"/>
<path d="M20.3659 95.2332C20.0982 94.9415 19.905 94.6343 19.7862 94.3114C19.6625 93.9884 19.6151 93.6623 19.6443 93.3333C19.6684 93.0041 19.7661 92.6793 19.9375 92.3589C20.1063 92.0409 20.3469 91.7385 20.6594 91.4516C20.972 91.1648 21.2952 90.9497 21.6291 90.8064C21.963 90.6631 22.295 90.5936 22.625 90.5977C22.9527 90.5993 23.2735 90.6743 23.5874 90.8229C23.8963 90.9712 24.1846 91.1913 24.4523 91.483C24.7224 91.7773 24.9193 92.0859 25.043 92.409C25.1618 92.7318 25.2091 93.0578 25.185 93.3871C25.1609 93.7163 25.0643 94.0424 24.8953 94.3654C24.724 94.6858 24.482 94.9894 24.1695 95.2763C23.857 95.5631 23.535 95.777 23.2038 95.9179C22.8675 96.0586 22.5343 96.1268 22.2042 96.1227C21.8715 96.1209 21.5507 96.0459 21.2419 95.8975C20.928 95.749 20.636 95.5275 20.3659 95.2332ZM23.8585 92.0279C23.5143 91.6529 23.131 91.4888 22.7087 91.5358C22.2863 91.5827 21.846 91.8165 21.3876 92.2372C20.9292 92.6579 20.6586 93.0766 20.5756 93.4934C20.4901 93.9125 20.6194 94.3096 20.9636 94.6847C21.3126 95.0649 21.7007 95.2317 22.1281 95.185C22.5504 95.138 22.9908 94.9042 23.4492 94.4835C23.9075 94.0628 24.1782 93.6441 24.2611 93.2274C24.3417 92.808 24.2074 92.4082 23.8585 92.0279Z" fill="#FFFBFF"/>
<path d="M5.79838 73.8326L13.7603 73.3533L14.1214 74.3052L9.49947 78.0432C9.40874 78.123 9.29466 78.206 9.1572 78.2921C9.32303 78.2708 9.46345 78.2573 9.57845 78.2514L15.5243 78.0038L15.8835 78.9507L9.60645 83.8723L9.27171 82.9898C9.23661 82.8972 9.23028 82.8108 9.25274 82.7304C9.27189 82.6513 9.31571 82.5874 9.38421 82.5388L13.6165 79.3285C13.699 79.267 13.7911 79.2056 13.8926 79.1444C13.9929 79.0799 14.0982 79.0135 14.2084 78.9452C14.0806 78.9672 13.9578 78.9873 13.84 79.0056C13.7209 79.0205 13.6088 79.029 13.5037 79.031L8.1299 79.2319C8.05627 79.2371 7.98276 79.2178 7.90936 79.1738C7.83471 79.1265 7.78046 79.0582 7.74661 78.9689L7.6319 78.6665C7.59679 78.574 7.59109 78.4892 7.6148 78.4121C7.63851 78.3351 7.6817 78.2696 7.74439 78.2155L11.9015 74.807C12.0607 74.6785 12.2472 74.5473 12.461 74.4132C12.2179 74.4601 11.9951 74.4955 11.7924 74.5194L6.49384 74.9186C6.42147 74.9271 6.34796 74.9077 6.2733 74.8604C6.19865 74.8131 6.1444 74.7449 6.11055 74.6556L5.79838 73.8326Z" fill="#FFFBFF"/>
<path d="M9.58874 64.6522C9.65696 65.0675 9.73627 65.4173 9.82665 65.7014C9.91354 65.986 10.0109 66.2139 10.1187 66.3853C10.2265 66.5567 10.3435 66.6751 10.4697 66.7407C10.5923 66.8068 10.7238 66.8307 10.864 66.8125C10.9972 66.7952 11.1101 66.7591 11.2028 66.7043C11.2916 66.6464 11.3627 66.5766 11.4162 66.4948C11.4658 66.4099 11.498 66.3148 11.5128 66.2095C11.5277 66.1042 11.5274 65.992 11.5119 65.8728C11.4914 65.715 11.4569 65.5733 11.4085 65.4477C11.3597 65.3186 11.2997 65.1999 11.2286 65.0915C11.1539 64.9835 11.0677 64.8824 10.9699 64.7882C10.8721 64.694 10.7623 64.6031 10.6404 64.5155L9.58874 64.6522ZM7.75526 67.9489C7.4326 67.6879 7.17861 67.3929 6.99329 67.0641C6.80753 66.7317 6.68754 66.357 6.63334 65.9398C6.59372 65.6348 6.60947 65.3583 6.68062 65.1102C6.74826 64.8626 6.86099 64.6466 7.01883 64.4621C7.17666 64.2776 7.37478 64.1289 7.6132 64.0159C7.85116 63.8994 8.12088 63.8216 8.42236 63.7824L11.8298 63.3397L11.8892 63.7972C11.9024 63.8989 11.8966 63.978 11.8719 64.0347C11.8437 64.0918 11.7861 64.1421 11.699 64.1855L11.2454 64.3567C11.3893 64.4771 11.5191 64.5974 11.6345 64.7179C11.7465 64.8388 11.8471 64.9683 11.9363 65.1065C12.0216 65.2415 12.0925 65.3892 12.1489 65.5494C12.2054 65.7096 12.2466 65.8896 12.2726 66.0894C12.2999 66.2997 12.2976 66.5014 12.2656 66.6945C12.2297 66.8846 12.1611 67.0557 12.0596 67.2079C11.9582 67.3601 11.8233 67.4881 11.655 67.592C11.4863 67.6923 11.2827 67.758 11.0443 67.789C10.834 67.8163 10.6251 67.7864 10.4178 67.6993C10.2064 67.6091 10.007 67.4461 9.8195 67.2102C9.63155 66.9708 9.46163 66.6507 9.30973 66.2498C9.15737 65.8454 9.03478 65.3409 8.94197 64.7362L8.55285 64.7868C8.14971 64.8392 7.85939 64.9642 7.6819 65.1619C7.5044 65.3597 7.43728 65.6251 7.48055 65.9581C7.5097 66.1824 7.56234 66.3681 7.63847 66.5151C7.71414 66.6585 7.79432 66.7818 7.87901 66.8848C7.95974 66.9848 8.03361 67.0733 8.10063 67.1501C8.16719 67.2235 8.20617 67.304 8.21755 67.3916C8.22666 67.4617 8.21535 67.5256 8.18363 67.5831C8.15144 67.6372 8.11111 67.6835 8.06262 67.7219L7.75526 67.9489Z" fill="#FFFBFF"/>
<path d="M11.8096 57.298C11.7962 57.7326 11.664 58.0645 11.4129 58.2937C11.1619 58.5194 10.8103 58.6253 10.358 58.6114L7.13563 58.5121L7.11637 59.1375C7.11452 59.1975 7.09527 59.2482 7.05863 59.2895C7.01857 59.3272 6.96144 59.3449 6.88724 59.3426L6.46854 59.3297L6.37358 58.4515L4.77486 58.1688C4.71523 58.1528 4.67011 58.1249 4.63951 58.0851C4.60548 58.0416 4.58945 57.988 4.59141 57.9244L4.60757 57.3997L6.41487 57.4554L6.46189 55.929L7.21449 55.9522L7.16747 57.4786L10.321 57.5757C10.533 57.5823 10.6936 57.5359 10.8027 57.4367C10.9084 57.3339 10.9638 57.2012 10.9688 57.0387C10.9718 56.9433 10.9619 56.8616 10.9392 56.7937C10.9167 56.7223 10.892 56.6614 10.8653 56.6111C10.835 56.5606 10.808 56.5173 10.7844 56.4813C10.7608 56.4452 10.7494 56.413 10.7502 56.3847C10.7513 56.3494 10.761 56.3231 10.7792 56.306C10.794 56.2853 10.8194 56.2648 10.8553 56.2447L11.363 55.9527C11.5133 56.127 11.6272 56.3321 11.7048 56.568C11.7824 56.8038 11.8174 57.0471 11.8096 57.298Z" fill="#FFFBFF"/>
<path d="M8.60226 47.5222C8.6344 47.5608 8.65961 47.5981 8.67787 47.634C8.69333 47.6658 8.6957 47.7095 8.68497 47.765C8.67425 47.8206 8.64202 47.8755 8.58831 47.93C8.53179 47.9803 8.47018 48.0476 8.40349 48.1319C8.334 48.2121 8.26569 48.3141 8.19857 48.4379C8.12864 48.5577 8.07524 48.713 8.03837 48.9039C7.9901 49.1538 7.99266 49.3829 8.04603 49.5912C8.0994 49.7995 8.19698 49.984 8.33878 50.1446C8.48125 50.3017 8.66586 50.4364 8.89261 50.5486C9.11936 50.6608 9.38199 50.7457 9.68048 50.8034C9.98939 50.863 10.272 50.8816 10.5284 50.8591C10.7813 50.836 11.0034 50.7763 11.1948 50.68C11.3828 50.5831 11.5379 50.4511 11.6602 50.2839C11.779 50.116 11.8602 49.9193 11.9038 49.6936C11.946 49.475 11.9549 49.2895 11.9303 49.1371C11.9022 48.9841 11.866 48.8547 11.8217 48.7489C11.7773 48.6431 11.7351 48.554 11.6951 48.4814C11.6516 48.4082 11.6363 48.3386 11.649 48.2727C11.6651 48.1894 11.7087 48.1312 11.7799 48.0982L12.2111 47.879C12.3369 48.0293 12.4371 48.1909 12.5117 48.3637C12.587 48.5331 12.6412 48.7092 12.6743 48.892C12.7074 49.0748 12.7215 49.2629 12.7165 49.4564C12.7122 49.6464 12.6916 49.8368 12.6548 50.0277C12.5911 50.3574 12.4707 50.6546 12.2936 50.9192C12.1171 51.1804 11.8922 51.3944 11.6187 51.5612C11.3459 51.7245 11.0295 51.8344 10.6694 51.8909C10.3057 51.9466 9.90875 51.933 9.47836 51.8498C9.08615 51.7741 8.73384 51.6502 8.42142 51.4783C8.10967 51.3029 7.85449 51.0861 7.6559 50.8282C7.4545 50.566 7.31629 50.2657 7.24126 49.9272C7.16276 49.588 7.16239 49.2171 7.24015 48.8145C7.31323 48.4362 7.43832 48.1147 7.61544 47.8501C7.79257 47.5855 8.01398 47.3618 8.27969 47.1791L8.60226 47.5222Z" fill="#FFFBFF"/>
<path d="M10.0926 41.3961C9.9604 41.1019 9.87774 40.8024 9.84458 40.4975C9.8127 40.1892 9.86145 39.8687 9.99082 39.536C10.0984 39.2592 10.2387 39.035 10.4117 38.8633C10.5859 38.6883 10.7846 38.5626 11.0077 38.4863C11.2275 38.4086 11.4685 38.379 11.7306 38.3975C11.9927 38.416 12.2654 38.4803 12.5488 38.5904L15.7463 39.8336L15.3697 40.8023L12.1722 39.5591C11.813 39.4195 11.5026 39.3936 11.2409 39.4815C10.9758 39.5681 10.7774 39.7811 10.6454 40.1204C10.5493 40.3675 10.5183 40.6229 10.5524 40.8865C10.5845 41.1454 10.6651 41.4063 10.7944 41.6689L14.4763 43.1004L14.1016 44.0641L6.80698 41.2281L7.18166 40.2644L10.0926 41.3961Z" fill="#FFFBFF"/>
<path d="M19.5008 20.7642L23.2997 28.0538L22.644 28.8257L14.8358 26.2566L15.4194 25.5695C15.4834 25.4941 15.5538 25.4495 15.6304 25.4357C15.7093 25.4192 15.7887 25.4241 15.8686 25.4502L21.1449 27.2324C21.274 27.277 21.4113 27.3311 21.5569 27.3944C21.7048 27.4551 21.8546 27.5244 22.0064 27.6024C21.9027 27.4679 21.8066 27.3352 21.7182 27.2045C21.6298 27.0738 21.5532 26.9483 21.4882 26.8282L18.8722 21.9139C18.8343 21.8493 18.8158 21.7755 18.8166 21.6927C18.8196 21.6072 18.8521 21.5281 18.9139 21.4553L19.5008 20.7642Z" fill="#FFFBFF"/>
<path d="M25.4968 18.4012L28.9674 22.5216L28.1766 23.1878L24.7059 19.0673L25.4968 18.4012ZM24.5742 17.0013C24.6357 17.0743 24.68 17.1571 24.7072 17.2498C24.7321 17.3397 24.7405 17.432 24.7324 17.5267C24.7248 17.6163 24.6997 17.7045 24.6571 17.7912C24.6123 17.8751 24.5534 17.9478 24.4804 18.0093C24.4074 18.0708 24.3271 18.1154 24.2394 18.143C24.1495 18.1679 24.0583 18.1777 23.9659 18.1723C23.874 18.1619 23.7858 18.1368 23.7014 18.0969C23.6175 18.0521 23.5447 17.9932 23.4833 17.9202C23.4195 17.8445 23.3738 17.7628 23.3462 17.6752C23.319 17.5825 23.3092 17.4914 23.3169 17.4017C23.325 17.3071 23.3501 17.2189 23.3922 17.1372C23.4321 17.0528 23.4885 16.9799 23.5615 16.9184C23.6345 16.8569 23.7173 16.8126 23.81 16.7854C23.9003 16.7555 23.9915 16.7457 24.0834 16.7561C24.1758 16.7615 24.2653 16.7855 24.352 16.828C24.4364 16.8678 24.5104 16.9256 24.5742 17.0013Z" fill="#FFFBFF"/>
<path d="M33.4265 14.4622C33.1658 14.3601 32.9279 14.3228 32.7128 14.3502C32.5008 14.3758 32.2906 14.452 32.0822 14.5788C31.6776 14.825 31.4526 15.1626 31.4074 15.5915C31.3634 16.0156 31.5114 16.5069 31.8513 17.0656C32.0296 17.3585 32.2063 17.5945 32.3814 17.7734C32.5577 17.9476 32.7331 18.0726 32.9075 18.1485C33.0832 18.2195 33.2598 18.2445 33.4373 18.2234C33.6129 18.1992 33.7883 18.1339 33.9635 18.0273C34.2202 17.8711 34.4072 17.6786 34.5246 17.45C34.642 17.2213 34.7188 16.9531 34.7551 16.6455L33.4265 14.4622ZM32.3683 10.7239L36.4368 17.4098L35.9023 17.7351C35.7785 17.8104 35.6657 17.7984 35.5638 17.699L35.1643 17.2159C35.1095 17.5679 35 17.8911 34.8357 18.1855C34.6726 18.4751 34.428 18.7192 34.1018 18.9176C33.8391 19.0775 33.5693 19.1713 33.2924 19.1991C33.0185 19.2251 32.7464 19.1859 32.4759 19.0815C32.2037 18.974 31.9376 18.7987 31.6778 18.5554C31.4181 18.3121 31.1724 18.0002 30.9409 17.6197C30.7332 17.2784 30.5855 16.9338 30.4979 16.5857C30.4102 16.2377 30.3872 15.9041 30.4289 15.5849C30.4705 15.2658 30.5769 14.9714 30.748 14.7017C30.9173 14.4291 31.1559 14.199 31.4639 14.0116C31.7418 13.8425 32.0049 13.7445 32.2533 13.7174C32.5047 13.6886 32.7579 13.7104 33.013 13.7827L31.4804 11.2642L32.3683 10.7239Z" fill="#FFFBFF"/>
<path d="M42.5419 11.1588C42.4696 10.9669 42.3749 10.8005 42.2576 10.6595C42.1437 10.5173 42.0114 10.4066 41.8607 10.3274C41.71 10.2481 41.5461 10.204 41.369 10.1952C41.1919 10.1863 41.0041 10.2192 40.8056 10.2939C40.3986 10.4471 40.1219 10.6853 39.9754 11.0086C39.8323 11.3307 39.8077 11.712 39.9018 12.1525L42.5419 11.1588ZM44.23 13.2202C44.1632 13.404 44.0713 13.5764 43.9545 13.7375C43.8363 13.8953 43.7014 14.0386 43.5497 14.1675C43.398 14.2964 43.2335 14.4112 43.0561 14.5119C42.8821 14.6114 42.7041 14.6954 42.5221 14.7639C42.1747 14.8947 41.8304 14.9582 41.489 14.9545C41.1497 14.9462 40.8286 14.8707 40.5255 14.7279C40.2246 14.5806 39.95 14.3629 39.7018 14.0748C39.4557 13.7822 39.2504 13.4175 39.0861 12.9808C38.954 12.6301 38.886 12.2837 38.8818 11.9415C38.8764 11.596 38.9323 11.2728 39.0494 10.9719C39.1699 10.6697 39.3531 10.3987 39.5989 10.1588C39.8448 9.91899 40.1514 9.72995 40.5186 9.59172C40.8263 9.47591 41.1285 9.42071 41.4251 9.42614C41.7238 9.42702 42.0036 9.48791 42.2644 9.60881C42.5252 9.72972 42.7615 9.91085 42.9732 10.1522C43.1882 10.3923 43.3636 10.6927 43.4993 11.0533C43.5554 11.2022 43.5768 11.3093 43.5637 11.3747C43.5493 11.4368 43.4974 11.4847 43.4081 11.5183L40.103 12.7623C40.2262 13.0597 40.3682 13.3065 40.529 13.5028C40.6885 13.6958 40.8625 13.8419 41.0509 13.9409C41.2425 14.0388 41.4447 14.0892 41.6574 14.0922C41.87 14.0953 42.0905 14.0539 42.3188 13.9679C42.5338 13.887 42.7098 13.7924 42.8466 13.6843C42.9867 13.5749 43.1024 13.4709 43.1938 13.3723C43.2871 13.2692 43.3625 13.1785 43.4199 13.1002C43.4807 13.0207 43.5408 12.9697 43.6004 12.9473C43.6798 12.9174 43.7522 12.9242 43.8176 12.9675L44.23 13.2202Z" fill="#FFFBFF"/>
<path d="M50.1359 6.96685C50.5263 6.90117 50.8892 6.90643 51.2247 6.98263C51.563 7.05477 51.8622 7.19263 52.1223 7.39622C52.3853 7.59573 52.6045 7.85459 52.7799 8.1728C52.9547 8.48752 53.0773 8.85404 53.1477 9.27236C53.2181 9.69069 53.2225 10.0789 53.1608 10.437C53.0992 10.7951 52.9767 11.1114 52.7935 11.386C52.6138 11.66 52.3761 11.8881 52.0806 12.0705C51.788 12.2488 51.4464 12.3707 51.056 12.4364C50.6621 12.5027 50.296 12.4998 49.9576 12.4276C49.6222 12.3514 49.323 12.2136 49.06 12.0141C48.797 11.8145 48.5761 11.556 48.3972 11.2384C48.2217 10.9201 48.0989 10.5519 48.0285 10.1336C47.9581 9.71524 47.954 9.32877 48.0163 8.97418C48.0814 8.61551 48.2056 8.29888 48.3888 8.0243C48.5714 7.74623 48.8091 7.51806 49.1017 7.33978C49.3972 7.15743 49.742 7.03312 50.1359 6.96685ZM50.9223 11.6416C51.4243 11.5572 51.7706 11.3251 51.9612 10.9453C52.1518 10.5655 52.1955 10.0688 52.0923 9.45529C51.9891 8.84175 51.7853 8.38672 51.4809 8.09021C51.1759 7.79022 50.7725 7.68245 50.2705 7.7669C49.7615 7.85252 49.4103 8.08726 49.2167 8.47111C49.0261 8.85089 48.9824 9.34755 49.0856 9.96109C49.1888 10.5746 49.3926 11.0297 49.697 11.3262C50.0049 11.6221 50.4133 11.7272 50.9223 11.6416Z" fill="#FFFBFF"/>
<path d="M76.0179 6.40272L72.0841 13.3416L71.0891 13.126L70.4709 7.21394C70.4534 7.09441 70.4459 6.95353 70.4485 6.79133C70.3761 6.94202 70.311 7.06717 70.2533 7.16679L67.2231 12.2885L66.2333 12.0741L65.5237 4.12937L66.4462 4.3292C66.5429 4.35015 66.6189 4.39193 66.674 4.45452C66.7299 4.51365 66.7596 4.58519 66.7632 4.66914L67.1509 9.96706C67.1576 10.0698 67.1589 10.1804 67.155 10.2989C67.1545 10.4181 67.1528 10.5426 67.1501 10.6722C67.2012 10.5531 67.2512 10.4391 67.3001 10.3303C67.3524 10.2223 67.4063 10.1237 67.4618 10.0344L70.2198 5.41795C70.2555 5.35334 70.3117 5.30224 70.3886 5.26463C70.4689 5.22778 70.5557 5.21945 70.649 5.23966L70.9651 5.30814C71.0619 5.3291 71.1361 5.3705 71.1878 5.43234C71.2395 5.49418 71.271 5.56609 71.2821 5.64809L71.8772 10.9909C71.8982 11.1944 71.9067 11.4223 71.9027 11.6746C71.9958 11.4452 72.0875 11.239 72.1777 11.056L74.7284 6.39465C74.7606 6.32929 74.8169 6.27819 74.8972 6.24133C74.9776 6.20448 75.0644 6.19615 75.1576 6.21636L76.0179 6.40272Z" fill="#FFFBFF"/>
<path d="M81.6537 14.5813C81.2682 14.4124 80.9317 14.2884 80.6442 14.2095C80.3582 14.1274 80.1139 14.0849 79.9115 14.082C79.7091 14.0791 79.546 14.1127 79.4223 14.1828C79.3001 14.2497 79.2084 14.3469 79.1474 14.4745C79.0893 14.5956 79.0581 14.71 79.0536 14.8176C79.0538 14.9235 79.0736 15.0212 79.1131 15.1107C79.1573 15.1985 79.2195 15.2773 79.2997 15.347C79.38 15.4168 79.4743 15.4777 79.5827 15.5296C79.7262 15.5983 79.8638 15.6466 79.9955 15.6744C80.1304 15.7037 80.2626 15.7181 80.3923 15.7174C80.5234 15.7136 80.6552 15.6964 80.7875 15.6657C80.9198 15.635 81.0558 15.5923 81.1956 15.5378L81.6537 14.5813ZM79.8871 11.2483C80.2818 11.1198 80.6675 11.0674 81.0442 11.091C81.4241 11.1162 81.8037 11.2197 82.1831 11.4014C82.4605 11.5342 82.6839 11.698 82.8532 11.8928C83.024 12.0844 83.1439 12.2966 83.2126 12.5294C83.2814 12.7623 83.2983 13.0094 83.2632 13.2709C83.2313 13.5339 83.1497 13.8025 83.0183 14.0767L81.5341 17.1756L81.118 16.9764C81.0256 16.9321 80.9623 16.8841 80.9282 16.8325C80.8957 16.7777 80.8849 16.702 80.8959 16.6054L80.9993 16.1317C80.82 16.1869 80.6484 16.2301 80.4845 16.2614C80.3221 16.2894 80.1587 16.3033 79.9943 16.3029C79.8346 16.3009 79.6721 16.2799 79.507 16.24C79.3419 16.2001 79.1685 16.1367 78.9868 16.0496C78.7955 15.958 78.6275 15.8462 78.483 15.7143C78.3432 15.5807 78.237 15.4299 78.1646 15.262C78.0922 15.094 78.0583 14.9112 78.0628 14.7135C78.0706 14.5173 78.1263 14.3108 78.2302 14.094C78.3218 13.9027 78.4606 13.7438 78.6466 13.6173C78.8373 13.4892 79.0827 13.4107 79.3826 13.3819C79.6857 13.3546 80.0467 13.3864 80.4657 13.4773C80.8879 13.5698 81.3778 13.7417 81.9354 13.9931L82.1049 13.6392C82.2805 13.2726 82.3337 12.961 82.2646 12.7044C82.1954 12.4479 82.0093 12.2471 81.7065 12.102C81.5024 12.0043 81.318 11.9473 81.1533 11.9311C80.9918 11.9165 80.8448 11.9166 80.7122 11.9315C80.5843 11.9448 80.4699 11.9586 80.369 11.9729C80.2712 11.9888 80.1825 11.9777 80.1028 11.9395C80.039 11.909 79.9916 11.8647 79.9606 11.8067C79.9328 11.7503 79.916 11.6913 79.9102 11.6297L79.8871 11.2483Z" fill="#FFFBFF"/>
<path d="M86.6125 20.4488C86.2553 20.2009 86.0489 19.9092 85.9934 19.5738C85.9408 19.2404 86.0435 18.8878 86.3014 18.5161L88.1395 15.8674L87.6255 15.5107C87.5761 15.4765 87.544 15.4327 87.5294 15.3795C87.5196 15.3254 87.5358 15.2678 87.5782 15.2068L87.817 14.8627L88.6053 15.2613L89.713 14.0744C89.7589 14.033 89.8069 14.0104 89.857 14.0064C89.912 14.0016 89.9656 14.0173 90.0179 14.0536L90.4491 14.3529L89.4183 15.8384L90.6729 16.709L90.2436 17.3276L88.989 16.457L87.1902 19.049C87.0693 19.2232 87.0207 19.3831 87.0445 19.5287C87.0731 19.6734 87.1543 19.7921 87.2879 19.8848C87.3663 19.9392 87.4401 19.9754 87.5094 19.9934C87.5816 20.0133 87.6461 20.0258 87.7029 20.0308C87.7617 20.0329 87.8127 20.0338 87.8558 20.0336C87.899 20.0335 87.9321 20.0414 87.9554 20.0576C87.9844 20.0777 88.0012 20.1001 88.0056 20.1247C88.015 20.1484 88.0183 20.1808 88.0156 20.222L87.984 20.8068C87.756 20.8378 87.5219 20.8217 87.2819 20.7584C87.0418 20.6951 86.8187 20.5919 86.6125 20.4488Z" fill="#FFFBFF"/>
<path d="M96.5579 23.0822C96.508 23.0881 96.463 23.089 96.423 23.0847C96.3879 23.0804 96.35 23.0586 96.3092 23.0193C96.2685 22.9801 96.2399 22.9231 96.2235 22.8484C96.2121 22.7737 96.1892 22.6853 96.1548 22.5835C96.1254 22.4815 96.077 22.3687 96.0097 22.2449C95.9474 22.1211 95.8462 21.9917 95.7062 21.8569C95.5229 21.6803 95.3293 21.5577 95.1255 21.489C94.9217 21.4203 94.7139 21.4017 94.502 21.4332C94.2926 21.4671 94.0791 21.5486 93.8615 21.6777C93.6439 21.8067 93.4297 21.9808 93.2188 22.1997C93.0005 22.4263 92.831 22.6532 92.7103 22.8805C92.592 23.1052 92.5211 23.3241 92.4976 23.537C92.4765 23.7474 92.5028 23.9494 92.5764 24.1431C92.6525 24.3341 92.7733 24.5094 92.9388 24.6688C93.0992 24.8233 93.25 24.9317 93.3911 24.9941C93.5348 25.0539 93.663 25.094 93.7759 25.1144C93.8888 25.1347 93.9865 25.1479 94.0692 25.1539C94.1542 25.1573 94.2209 25.1823 94.2693 25.2289C94.3304 25.2877 94.3555 25.356 94.3444 25.4337L94.2934 25.9147C94.0989 25.9383 93.9088 25.9344 93.7232 25.9029C93.5401 25.8738 93.3629 25.8234 93.1916 25.7516C93.0202 25.6798 92.8548 25.5891 92.6952 25.4796C92.5382 25.3726 92.3897 25.2516 92.2497 25.1167C92.0078 24.8837 91.8241 24.6209 91.6986 24.3283C91.5757 24.038 91.5187 23.7329 91.5277 23.4127C91.5393 23.095 91.6194 22.7697 91.7682 22.4369C91.9194 22.1016 92.1471 21.776 92.4512 21.4603C92.7283 21.1726 93.024 20.9446 93.3384 20.7762C93.6553 20.6102 93.976 20.5142 94.3005 20.4882C94.63 20.462 94.9572 20.5096 95.282 20.631C95.6092 20.7499 95.9205 20.9516 96.2158 21.236C96.4933 21.5034 96.6948 21.7833 96.8203 22.076C96.9458 22.3687 97.0128 22.6762 97.0214 22.9985L96.5579 23.0822Z" fill="#FFFBFF"/>
<path d="M100.885 27.6683C101.203 27.7176 101.499 27.8114 101.773 27.9497C102.049 28.0908 102.291 28.3062 102.5 28.5959C102.674 28.8369 102.785 29.0766 102.835 29.3152C102.887 29.5566 102.884 29.7917 102.827 30.0204C102.772 30.247 102.666 30.4653 102.508 30.675C102.349 30.8848 102.147 31.0785 101.9 31.2562L99.1162 33.2611L98.5088 32.4177L101.293 30.4128C101.605 30.1877 101.796 29.9414 101.865 29.674C101.937 29.4046 101.866 29.1221 101.653 28.8267C101.498 28.6115 101.301 28.4465 101.062 28.3315C100.827 28.2174 100.564 28.143 100.274 28.1083L97.0679 30.4169L96.4637 29.5779L102.815 25.0041L103.419 25.8432L100.885 27.6683Z" fill="#FFFBFF"/>
<path d="M113.065 46.7943L104.883 46.0109L104.592 45.0406L110.999 39.8908L111.258 40.7544C111.286 40.8492 111.285 40.9325 111.255 41.0042C111.226 41.0794 111.179 41.1433 111.113 41.1961L106.745 44.6509C106.637 44.7348 106.517 44.8206 106.385 44.9082C106.253 44.9992 106.114 45.0871 105.966 45.172C106.135 45.1583 106.299 45.1499 106.456 45.147C106.614 45.144 106.761 45.148 106.897 45.1589L112.444 45.641C112.518 45.6445 112.59 45.6691 112.659 45.7148C112.729 45.764 112.778 45.8342 112.805 45.9257L113.065 46.7943Z" fill="#FFFBFF"/>
<path d="M111.782 53.1103L106.436 53.7773L106.308 52.7513L111.654 52.0842L111.782 53.1103ZM113.459 53.0988C113.364 53.1106 113.27 53.1027 113.178 53.0751C113.089 53.047 113.007 53.0038 112.932 52.9455C112.861 52.8902 112.801 52.8211 112.751 52.7382C112.705 52.6549 112.676 52.5659 112.664 52.4712C112.653 52.3765 112.659 52.2848 112.684 52.1963C112.712 52.1073 112.753 52.0255 112.808 51.951C112.867 51.8795 112.936 51.8193 113.015 51.7702C113.098 51.7242 113.188 51.6952 113.282 51.6834C113.38 51.6712 113.474 51.6773 113.562 51.7019C113.655 51.7295 113.737 51.771 113.808 51.8263C113.883 51.8846 113.943 51.9537 113.988 52.0335C114.038 52.1128 114.068 52.1999 114.08 52.2946C114.092 52.3893 114.084 52.4829 114.056 52.5754C114.032 52.6675 113.991 52.7493 113.932 52.8207C113.877 52.8952 113.808 52.9573 113.725 53.0068C113.646 53.0559 113.557 53.0866 113.459 53.0988Z" fill="#FFFBFF"/>
<path d="M110.768 61.9062C110.996 61.7431 111.156 61.5639 111.25 61.3686C111.344 61.1768 111.395 60.959 111.402 60.7152C111.416 60.2417 111.255 59.8693 110.92 59.5978C110.589 59.3299 110.096 59.1864 109.442 59.1673C109.099 59.1573 108.805 59.177 108.56 59.2264C108.318 59.2795 108.117 59.3585 107.959 59.4635C107.804 59.5721 107.686 59.7066 107.608 59.867C107.532 60.0275 107.491 60.2102 107.485 60.4152C107.477 60.7155 107.536 60.9772 107.664 61.2002C107.792 61.4232 107.975 61.6336 108.213 61.8316L110.768 61.9062ZM114.48 63.0544L106.656 62.8258L106.675 62.2004C106.679 62.0555 106.75 61.9674 106.889 61.9361L107.512 61.8641C107.247 61.6265 107.035 61.3586 106.878 61.0605C106.724 60.766 106.652 60.4279 106.663 60.0463C106.672 59.7389 106.741 59.4615 106.868 59.2142C106.995 58.9703 107.176 58.7634 107.411 58.5934C107.65 58.4236 107.942 58.296 108.287 58.2106C108.633 58.1252 109.028 58.089 109.473 58.102C109.873 58.1136 110.242 58.1775 110.582 58.2935C110.921 58.4095 111.214 58.5719 111.459 58.7806C111.704 58.9894 111.893 59.2389 112.026 59.5293C112.162 59.8197 112.225 60.1451 112.215 60.5056C112.205 60.8306 112.144 61.1047 112.031 61.3278C111.919 61.5543 111.763 61.7549 111.563 61.9294L114.51 62.0155L114.48 63.0544Z" fill="#FFFBFF"/>
<path d="M108.574 71.3501C108.774 71.394 108.966 71.4052 109.148 71.3836C109.329 71.3654 109.494 71.3147 109.642 71.2315C109.791 71.1483 109.917 71.0348 110.021 70.8911C110.125 70.7474 110.2 70.572 110.245 70.3648C110.338 69.9401 110.289 69.5783 110.098 69.2794C109.906 68.9839 109.599 68.7557 109.178 68.5946L108.574 71.3501ZM105.926 71.6434C105.808 71.4873 105.714 71.3163 105.642 71.1306C105.574 70.9456 105.527 70.7544 105.502 70.557C105.476 70.3596 105.47 70.159 105.482 69.9554C105.493 69.7552 105.52 69.5602 105.561 69.3703C105.641 69.0077 105.775 68.6843 105.964 68.4C106.156 68.12 106.394 67.8917 106.679 67.7153C106.966 67.5431 107.298 67.4314 107.675 67.3801C108.055 67.333 108.472 67.3595 108.928 67.4594C109.294 67.5397 109.622 67.6713 109.911 67.8541C110.204 68.0377 110.444 68.2606 110.633 68.5227C110.821 68.7883 110.948 69.0895 111.015 69.4263C111.083 69.7632 111.074 70.1232 110.99 70.5065C110.92 70.8276 110.802 71.1111 110.636 71.357C110.472 71.6071 110.269 71.8085 110.025 71.9614C109.782 72.1143 109.501 72.2139 109.184 72.26C108.865 72.3096 108.518 72.2931 108.141 72.2106C107.986 72.1765 107.884 72.1361 107.837 72.0895C107.792 72.0436 107.781 71.9741 107.801 71.8808L108.557 68.4313C108.241 68.3728 107.957 68.3575 107.704 68.3854C107.456 68.4141 107.238 68.4804 107.053 68.5845C106.866 68.692 106.714 68.8341 106.596 69.0108C106.477 69.1875 106.392 69.395 106.34 69.6332C106.29 69.8577 106.274 70.0567 106.29 70.2304C106.306 70.4075 106.33 70.5612 106.363 70.6914C106.398 70.8259 106.433 70.9385 106.468 71.0293C106.501 71.1235 106.511 71.2017 106.498 71.2639C106.48 71.3468 106.434 71.4038 106.362 71.4351L105.926 71.6434Z" fill="#FFFBFF"/>
<path d="M107.955 80.0023C107.797 80.3656 107.595 80.6671 107.349 80.9069C107.104 81.1514 106.826 81.3273 106.513 81.4346C106.203 81.5465 105.866 81.5894 105.504 81.5632C105.145 81.5385 104.77 81.4417 104.381 81.2729C103.992 81.1041 103.664 80.8964 103.397 80.6497C103.131 80.403 102.932 80.1281 102.801 79.8248C102.669 79.5249 102.607 79.2013 102.615 78.8542C102.625 78.5116 102.709 78.1588 102.867 77.7955C103.025 77.429 103.227 77.1236 103.472 76.8791C103.719 76.6392 103.997 76.4633 104.308 76.3514C104.618 76.2395 104.955 76.195 105.319 76.2179C105.682 76.2441 106.057 76.3416 106.447 76.5103C106.836 76.6791 107.162 76.8862 107.426 77.1315C107.691 77.3814 107.889 77.658 108.02 77.9612C108.153 78.2658 108.215 78.5893 108.205 78.9319C108.197 79.279 108.114 79.6359 107.955 80.0023ZM103.606 78.1162C103.403 78.5832 103.41 79.0001 103.624 79.3668C103.839 79.7335 104.232 80.0406 104.803 80.2881C105.373 80.5357 105.866 80.6125 106.28 80.5187C106.698 80.4263 107.008 80.1466 107.211 79.6795C107.416 79.206 107.41 78.7836 107.194 78.4123C106.979 78.0456 106.586 77.7385 106.016 77.4909C105.445 77.2434 104.952 77.1665 104.538 77.2603C104.122 77.3574 103.811 77.6427 103.606 78.1162Z" fill="#FFFBFF"/>
</g>
</svg>
