<svg xmlns="http://www.w3.org/2000/svg" width="41" height="26" fill="none"><path fill="url(#a)" d="M12.844 13 .82 20.829V5.17L12.844 13Zm15.312 0 12.024 7.829V5.17L28.156 13Zm-1.757 1.147-5.376 3.5a.977.977 0 0 1-.523.153.977.977 0 0 1-.523-.154L14.6 14.147 1.617 22.6l-.754.49A2.887 2.887 0 0 0 3.7 25.48h33.6a2.882 2.882 0 0 0 2.837-2.39l-.759-.49L26.4 14.147Zm-5.9 1.546L39.38 3.4l.758-.49A2.882 2.882 0 0 0 37.3.52H3.7A2.887 2.887 0 0 0 .863 2.91l.754.49L20.5 15.693Z"/><defs><linearGradient id="a" x1="5.027" x2="38.897" y1="3.92" y2="13.223" gradientUnits="userSpaceOnUse"><stop stop-color="#12A09E"/><stop offset="1" stop-color="#A81FE9"/></linearGradient></defs></svg>