<svg width="48" height="48" viewBox="0 0 48 48" fill="none" xmlns="http://www.w3.org/2000/svg">
<path d="M26.5798 18.0831C26.5795 17.447 26.3267 16.837 25.8769 16.3871C25.4268 15.9371 24.8163 15.6842 24.1798 15.6842H17.8567M26.5798 18.0831C26.5815 18.3992 26.5208 18.7126 26.4011 19.0051C26.2813 19.2979 26.1048 19.5641 25.8817 19.7884C25.6587 20.0127 25.3935 20.1907 25.1014 20.3122C24.8094 20.4337 24.4961 20.4962 24.1798 20.4962H17.8558C17.2161 20.4962 16.6026 20.2421 16.1503 19.7897C15.6979 19.3374 15.4438 18.7239 15.4438 18.0842C15.4438 17.7679 15.5063 17.4547 15.6278 17.1626C15.7493 16.8705 15.9273 16.6053 16.1516 16.3823C16.3759 16.1592 16.6421 15.9827 16.9349 15.8629C17.2274 15.7432 17.5406 15.6825 17.8567 15.6842M26.5798 18.0831C26.5798 18.0835 26.5798 18.0838 26.5798 18.0842H26.2798L26.5798 18.0831ZM17.8567 15.6842C17.857 15.6842 17.8573 15.6842 17.8575 15.6842L17.8558 15.9842V15.6842H17.8567ZM32.5158 29.0786C32.6373 29.3707 32.6998 29.6839 32.6998 30.0002C32.6998 30.3192 32.6366 30.6351 32.5136 30.9296C32.3907 31.224 32.2106 31.4911 31.9837 31.7155C31.7568 31.9398 31.4877 32.1169 31.1919 32.2365C30.8966 32.3559 30.5806 32.4156 30.2621 32.4122H17.8558C17.5391 32.4122 17.2254 32.3498 16.9328 32.2286C16.6402 32.1074 16.3743 31.9297 16.1503 31.7057C15.9263 31.4818 15.7486 31.2159 15.6274 30.9232C15.5062 30.6306 15.4438 30.3169 15.4438 30.0002C15.4438 29.6839 15.5063 29.3707 15.6278 29.0786C15.7493 28.7865 15.9273 28.5213 16.1516 28.2983C16.3759 28.0752 16.6421 27.8987 16.9349 27.7789C17.2274 27.6592 17.5408 27.5985 17.8569 27.6002M32.5158 29.0786L30.2878 27.9002M32.5158 29.0786C32.3944 28.7865 32.2164 28.5213 31.992 28.2983C31.7677 28.0752 31.5015 27.8987 31.2088 27.7789C30.9162 27.6592 30.6029 27.5985 30.2868 27.6002M32.5158 29.0786L30.2878 27.9002M17.8569 27.6002C17.8571 27.6002 17.8573 27.6002 17.8575 27.6002L17.8558 27.9002V27.6002H17.8569ZM17.8569 27.6002H30.2868M30.2868 27.6002C30.2866 27.6002 30.2863 27.6002 30.2861 27.6002L30.2878 27.9002M30.2868 27.6002H30.2878V27.9002M40.3798 29.8202L40.3798 29.8215C40.386 31.2216 40.1155 32.6092 39.584 33.9045C39.0524 35.1999 38.2702 36.3774 37.2823 37.3697C36.2945 38.3619 35.1203 39.1492 33.8273 39.6864C32.5343 40.2237 31.148 40.5002 29.7478 40.5002H18.6238C15.7054 40.5002 12.9065 39.3408 10.8428 37.2772C8.77917 35.2135 7.61982 32.4146 7.61982 29.4962V18.3482C7.61982 15.4731 8.76113 12.7157 10.793 10.6816C12.8248 8.64761 15.581 7.50333 18.456 7.5002H24.3718C26.784 7.5002 29.1857 8.54898 30.9859 10.1019C32.7905 11.6586 33.9478 13.6825 33.9478 15.6002V17.3402C33.9478 18.1645 34.2753 18.955 34.8581 19.5379C35.441 20.1207 36.2315 20.4482 37.0558 20.4482H38.8078C39.0143 20.4482 39.2187 20.4889 39.4094 20.5679C39.6001 20.6469 39.7734 20.7626 39.9194 20.9086C40.0654 21.0546 40.1812 21.2279 40.2602 21.4186C40.3392 21.6093 40.3798 21.8138 40.3798 22.0202L40.3798 29.8202Z" fill="url(#paint0_linear_63_1382)" stroke="#3290B2" stroke-width="0.6"/>
<defs>
<linearGradient id="paint0_linear_63_1382" x1="10.8854" y1="11.7765" x2="40.8619" y2="16.9608" gradientUnits="userSpaceOnUse">
<stop stop-color="#12A09E"/>
<stop offset="1" stop-color="#A81FE9"/>
</linearGradient>
</defs>
</svg>
