<svg width="47" height="48" viewBox="0 0 47 48" fill="none" xmlns="http://www.w3.org/2000/svg">
<path d="M45.334 0.976349L1.29168 18.268C0.45379 18.597 0.423358 19.7715 1.24301 20.1434L10.9795 24.5617C11.2432 24.6815 11.4435 24.9077 11.5303 25.184L15.7076 38.4779C15.9186 39.149 16.7302 39.4094 17.2921 38.986L24.5632 33.508C24.9105 33.2464 25.3854 33.2341 25.7458 33.4771L37.9405 41.7042C38.5489 42.1145 39.3783 41.7664 39.5117 41.0449L46.7078 2.10944C46.853 1.32358 46.0779 0.684317 45.334 0.976349ZM18.6455 26.4473L17.3316 33.9163L13.9401 23.222L37.1922 8.79008L18.6455 26.4473ZM7.29207 28.3978C6.91709 28.0228 6.3096 28.0228 5.93453 28.3978L0.555646 33.7762C0.18067 34.1513 0.18067 34.7587 0.555646 35.1337C0.930622 35.5087 1.53811 35.5087 1.91319 35.1337L7.29207 29.7552C7.66704 29.3803 7.66704 28.7728 7.29207 28.3978ZM10.0525 40.0781L4.67415 45.4565C4.29907 45.8315 4.29907 46.4391 4.67415 46.814C5.04912 47.189 5.65661 47.189 6.03159 46.814L11.4101 41.4355C11.7851 41.0606 11.7851 40.4531 11.4101 40.0781C11.035 39.7031 10.4275 39.7031 10.0525 40.0781Z" fill="url(#paint0_linear_100_134)"/>
<defs>
<linearGradient id="paint0_linear_100_134" x1="5.2392" y1="7.19546" x2="46.9475" y2="14.5015" gradientUnits="userSpaceOnUse">
<stop stop-color="#12A09E"/>
<stop offset="1" stop-color="#A81FE9"/>
</linearGradient>
</defs>
</svg>
