<svg width="49" height="39" viewBox="0 0 49 39" fill="none" xmlns="http://www.w3.org/2000/svg">
<path d="M48.5 4.61709C46.6944 5.4046 44.7848 5.92797 42.83 6.17109C44.89 4.94897 46.4303 3.01378 47.159 0.73209C45.23 1.8761 43.1196 2.68172 40.919 3.11409C39.5697 1.67343 37.8184 0.671847 35.8925 0.239473C33.9666 -0.1929 31.9551 -0.0360789 30.1195 0.689562C28.2839 1.4152 26.709 2.67612 25.5993 4.3085C24.4896 5.94087 23.8965 7.86925 23.897 9.84309C23.897 10.6231 23.963 11.3731 24.125 12.0871C20.2102 11.8952 16.3801 10.8791 12.8849 9.10544C9.38974 7.33175 6.30828 4.84034 3.842 1.79409C2.57846 3.95967 2.18783 6.52542 2.74965 8.9689C3.31147 11.4124 4.7835 13.5499 6.866 14.9461C5.30827 14.9043 3.78342 14.4886 2.42 13.7341V13.8421C2.42261 16.1144 3.208 18.3164 4.64395 20.0775C6.07991 21.8385 8.07875 23.0511 10.304 23.5111C9.46216 23.733 8.59456 23.8419 7.724 23.8351C7.09877 23.8462 6.47416 23.7899 5.861 23.6671C6.49682 25.6202 7.72247 27.3281 9.36918 28.5558C11.0159 29.7834 13.0027 30.4704 15.056 30.5221C11.5728 33.2462 7.27692 34.7239 2.855 34.7191C2.048 34.7191 1.274 34.6831 0.5 34.5841C4.99965 37.4837 10.243 39.0175 15.596 39.0001C33.704 39.0001 43.604 24.0001 43.604 10.9981C43.604 10.5631 43.589 10.1431 43.568 9.72609C45.5089 8.33705 47.1802 6.60573 48.5 4.61709Z" fill="url(#paint0_linear_100_137)"/>
<defs>
<linearGradient id="paint0_linear_100_137" x1="5.63034" y1="5.31221" x2="48.1" y2="14.4172" gradientUnits="userSpaceOnUse">
<stop stop-color="#12A09E"/>
<stop offset="1" stop-color="#A81FE9"/>
</linearGradient>
</defs>
</svg>
