<?xml version="1.0" encoding="UTF-8" standalone="no"?>
<svg
   xmlns:dc="http://purl.org/dc/elements/1.1/"
   xmlns:cc="http://creativecommons.org/ns#"
   xmlns:rdf="http://www.w3.org/1999/02/22-rdf-syntax-ns#"
   xmlns:svg="http://www.w3.org/2000/svg"
   xmlns="http://www.w3.org/2000/svg"
   xmlns:xlink="http://www.w3.org/1999/xlink"
   xmlns:sodipodi="http://sodipodi.sourceforge.net/DTD/sodipodi-0.dtd"
   xmlns:inkscape="http://www.inkscape.org/namespaces/inkscape"
   width="1200pt"
   height="1200pt"
   version="1.1"
   viewBox="0 0 1200 1200"
   id="svg12"
   sodipodi:docname="noun-send-4514372.svg"
   inkscape:version="0.92.4 (5da689c313, 2019-01-14)">
  <metadata
     id="metadata18">
    <rdf:RDF>
      <cc:Work
         rdf:about="">
        <dc:format>image/svg+xml</dc:format>
        <dc:type
           rdf:resource="http://purl.org/dc/dcmitype/StillImage" />
      </cc:Work>
    </rdf:RDF>
  </metadata>
  <defs
     id="defs16">
    <linearGradient
       inkscape:collect="always"
       id="linearGradient832">
      <stop
         style="stop-color:#12a09e;stop-opacity:1"
         offset="0"
         id="stop828" />
      <stop
         style="stop-color:#a81fe9;stop-opacity:1"
         offset="1"
         id="stop830" />
    </linearGradient>
    <linearGradient
       inkscape:collect="always"
       xlink:href="#linearGradient832"
       id="linearGradient834"
       x1="249.15254"
       y1="279.66101"
       x2="1047.4576"
       y2="503.38983"
       gradientUnits="userSpaceOnUse" />
  </defs>
  <sodipodi:namedview
     pagecolor="#ffffff"
     bordercolor="#666666"
     borderopacity="1"
     objecttolerance="10"
     gridtolerance="10"
     guidetolerance="10"
     inkscape:pageopacity="0"
     inkscape:pageshadow="2"
     inkscape:window-width="1920"
     inkscape:window-height="974"
     id="namedview14"
     showgrid="false"
     inkscape:zoom="0.1475"
     inkscape:cx="-128.81356"
     inkscape:cy="800"
     inkscape:window-x="-11"
     inkscape:window-y="-11"
     inkscape:window-maximized="1"
     inkscape:current-layer="svg12" />
  <g
     id="g10"
     style="fill-opacity:1;fill:url(#linearGradient834)">
    <path
       d="m300 753.75c15-15 15-33.75 0-48.75s-33.75-15-48.75 0l-48.75 48.75c-15 15-15 33.75 0 48.75s33.75 15 48.75 0z"
       id="path2"
       style="fill-opacity:1;fill:url(#linearGradient834)" />
    <path
       d="m446.25 753.75c-15-15-33.75-15-48.75 0l-146.25 146.25c-15 15-15 33.75 0 48.75s33.75 15 48.75 0l142.5-142.5c15-15 15-37.5 3.75-52.5z"
       id="path4"
       style="fill-opacity:1;fill:url(#linearGradient834)" />
    <path
       d="m948.75 153.75-750 277.5c-67.5 26.25-67.5 120 3.75 142.5l202.5 67.5c37.5 11.25 78.75 3.75 112.5-18.75l348.75-285-285 348.75c-26.25 30-33.75 71.25-18.75 112.5l67.5 202.5c22.5 67.5 120 71.25 142.5 3.75l273.75-746.25c22.5-67.5-37.5-127.5-97.5-105z"
       id="path6"
       style="fill-opacity:1;fill:url(#linearGradient834)" />
    <path
       d="m446.25 900-48.75 48.75c-15 15-15 33.75 0 48.75s33.75 15 48.75 0l48.75-48.75c15-15 15-33.75 0-48.75s-37.5-15-48.75 0z"
       id="path8"
       style="fill-opacity:1;fill:url(#linearGradient834)" />
  </g>
</svg>
