<svg width="49" height="49" viewBox="0 0 49 49" fill="none" xmlns="http://www.w3.org/2000/svg">
<path d="M41.8344 12.8766C41.891 12.8436 41.938 12.7963 41.9706 12.7394C42.0032 12.6826 42.0204 12.6182 42.0204 12.5527C42.0204 12.4871 42.0032 12.4227 41.9706 12.3659C41.938 12.3091 41.891 12.2618 41.8344 12.2288L27.515 3.90939C26.5988 3.37832 25.5586 3.09863 24.4995 3.09863C23.4405 3.09863 22.4003 3.37832 21.4841 3.90939L7.16751 12.2288C7.1109 12.2618 7.06393 12.3091 7.03129 12.3659C6.99865 12.4227 6.98148 12.4871 6.98148 12.5527C6.98148 12.6182 6.99865 12.6826 7.03129 12.7394C7.06393 12.7963 7.1109 12.8436 7.16751 12.8766L24.3125 22.9622C24.3702 22.9962 24.4359 23.0141 24.5028 23.0141C24.5698 23.0141 24.6355 22.9962 24.6931 22.9622L41.8344 12.8766ZM5.56251 15.4275C5.50532 15.3945 5.44043 15.3772 5.3744 15.3773C5.30837 15.3774 5.24353 15.3949 5.18645 15.4281C5.12937 15.4613 5.08207 15.509 5.04933 15.5664C5.01659 15.6237 4.99958 15.6887 5.00001 15.7547V32.0569C5.00142 32.8425 5.20848 33.614 5.60058 34.2948C5.99269 34.9755 6.55617 35.5418 7.23501 35.9372L22.4375 45.0525C22.4945 45.0854 22.5591 45.1027 22.6249 45.1028C22.6907 45.1028 22.7553 45.0855 22.8123 45.0526C22.8693 45.0197 22.9167 44.9725 22.9496 44.9155C22.9826 44.8586 22.9999 44.7939 23 44.7281V25.8141C22.9999 25.7483 22.9826 25.6837 22.9497 25.6268C22.9168 25.5699 22.8695 25.5226 22.8125 25.4897L5.56251 15.4275ZM26 25.8797V44.7235C26.0001 44.7892 26.0175 44.8539 26.0504 44.9108C26.0833 44.9678 26.1307 45.0151 26.1877 45.0479C26.2447 45.0808 26.3093 45.0981 26.3751 45.0981C26.4409 45.0981 26.5055 45.0807 26.5625 45.0478L41.7641 35.9325C42.4424 35.5376 43.0056 34.9722 43.3979 34.2923C43.7901 33.6124 43.9977 32.8418 44 32.0569V15.7547C43.9998 15.689 43.9823 15.6245 43.9493 15.5677C43.9163 15.5108 43.8689 15.4637 43.8119 15.4309C43.755 15.3982 43.6904 15.381 43.6247 15.381C43.559 15.3811 43.4944 15.3984 43.4375 15.4313L26.1875 25.5563C26.1307 25.5891 26.0835 25.6362 26.0506 25.693C26.0177 25.7497 26.0002 25.8141 26 25.8797Z" fill="url(#paint0_linear_63_200)"/>
<defs>
<linearGradient id="paint0_linear_63_200" x1="9.1684" y1="8.81955" x2="44.341" y2="14.5081" gradientUnits="userSpaceOnUse">
<stop stop-color="#12A09E"/>
<stop offset="1" stop-color="#A81FE9"/>
</linearGradient>
</defs>
</svg>
