<svg width="48" height="49" viewBox="0 0 48 49" fill="none" xmlns="http://www.w3.org/2000/svg">
<path d="M30 42.5C26.0667 42.5 22.5667 41.3833 19.5 39.15C16.4333 36.9167 14.2667 34.0333 13 30.5H6C5.43333 30.5 4.95867 30.308 4.576 29.924C4.192 29.5413 4 29.0667 4 28.5C4 27.9333 4.192 27.458 4.576 27.074C4.95867 26.6913 5.43333 26.5 6 26.5H12.1C12.0333 26.1333 12 25.8 12 25.5V23.5C12 23.2 12.0333 22.8667 12.1 22.5H6C5.43333 22.5 4.95867 22.308 4.576 21.924C4.192 21.5413 4 21.0667 4 20.5C4 19.9333 4.192 19.458 4.576 19.074C4.95867 18.6913 5.43333 18.5 6 18.5H13C14.2667 14.9667 16.4333 12.0833 19.5 9.85C22.5667 7.61667 26.0667 6.5 30 6.5C31.8333 6.5 33.5753 6.75 35.226 7.25C36.8753 7.75 38.4167 8.46667 39.85 9.4C40.45 9.8 40.7753 10.3667 40.826 11.1C40.8753 11.8333 40.6167 12.4833 40.05 13.05C39.65 13.45 39.142 13.6833 38.526 13.75C37.9087 13.8167 37.3167 13.6833 36.75 13.35C35.75 12.7833 34.6833 12.3333 33.55 12C32.4167 11.6667 31.2333 11.5 30 11.5C27.5 11.5 25.2253 12.142 23.176 13.426C21.1253 14.7087 19.5667 16.4 18.5 18.5H30C30.5667 18.5 31.042 18.6913 31.426 19.074C31.8087 19.458 32 19.9333 32 20.5C32 21.0667 31.8087 21.5413 31.426 21.924C31.042 22.308 30.5667 22.5 30 22.5H17.2C17.1333 22.8667 17.0833 23.2 17.05 23.5C17.0167 23.8 17 24.1333 17 24.5C17 24.8667 17.0167 25.2 17.05 25.5C17.0833 25.8 17.1333 26.1333 17.2 26.5H30C30.5667 26.5 31.042 26.6913 31.426 27.074C31.8087 27.458 32 27.9333 32 28.5C32 29.0667 31.8087 29.5413 31.426 29.924C31.042 30.308 30.5667 30.5 30 30.5H18.5C19.5667 32.6 21.1253 34.292 23.176 35.576C25.2253 36.8587 27.5 37.5 30 37.5C31.2 37.5 32.3833 37.3333 33.55 37C34.7167 36.6667 35.7833 36.2167 36.75 35.65C37.3167 35.3167 37.9 35.1747 38.5 35.224C39.1 35.2747 39.6167 35.5167 40.05 35.95C40.6167 36.5167 40.8753 37.1667 40.826 37.9C40.7753 38.6333 40.45 39.2 39.85 39.6C38.4167 40.5333 36.8753 41.25 35.226 41.75C33.5753 42.25 31.8333 42.5 30 42.5Z" fill="url(#paint0_linear_63_227)"/>
<defs>
<linearGradient id="paint0_linear_63_227" x1="7.93667" y1="11.4032" x2="40.9735" y2="17.2908" gradientUnits="userSpaceOnUse">
<stop stop-color="#12A09E"/>
<stop offset="1" stop-color="#A81FE9"/>
</linearGradient>
</defs>
</svg>
