<?xml version="1.0" encoding="UTF-8" standalone="no"?>
<svg
   xmlns:dc="http://purl.org/dc/elements/1.1/"
   xmlns:cc="http://creativecommons.org/ns#"
   xmlns:rdf="http://www.w3.org/1999/02/22-rdf-syntax-ns#"
   xmlns:svg="http://www.w3.org/2000/svg"
   xmlns="http://www.w3.org/2000/svg"
   xmlns:xlink="http://www.w3.org/1999/xlink"
   xmlns:sodipodi="http://sodipodi.sourceforge.net/DTD/sodipodi-0.dtd"
   xmlns:inkscape="http://www.inkscape.org/namespaces/inkscape"
   width="1200pt"
   height="1200pt"
   version="1.1"
   viewBox="0 0 1200 1200"
   id="svg4"
   sodipodi:docname="features-img-3.svg"
   inkscape:version="0.92.4 (5da689c313, 2019-01-14)">
  <metadata
     id="metadata10">
    <rdf:RDF>
      <cc:Work
         rdf:about="">
        <dc:format>image/svg+xml</dc:format>
        <dc:type
           rdf:resource="http://purl.org/dc/dcmitype/StillImage" />
        <dc:title></dc:title>
      </cc:Work>
    </rdf:RDF>
  </metadata>
  <defs
     id="defs8">
    <linearGradient
       inkscape:collect="always"
       id="linearGradient821">
      <stop
         style="stop-color:#12a09e;stop-opacity:1"
         offset="0"
         id="stop817" />
      <stop
         style="stop-color:#a81fe9;stop-opacity:1"
         offset="1"
         id="stop819" />
    </linearGradient>
    <linearGradient
       inkscape:collect="always"
       xlink:href="#linearGradient821"
       id="linearGradient823"
       x1="153.97269"
       y1="259.29755"
       x2="1127.4113"
       y2="406.75519"
       gradientUnits="userSpaceOnUse" />
  </defs>
  <sodipodi:namedview
     pagecolor="#ffffff"
     bordercolor="#666666"
     borderopacity="1"
     objecttolerance="10"
     gridtolerance="10"
     guidetolerance="10"
     inkscape:pageopacity="0"
     inkscape:pageshadow="2"
     inkscape:window-width="1920"
     inkscape:window-height="974"
     id="namedview6"
     showgrid="false"
     inkscape:zoom="0.1475"
     inkscape:cx="-128.81356"
     inkscape:cy="800"
     inkscape:window-x="-11"
     inkscape:window-y="-11"
     inkscape:window-maximized="1"
     inkscape:current-layer="svg4" />
  <path
     d="m584.75 456.24h61.102v60.961c0 30.559 16.781 57.387 41.57 71.719 12.629-5.5859 26.574-8.6875 41.215-8.6875h41.203v-41.344c0-154.39 233.55-154.46 233.55 0v41.344h41.246c14.641 0 28.586 3.1055 41.203 8.6875 24.805-14.328 41.57-41.16 41.57-71.719v-316c0-45.539-37.246-82.785-82.773-82.785h-316c-45.555 0-82.785 37.246-82.785 82.785v60.973h-61.102c-128.38 0-128.34 194.06 0 194.06zm80.844 293.71-59.004-15.832 15.762-58.863c11.805-43.992-14.543-89.617-58.535-101.41l-58.875-15.773-15.816 59.031c-33.207 123.96-220.68 73.785-187.44-50.23l15.805-59.031-58.891-15.773c-43.98-11.777-89.605 14.555-101.38 58.551l-81.793 305.22c-11.777 43.992 14.555 89.59 58.535 101.38l305.22 81.781c44.008 11.793 89.617-14.543 101.39-58.523l15.773-58.906 59.031 15.805c124 33.238 174.18-154.23 50.215-187.43zm123.99-211.07v61.086h-60.945c-30.602 0-57.43 16.809-71.758 41.629 5.5977 12.645 8.7148 26.59 8.7148 41.16v41.215h41.359c154.39 0 154.45 233.55 0 233.55h-41.359v41.23c0 14.656-3.1055 28.586-8.6875 41.215 14.328 24.789 41.16 41.57 71.73 41.57h316c45.523 0 82.773-37.246 82.773-82.785v-316c0-45.539-37.246-82.785-82.773-82.785h-60.988v-61.086c0-128.39-194.06-128.34-194.06 0z"
     fill-rule="evenodd"
     id="path2"
     style="fill-opacity:1;fill:url(#linearGradient823)" />
</svg>
