<svg width="40" height="41" viewBox="0 0 40 41" fill="none" xmlns="http://www.w3.org/2000/svg">
<path d="M20 0.5C8.96 0.5 0 9.46 0 20.5C0 31.54 8.96 40.5 20 40.5C31.04 40.5 40 31.54 40 20.5C40 9.46 31.04 0.5 20 0.5ZM34.92 14.74L29.36 17.04C28.8591 15.6922 28.0724 14.4689 27.0539 13.4539C26.0355 12.4389 24.8095 11.6564 23.46 11.16L25.76 5.6C29.96 7.2 33.3 10.54 34.92 14.74ZM20 26.5C16.68 26.5 14 23.82 14 20.5C14 17.18 16.68 14.5 20 14.5C23.32 14.5 26 17.18 26 20.5C26 23.82 23.32 26.5 20 26.5ZM14.26 5.58L16.6 11.14C15.2346 11.6376 13.9941 12.4268 12.9648 13.4526C11.9355 14.4785 11.1422 15.7163 10.64 17.08L5.08 14.76C5.88197 12.6723 7.11355 10.7763 8.69495 9.19495C10.2763 7.61355 12.1723 6.38197 14.26 5.58ZM5.08 26.24L10.64 23.94C11.1387 25.3001 11.9287 26.5348 12.9548 27.5574C13.9809 28.58 15.2182 29.3659 16.58 29.86L14.24 35.42C12.1568 34.6144 10.2654 33.3813 8.68771 31.8002C7.11004 30.2191 5.88108 28.325 5.08 26.24ZM25.76 35.42L23.46 29.86C24.8158 29.3577 26.0458 28.5661 27.0647 27.5403C28.0836 26.5145 28.8669 25.2791 29.36 23.92L34.92 26.26C34.1154 28.3406 32.885 30.2302 31.3076 31.8076C29.7302 33.385 27.8406 34.6154 25.76 35.42Z" fill="url(#paint0_linear_108_4)"/>
<defs>
<linearGradient id="paint0_linear_108_4" x1="4.27528" y1="5.94796" x2="40.2032" y2="12.2062" gradientUnits="userSpaceOnUse">
<stop stop-color="#12A09E"/>
<stop offset="1" stop-color="#A81FE9"/>
</linearGradient>
</defs>
</svg>
