<svg width="49" height="49" viewBox="0 0 49 49" fill="none" xmlns="http://www.w3.org/2000/svg">
<path d="M27.5 43.5986H21.5C21.1022 43.5986 20.7207 43.7566 20.4394 44.0379C20.1581 44.3192 20 44.7007 20 45.0986C20 45.4964 20.1581 45.8779 20.4394 46.1592C20.7207 46.4405 21.1022 46.5986 21.5 46.5986H27.5C27.8979 46.5986 28.2794 46.4405 28.5607 46.1592C28.842 45.8779 29 45.4964 29 45.0986C29 44.7007 28.842 44.3192 28.5607 44.0379C28.2794 43.7566 27.8979 43.5986 27.5 43.5986ZM29 39.0986H20C19.6022 39.0986 19.2207 39.2566 18.9394 39.5379C18.6581 39.8192 18.5 40.2007 18.5 40.5986C18.5 40.9964 18.6581 41.3779 18.9394 41.6592C19.2207 41.9405 19.6022 42.0986 20 42.0986H29C29.3979 42.0986 29.7794 41.9405 30.0607 41.6592C30.342 41.3779 30.5 40.9964 30.5 40.5986C30.5 40.2007 30.342 39.8192 30.0607 39.5379C29.7794 39.2566 29.3979 39.0986 29 39.0986ZM35.1332 5.97574C32.3141 3.15293 28.5379 1.59855 24.5 1.59855C22.5289 1.59386 20.5762 1.97863 18.7542 2.73079C16.9322 3.48295 15.2768 4.58766 13.883 5.98147C12.4891 7.37529 11.3844 9.03074 10.6323 10.8527C9.88012 12.6748 9.49534 14.6274 9.50004 16.5986C9.50004 20.9692 11.1754 25.0576 14.0938 27.8148L14.5025 28.1982C16.191 29.777 18.5 31.9398 18.5 33.8486V36.0986C18.5 36.4964 18.6581 36.8779 18.9394 37.1592C19.2207 37.4405 19.6022 37.5986 20 37.5986H22.25C22.449 37.5986 22.6397 37.5195 22.7804 37.3789C22.921 37.2382 23 37.0475 23 36.8486V25.8629C23.0001 25.7113 22.9542 25.5631 22.8683 25.4381C22.7824 25.3131 22.6607 25.217 22.5191 25.1626C21.6529 24.8092 20.8301 24.3579 20.0666 23.8173C19.895 23.7077 19.7476 23.5644 19.6332 23.396C19.5188 23.2276 19.4398 23.0377 19.4012 22.8379C19.3625 22.638 19.365 22.4324 19.4084 22.2335C19.4517 22.0346 19.5351 21.8466 19.6535 21.681C19.7719 21.5153 19.9227 21.3755 20.0968 21.2701C20.2709 21.1646 20.4647 21.0957 20.6663 21.0675C20.8679 21.0393 21.0731 21.0525 21.2695 21.1062C21.4659 21.1599 21.6493 21.253 21.8085 21.3798C22.5022 21.8711 23.8382 22.5986 24.5 22.5986C25.1619 22.5986 26.4979 21.8692 27.1935 21.3798C27.5174 21.1762 27.9068 21.104 28.2822 21.1781C28.6575 21.2521 28.9904 21.4668 29.2127 21.7782C29.435 22.0896 29.5299 22.4741 29.478 22.8532C29.4261 23.2322 29.2313 23.5771 28.9335 23.8173C28.1699 24.3569 27.347 24.8073 26.481 25.1598C26.3394 25.2142 26.2177 25.3103 26.1318 25.4353C26.0459 25.5603 26 25.7084 26 25.8601V36.8486C26 37.0475 26.0791 37.2382 26.2197 37.3789C26.3604 37.5195 26.5511 37.5986 26.75 37.5986H29C29.3979 37.5986 29.7794 37.4405 30.0607 37.1592C30.342 36.8779 30.5 36.4964 30.5 36.0986V33.8486C30.5 31.9848 32.7838 29.8239 34.4516 28.2451L34.9119 27.8082C37.9138 24.9423 39.5 21.062 39.5 16.5986C39.51 14.6272 39.1292 12.6735 38.3796 10.8502C37.6301 9.02684 36.5267 7.37013 35.1332 5.97574Z" fill="url(#paint0_linear_63_210)"/>
<defs>
<linearGradient id="paint0_linear_63_210" x1="12.7065" y1="7.72747" x2="40.1008" y2="10.9087" gradientUnits="userSpaceOnUse">
<stop stop-color="#12A09E"/>
<stop offset="1" stop-color="#A81FE9"/>
</linearGradient>
</defs>
</svg>
