<svg width="41" height="41" viewBox="0 0 41 41" fill="none" xmlns="http://www.w3.org/2000/svg">
<path d="M12.5 40.0985C11.4 40.0985 10.4587 39.7072 9.676 38.9245C8.892 38.1405 8.5 37.1985 8.5 36.0985C8.5 34.9985 8.892 34.0565 9.676 33.2725C10.4587 32.4898 11.4 32.0985 12.5 32.0985C13.6 32.0985 14.5413 32.4898 15.324 33.2725C16.108 34.0565 16.5 34.9985 16.5 36.0985C16.5 37.1985 16.108 38.1405 15.324 38.9245C14.5413 39.7072 13.6 40.0985 12.5 40.0985ZM32.5 40.0985C31.4 40.0985 30.4587 39.7072 29.676 38.9245C28.892 38.1405 28.5 37.1985 28.5 36.0985C28.5 34.9985 28.892 34.0565 29.676 33.2725C30.4587 32.4898 31.4 32.0985 32.5 32.0985C33.6 32.0985 34.542 32.4898 35.326 33.2725C36.1087 34.0565 36.5 34.9985 36.5 36.0985C36.5 37.1985 36.1087 38.1405 35.326 38.9245C34.542 39.7072 33.6 40.0985 32.5 40.0985ZM8.9 4.09851H38.4C39.1667 4.09851 39.75 4.43984 40.15 5.12251C40.55 5.80651 40.5667 6.49851 40.2 7.19851L33.1 19.9985C32.7333 20.6652 32.2413 21.1818 31.624 21.5485C31.008 21.9152 30.3333 22.0985 29.6 22.0985H14.7L12.5 26.0985H36.5V30.0985H12.5C11 30.0985 9.86667 29.4398 9.1 28.1225C8.33333 26.8065 8.3 25.4985 9 24.1985L11.7 19.2985L4.5 4.09851H0.5V0.0985107H7L8.9 4.09851Z" fill="url(#paint0_linear_123_16)"/>
<defs>
<linearGradient id="paint0_linear_123_16" x1="4.77133" y1="5.54647" x2="40.668" y2="11.7935" gradientUnits="userSpaceOnUse">
<stop stop-color="#12A09E"/>
<stop offset="1" stop-color="#A81FE9"/>
</linearGradient>
</defs>
</svg>
