<svg width="108" height="48" viewBox="0 0 108 48" fill="none" xmlns="http://www.w3.org/2000/svg">
<g clip-path="url(#clip0_13_80)">
<path d="M24.0122 15.5637V12.0243C24.0122 10.7395 23.2364 9.6001 22.0485 9.09101L0.109131 0.048584V2.01222L19.6728 10.085C20.3516 10.3516 20.3516 11.3213 19.6728 11.588L0.109131 19.6607V27.5395L11.8909 22.6668L19.6485 25.8668C20.3273 26.1334 20.3273 27.1031 19.6485 27.3698L0.109131 35.4425V47.9274L22.0485 38.8849C23.2364 38.4001 24.0122 37.2365 24.0122 35.9516V27.8304C24.0122 26.5456 23.2364 25.4062 22.0485 24.8971L14.2667 21.6971L22.0485 18.4971C23.2364 18.0122 24.0122 16.8486 24.0122 15.5637Z" fill="url(#paint0_linear_13_80)"/>
<path d="M24.0122 15.5637V12.0243C24.0122 10.7395 23.2364 9.6001 22.0485 9.09101L0.109131 0.048584V2.01222L19.6728 10.085C20.3516 10.3516 20.3516 11.3213 19.6728 11.588L0.109131 19.6607V27.5395L11.8909 22.6668L19.6485 25.8668C20.3273 26.1334 20.3273 27.1031 19.6485 27.3698L0.109131 35.4425V47.9274L22.0485 38.8849C23.2364 38.4001 24.0122 37.2365 24.0122 35.9516V27.8304C24.0122 26.5456 23.2364 25.4062 22.0485 24.8971L14.2667 21.6971L22.0485 18.4971C23.2364 18.0122 24.0122 16.8486 24.0122 15.5637Z" fill="url(#paint1_linear_13_80)"/>
<path d="M35.1637 17.7212L38.6061 31.1272L42.4606 17.7212H46.1455L49.7818 31.1272L53.3697 17.7212H56.0849L51.4546 33.8909H48.0121L44.2061 19.9515L40.2546 33.8909H36.7637L32.2788 17.7212H35.1637Z" fill="url(#paint2_linear_13_80)"/>
<path d="M60.2304 26.5941C60.3273 27.9274 60.4728 28.6062 60.9092 29.4547C61.7092 30.9819 63.5273 31.9759 65.3455 31.9759C67.5516 31.9759 68.9819 30.9334 69.5879 28.8728H72.594C71.8425 32.3637 69.2001 34.3031 65.297 34.3031C60.4243 34.3031 57.3213 30.9577 57.3213 25.7213C57.3213 20.6062 60.4243 17.188 65.0546 17.188C69.9758 17.188 72.6425 20.5334 72.6425 26.5456H60.2304V26.5941ZM68.9092 21.6486C68.1576 20.3637 66.6304 19.588 65.0546 19.588C62.3395 19.588 60.6183 21.3092 60.2789 24.4122H69.6849C69.5395 22.9819 69.3455 22.3031 68.9092 21.6486Z" fill="url(#paint3_linear_13_80)"/>
<path d="M75.3576 11.5637H78.1213V20.1455C79.2606 18.2304 80.8364 17.3334 83.1394 17.3334C87.1394 17.3334 90 20.8243 90 25.8183C90 30.8122 87.2849 34.2061 83.1637 34.2061C80.9091 34.2061 79.4303 33.3092 78 31.2001V33.8668H75.3334V11.5637H75.3576ZM78.1697 25.7455C78.1697 29.2849 80.1819 31.9031 82.8 31.9031C85.3212 31.9031 86.994 29.5274 86.994 25.8425C86.994 21.988 85.3213 19.588 82.7031 19.588C80.0849 19.588 78.1697 22.1092 78.1697 25.7455Z" fill="url(#paint4_linear_13_80)"/>
<path d="M95.0182 27.0789C94.9697 29.9395 96.7879 31.8062 99.6485 31.8062C102.218 31.8062 104.085 30.182 104.085 27.9517C104.085 25.6729 102.315 24.2668 99.4545 24.2668C99.1636 24.2668 98.9212 24.2668 98.5091 24.3153V21.8426C98.8485 21.8426 99.0424 21.8426 99.2363 21.8426C102.194 21.8426 103.915 20.5577 103.915 18.2547C103.915 16.0971 102.242 14.7153 99.7212 14.7153C97.006 14.7153 95.4303 16.3395 95.3333 19.2002H92.3757C92.5697 14.7638 95.2848 12.1941 99.7697 12.1941C103.915 12.1941 106.824 14.5698 106.824 18.0123C106.824 20.2911 105.2 22.4001 103.018 22.982C105.685 23.6608 107.115 25.4547 107.115 28.1456C107.115 31.782 104.012 34.3517 99.6242 34.3517C95.0424 34.3517 91.9394 31.3941 91.9879 27.1032C91.9636 27.0789 95.0182 27.0789 95.0182 27.0789Z" fill="url(#paint5_linear_13_80)"/>
</g>
<defs>
<linearGradient id="paint0_linear_13_80" x1="-0.443879" y1="0.0485821" x2="37.8188" y2="4.30217" gradientUnits="userSpaceOnUse">
<stop stop-color="#12A09E"/>
<stop offset="1" stop-color="#A81FE9"/>
</linearGradient>
<linearGradient id="paint1_linear_13_80" x1="2.66394" y1="6.56962" x2="24.619" y2="8.4789" gradientUnits="userSpaceOnUse">
<stop stop-color="#12A09E"/>
<stop offset="1" stop-color="#A81FE9"/>
</linearGradient>
<linearGradient id="paint2_linear_13_80" x1="34.8232" y1="19.9235" x2="55.495" y2="25.2249" gradientUnits="userSpaceOnUse">
<stop stop-color="#12A09E"/>
<stop offset="1" stop-color="#A81FE9"/>
</linearGradient>
<linearGradient id="paint3_linear_13_80" x1="58.9589" y1="19.5191" x2="72.8013" y2="21.6775" gradientUnits="userSpaceOnUse">
<stop stop-color="#12A09E"/>
<stop offset="1" stop-color="#A81FE9"/>
</linearGradient>
<linearGradient id="paint4_linear_13_80" x1="76.901" y1="14.6476" x2="90.3036" y2="16.1598" gradientUnits="userSpaceOnUse">
<stop stop-color="#12A09E"/>
<stop offset="1" stop-color="#A81FE9"/>
</linearGradient>
<linearGradient id="paint5_linear_13_80" x1="93.6042" y1="15.2119" x2="107.409" y2="16.8537" gradientUnits="userSpaceOnUse">
<stop stop-color="#12A09E"/>
<stop offset="1" stop-color="#A81FE9"/>
</linearGradient>
<clipPath id="clip0_13_80">
<rect width="107.636" height="48" fill="white" transform="translate(0.181885)"/>
</clipPath>
</defs>
</svg>
